STARTFONT 2.1
FONT -Adobe-Utopia-Bold-I-Normal--19-140-100-100-P-109-ISO10646-1
SIZE 14 100 100
FONTBOUNDINGBOX 28 31 -3 -8
COMMENT $Xorg: $
COMMENT ISO10646-1 extension by Markus Kuhn <mkuhn@acm.org>, 2001-03-20
STARTPROPERTIES 28
FOUNDRY "Adobe"
FAMILY_NAME "Utopia"
WEIGHT_NAME "Bold"
SLANT "I"
SETWIDTH_NAME "Normal"
ADD_STYLE_NAME ""
PIXEL_SIZE 19
POINT_SIZE 140
RESOLUTION_X 100
RESOLUTION_Y 100
SPACING "P"
AVERAGE_WIDTH 109
CHARSET_REGISTRY "ISO10646"
CHARSET_ENCODING "1"
CAP_HEIGHT 13
X_HEIGHT 10
RELATIVE_SETWIDTH 50
RELATIVE_WEIGHT 70
WEIGHT 208
FACE_NAME "Utopia Bold Italic"
COPYRIGHT "Copyright (c) 1989, 1991 Adobe Systems Incorporated.  All Rights Reserved."
NOTICE "Utopia is a registered trademark of Adobe Systems Incorporated."
DESTINATION 0
FONT_ASCENT 18
FONT_DESCENT 5
DEFAULT_CHAR 0
_ADOBE_PSFONT "Utopia-BoldItalic"
_DEC_DEVICE_FONTNAMES "PS=Utopia-BoldItalic"
ENDPROPERTIES
CHARS 723
STARTCHAR char0
ENCODING 0
SWIDTH 800 0
DWIDTH 16 0
BBX 17 13 1 0
BITMAP
AAAA80
000000
800080
000000
800080
000000
800080
000000
800080
000000
800080
000000
AAAA80
ENDCHAR
STARTCHAR space
ENCODING 32
SWIDTH 210 0
DWIDTH 4 0
BBX 0 0 0 0
BITMAP
ENDCHAR
STARTCHAR exclam
ENCODING 33
SWIDTH 285 0
DWIDTH 6 0
BBX 6 14 1 0
BITMAP
1C
1C
38
38
38
30
30
30
20
20
00
E0
F0
60
ENDCHAR
STARTCHAR quotedbl
ENCODING 34
SWIDTH 455 0
DWIDTH 9 0
BBX 7 6 3 8
BITMAP
66
EE
CC
CC
CC
88
ENDCHAR
STARTCHAR numbersign
ENCODING 35
SWIDTH 560 0
DWIDTH 11 0
BBX 11 13 1 0
BITMAP
0640
04C0
0C80
0880
7FE0
1900
1100
1300
FFC0
2200
2600
6400
4C00
ENDCHAR
STARTCHAR dollar
ENCODING 36
SWIDTH 560 0
DWIDTH 11 0
BBX 11 16 1 -2
BITMAP
0100
0F80
1AE0
3260
3200
3C00
1E00
1F80
07C0
0BC0
49C0
C9C0
EB80
3E00
1000
1000
ENDCHAR
STARTCHAR percent
ENCODING 37
SWIDTH 896 0
DWIDTH 17 0
BBX 14 14 3 -1
BITMAP
3808
67F0
4630
C660
C640
CC80
7978
03CC
068C
058C
0988
1198
30F0
2000
ENDCHAR
STARTCHAR ampersand
ENCODING 38
SWIDTH 752 0
DWIDTH 15 0
BBX 13 13 2 0
BITMAP
0780
08C0
18C0
1880
1918
1E30
1F30
6F20
E7A0
E3C0
E1E0
71F0
3E30
ENDCHAR
STARTCHAR quotesingle
ENCODING 39
SWIDTH 246 0
DWIDTH 5 0
BBX 3 6 3 8
BITMAP
60
E0
C0
C0
C0
80
ENDCHAR
STARTCHAR parenleft
ENCODING 40
SWIDTH 350 0
DWIDTH 7 0
BBX 7 16 2 -2
BITMAP
06
0C
18
30
30
60
60
60
C0
C0
C0
C0
C0
C0
40
60
ENDCHAR
STARTCHAR parenright
ENCODING 41
SWIDTH 350 0
DWIDTH 7 0
BBX 7 17 0 -3
BITMAP
08
0C
04
06
06
06
06
06
06
0C
0C
0C
18
18
30
60
C0
ENDCHAR
STARTCHAR asterisk
ENCODING 42
SWIDTH 500 0
DWIDTH 10 0
BBX 8 8 3 6
BITMAP
0C
49
6B
3C
7C
D6
10
10
ENDCHAR
STARTCHAR plus
ENCODING 43
SWIDTH 600 0
DWIDTH 12 0
BBX 10 10 2 0
BITMAP
0C00
0C00
0C00
0C00
FFC0
FFC0
0C00
0C00
0C00
0C00
ENDCHAR
STARTCHAR comma
ENCODING 44
SWIDTH 280 0
DWIDTH 5 0
BBX 4 7 1 -3
BITMAP
20
70
70
70
60
40
80
ENDCHAR
STARTCHAR hyphen
ENCODING 45
SWIDTH 392 0
DWIDTH 8 0
BBX 6 2 2 4
BITMAP
FC
FC
ENDCHAR
STARTCHAR period
ENCODING 46
SWIDTH 280 0
DWIDTH 5 0
BBX 3 3 2 0
BITMAP
60
E0
C0
ENDCHAR
STARTCHAR slash
ENCODING 47
SWIDTH 260 0
DWIDTH 5 0
BBX 8 14 0 0
BITMAP
03
06
06
0C
0C
0C
18
18
30
30
30
60
60
C0
ENDCHAR
STARTCHAR zero
ENCODING 48
SWIDTH 560 0
DWIDTH 11 0
BBX 10 13 2 0
BITMAP
0F00
1980
39C0
71C0
71C0
71C0
E1C0
E380
E380
E380
E700
6600
3C00
ENDCHAR
STARTCHAR one
ENCODING 49
SWIDTH 560 0
DWIDTH 11 0
BBX 8 13 2 0
BITMAP
03
1F
06
0E
0E
0E
0C
1C
1C
1C
1C
38
FE
ENDCHAR
STARTCHAR two
ENCODING 50
SWIDTH 560 0
DWIDTH 11 0
BBX 11 13 1 0
BITMAP
0F80
1CC0
38E0
38E0
00E0
01C0
0380
0700
0C00
3800
7040
FFC0
FF80
ENDCHAR
STARTCHAR three
ENCODING 51
SWIDTH 560 0
DWIDTH 11 0
BBX 11 13 1 0
BITMAP
0F80
1CC0
38E0
00E0
01C0
1F00
0180
01C0
01C0
61C0
E1C0
7380
3E00
ENDCHAR
STARTCHAR four
ENCODING 52
SWIDTH 560 0
DWIDTH 11 0
BBX 10 13 1 0
BITMAP
01C0
03C0
0380
0580
0B80
1380
3380
6300
FFC0
0700
0700
0600
1F80
ENDCHAR
STARTCHAR five
ENCODING 53
SWIDTH 560 0
DWIDTH 11 0
BBX 11 13 1 0
BITMAP
1FE0
1FC0
1000
1000
3000
2F00
3380
01C0
01C0
61C0
E180
7380
3E00
ENDCHAR
STARTCHAR six
ENCODING 54
SWIDTH 560 0
DWIDTH 11 0
BBX 10 13 2 0
BITMAP
0F00
1880
38C0
7080
6000
6F00
F380
E380
E380
E380
E300
6700
3C00
ENDCHAR
STARTCHAR seven
ENCODING 55
SWIDTH 560 0
DWIDTH 11 0
BBX 10 13 3 0
BITMAP
7FC0
7FC0
8180
0100
0200
0400
0C00
1800
3000
7000
7000
7000
6000
ENDCHAR
STARTCHAR eight
ENCODING 56
SWIDTH 560 0
DWIDTH 11 0
BBX 11 13 1 0
BITMAP
0F80
1CC0
38E0
38E0
38E0
19C0
1F00
7180
E1C0
E1C0
E1C0
6380
3E00
ENDCHAR
STARTCHAR nine
ENCODING 57
SWIDTH 560 0
DWIDTH 11 0
BBX 11 13 1 0
BITMAP
0F80
38C0
38C0
70E0
70E0
70E0
79E0
1EC0
01C0
41C0
E380
E700
3E00
ENDCHAR
STARTCHAR colon
ENCODING 58
SWIDTH 280 0
DWIDTH 5 0
BBX 5 10 1 0
BITMAP
30
38
78
10
00
00
40
F0
E0
60
ENDCHAR
STARTCHAR semicolon
ENCODING 59
SWIDTH 280 0
DWIDTH 5 0
BBX 5 12 1 -2
BITMAP
30
38
78
20
00
00
70
70
70
60
40
80
ENDCHAR
STARTCHAR less
ENCODING 60
SWIDTH 600 0
DWIDTH 12 0
BBX 9 10 2 0
BITMAP
0080
0380
0F80
3C00
F000
C000
7800
1E00
0780
0080
ENDCHAR
STARTCHAR equal
ENCODING 61
SWIDTH 600 0
DWIDTH 12 0
BBX 9 6 2 2
BITMAP
FF80
FF80
0000
0000
FF80
FF80
ENDCHAR
STARTCHAR greater
ENCODING 62
SWIDTH 600 0
DWIDTH 12 0
BBX 9 10 2 0
BITMAP
8000
E000
F800
1E00
0780
0180
0F00
3C00
F000
8000
ENDCHAR
STARTCHAR question
ENCODING 63
SWIDTH 454 0
DWIDTH 9 0
BBX 8 14 3 0
BITMAP
3C
E7
E7
CF
0E
3C
70
E0
E0
78
00
E0
F0
60
ENDCHAR
STARTCHAR at
ENCODING 64
SWIDTH 828 0
DWIDTH 16 0
BBX 15 14 2 0
BITMAP
03F0
0C18
3804
30FE
6332
4632
C672
CE62
CCE4
CD64
6E78
7000
3810
07E0
ENDCHAR
STARTCHAR A
ENCODING 65
SWIDTH 634 0
DWIDTH 12 0
BBX 14 14 -1 0
BITMAP
0060
00E0
00E0
0170
0370
0270
0670
0470
0FF0
0870
1070
3070
2078
F8FC
ENDCHAR
STARTCHAR B
ENCODING 66
SWIDTH 680 0
DWIDTH 13 0
BBX 13 14 1 0
BITMAP
3FE0
0E30
0E38
1C38
1C38
1C70
1FC0
1CC0
3870
3870
3870
3870
78E0
FF80
ENDCHAR
STARTCHAR C
ENCODING 67
SWIDTH 672 0
DWIDTH 13 0
BBX 13 14 2 0
BITMAP
07E0
1C38
3810
7010
7000
7000
E000
E000
E000
E020
E020
6060
30C0
0F80
ENDCHAR
STARTCHAR D
ENCODING 68
SWIDTH 774 0
DWIDTH 15 0
BBX 15 14 1 0
BITMAP
1FF0
0E18
0E0C
0E0E
1C0E
1C0E
1C0E
1C0E
1C1C
381C
383C
3878
38F0
FF80
ENDCHAR
STARTCHAR E
ENCODING 69
SWIDTH 622 0
DWIDTH 12 0
BBX 13 14 1 0
BITMAP
3FF8
0E18
0E18
0C10
1C20
1C40
1FC0
1C40
3840
3810
3820
3820
7860
FFE0
ENDCHAR
STARTCHAR F
ENCODING 70
SWIDTH 585 0
DWIDTH 11 0
BBX 13 14 1 0
BITMAP
1FF8
0E18
0E10
0E10
1C00
1C20
1C60
1FC0
1C40
3840
3800
3800
3800
FC00
ENDCHAR
STARTCHAR G
ENCODING 71
SWIDTH 726 0
DWIDTH 14 0
BBX 13 14 2 0
BITMAP
07E0
1C38
3830
7010
7010
7000
E000
E000
E1F8
E0E0
E0E0
60E0
71E0
1F80
ENDCHAR
STARTCHAR H
ENCODING 72
SWIDTH 800 0
DWIDTH 16 0
BBX 17 14 1 0
BITMAP
1F9F80
0E0E00
0E0E00
0E0E00
0E0E00
1C1C00
1FFC00
1C1C00
1C1C00
383800
383800
383800
383800
FCFC00
ENDCHAR
STARTCHAR I
ENCODING 73
SWIDTH 386 0
DWIDTH 8 0
BBX 9 14 1 0
BITMAP
1F80
0E00
0E00
0E00
0E00
1C00
1C00
1C00
1C00
3800
3800
3800
3800
FC00
ENDCHAR
STARTCHAR J
ENCODING 74
SWIDTH 388 0
DWIDTH 8 0
BBX 10 16 0 -2
BITMAP
0FC0
0700
0700
0700
0700
0E00
0E00
0E00
0E00
0C00
1C00
1C00
1C00
3800
7800
E000
ENDCHAR
STARTCHAR K
ENCODING 75
SWIDTH 688 0
DWIDTH 13 0
BBX 16 14 1 0
BITMAP
3FBF
0E18
0E30
0E60
1CC0
1D80
1F80
1F80
3D80
39C0
39E0
38E0
78F0
FC38
ENDCHAR
STARTCHAR L
ENCODING 76
SWIDTH 586 0
DWIDTH 11 0
BBX 11 14 1 0
BITMAP
1F80
0E00
0E00
0E00
1C00
1C00
1C00
1C00
3800
3800
3820
3860
78C0
FFC0
ENDCHAR
STARTCHAR M
ENCODING 77
SWIDTH 921 0
DWIDTH 18 0
BBX 19 14 1 0
BITMAP
3E03E0
0E0780
0F0780
1F0F80
170B80
171300
171700
132700
23A700
23C700
23C600
238E00
638E00
F93F00
ENDCHAR
STARTCHAR N
ENCODING 78
SWIDTH 741 0
DWIDTH 14 0
BBX 16 14 1 0
BITMAP
1E1F
0F04
0F04
0F04
0B8C
1388
11C8
11C8
11C8
30F0
20F0
2070
2070
F870
ENDCHAR
STARTCHAR O
ENCODING 79
SWIDTH 761 0
DWIDTH 15 0
BBX 14 14 2 0
BITMAP
07E0
1E30
3C18
781C
701C
701C
F01C
E03C
E038
E038
E078
60F0
31E0
1F80
ENDCHAR
STARTCHAR P
ENCODING 80
SWIDTH 660 0
DWIDTH 13 0
BBX 13 14 1 0
BITMAP
3FE0
0E70
0E38
0E38
1C38
1C38
1C70
1CF0
3FC0
3800
3800
3800
7800
FC00
ENDCHAR
STARTCHAR Q
ENCODING 81
SWIDTH 761 0
DWIDTH 15 0
BBX 14 18 2 -4
BITMAP
07E0
1E30
3C18
781C
701C
701C
E01C
E03C
E038
E038
E078
60F0
31E0
1F80
0780
0780
03E0
00F0
ENDCHAR
STARTCHAR R
ENCODING 82
SWIDTH 681 0
DWIDTH 13 0
BBX 13 14 1 0
BITMAP
1FE0
0E30
0E38
0E38
1C38
1C70
1C60
1F80
1CE0
38E0
38E0
38E0
38E0
FC70
ENDCHAR
STARTCHAR S
ENCODING 83
SWIDTH 551 0
DWIDTH 11 0
BBX 11 14 1 0
BITMAP
0780
1CE0
1840
3840
3C00
3E00
1F00
0780
03C0
41C0
41C0
C180
6380
3E00
ENDCHAR
STARTCHAR T
ENCODING 84
SWIDTH 616 0
DWIDTH 12 0
BBX 13 14 2 0
BITMAP
7FF8
6710
4710
8710
0700
0E00
0E00
0E00
0E00
1C00
1C00
1C00
1C00
7F00
ENDCHAR
STARTCHAR U
ENCODING 85
SWIDTH 776 0
DWIDTH 15 0
BBX 15 14 3 0
BITMAP
FEFE
3838
3838
7070
7070
7070
7070
60E0
E0E0
E0E0
E0E0
E1C0
7380
3F00
ENDCHAR
STARTCHAR V
ENCODING 86
SWIDTH 630 0
DWIDTH 12 0
BBX 13 14 3 0
BITMAP
FCF8
7020
7060
7040
30C0
3080
3980
3900
3A00
3A00
3C00
3C00
3800
3800
ENDCHAR
STARTCHAR W
ENCODING 87
SWIDTH 920 0
DWIDTH 18 0
BBX 19 14 2 0
BITMAP
FC01E0
3870C0
387080
38F180
38F100
397100
397200
397200
3A7400
3A7400
3C7C00
3C3800
383800
383000
ENDCHAR
STARTCHAR X
ENCODING 88
SWIDTH 630 0
DWIDTH 12 0
BBX 16 14 -1 0
BITMAP
1F9F
0F0C
0718
07B0
03E0
03C0
01C0
01C0
03E0
04E0
0CE0
1870
3070
FDFC
ENDCHAR
STARTCHAR Y
ENCODING 89
SWIDTH 622 0
DWIDTH 12 0
BBX 13 14 3 0
BITMAP
FCF8
7060
3840
38C0
3980
3900
1E00
1E00
1C00
1C00
1C00
3C00
3800
FE00
ENDCHAR
STARTCHAR Z
ENCODING 90
SWIDTH 618 0
DWIDTH 12 0
BBX 15 14 0 0
BITMAP
0FFE
0C3C
0878
10F0
00E0
01E0
03C0
0780
0F00
1E00
1C10
3830
7020
FFE0
ENDCHAR
STARTCHAR bracketleft
ENCODING 91
SWIDTH 350 0
DWIDTH 7 0
BBX 7 17 2 -3
BITMAP
1E
18
18
18
10
30
30
30
30
20
60
60
60
60
40
C0
F0
ENDCHAR
STARTCHAR backslash
ENCODING 92
SWIDTH 460 0
DWIDTH 9 0
BBX 6 14 3 0
BITMAP
C0
C0
60
60
60
30
30
30
30
18
18
18
0C
0C
ENDCHAR
STARTCHAR bracketright
ENCODING 93
SWIDTH 350 0
DWIDTH 7 0
BBX 7 17 0 -3
BITMAP
1E
06
04
0C
0C
0C
0C
08
18
18
18
18
10
30
30
30
F0
ENDCHAR
STARTCHAR asciicircum
ENCODING 94
SWIDTH 600 0
DWIDTH 12 0
BBX 9 9 2 4
BITMAP
1C00
1C00
1400
3600
3200
6300
6300
4100
C180
ENDCHAR
STARTCHAR underscore
ENCODING 95
SWIDTH 500 0
DWIDTH 10 0
BBX 10 1 0 -2
BITMAP
FFC0
ENDCHAR
STARTCHAR grave
ENCODING 96
SWIDTH 400 0
DWIDTH 8 0
BBX 5 4 3 10
BITMAP
C0
E0
30
08
ENDCHAR
STARTCHAR a
ENCODING 97
SWIDTH 596 0
DWIDTH 12 0
BBX 11 10 1 0
BITMAP
07E0
1CC0
39C0
71C0
71C0
E380
E5A0
EBA0
FBC0
6180
ENDCHAR
STARTCHAR b
ENCODING 98
SWIDTH 586 0
DWIDTH 11 0
BBX 11 14 1 0
BITMAP
0C00
3C00
1C00
1800
39C0
3BE0
34E0
38E0
78E0
71C0
71C0
7180
7300
9E00
ENDCHAR
STARTCHAR c
ENCODING 99
SWIDTH 456 0
DWIDTH 9 0
BBX 10 10 1 0
BITMAP
0780
19C0
31C0
7000
E000
E000
E080
E100
E200
3C00
ENDCHAR
STARTCHAR d
ENCODING 100
SWIDTH 609 0
DWIDTH 12 0
BBX 13 14 1 0
BITMAP
0018
00F8
0070
0070
07F0
1C60
38E0
70E0
71E0
E1C0
E2D0
E5D0
F9E0
70C0
ENDCHAR
STARTCHAR e
ENCODING 101
SWIDTH 476 0
DWIDTH 9 0
BBX 10 10 1 0
BITMAP
0F00
19C0
31C0
73C0
E780
FE00
E000
E180
E300
3C00
ENDCHAR
STARTCHAR f
ENCODING 102
SWIDTH 348 0
DWIDTH 7 0
BBX 13 18 -2 -4
BITMAP
00F0
01B8
0380
0380
0FE0
0700
0700
0700
0600
0600
0E00
0E00
0E00
0C00
0C00
5C00
D800
7000
ENDCHAR
STARTCHAR g
ENCODING 103
SWIDTH 522 0
DWIDTH 10 0
BBX 12 14 0 -4
BITMAP
0FB0
1CF0
38E0
38E0
18E0
19C0
0F80
3800
1F00
1F80
63C0
E1C0
E180
1E00
ENDCHAR
STARTCHAR h
ENCODING 104
SWIDTH 629 0
DWIDTH 12 0
BBX 13 14 1 0
BITMAP
0C00
3C00
1C00
1C00
18C0
3BE0
3AE0
34E0
38C0
70C0
71C8
71D0
61E0
E0C0
ENDCHAR
STARTCHAR i
ENCODING 105
SWIDTH 339 0
DWIDTH 7 0
BBX 6 14 2 0
BITMAP
18
1C
18
00
18
F8
30
70
70
70
68
E8
F0
60
ENDCHAR
STARTCHAR j
ENCODING 106
SWIDTH 333 0
DWIDTH 6 0
BBX 9 19 -1 -4
BITMAP
0180
0380
0380
0000
0000
0300
0F00
0700
0700
0600
0600
0E00
0E00
0E00
0C00
0C00
1C00
D800
F000
ENDCHAR
STARTCHAR k
ENCODING 107
SWIDTH 570 0
DWIDTH 11 0
BBX 11 14 1 0
BITMAP
0C00
7C00
1C00
1800
3860
38E0
3920
3200
7600
7600
7600
6760
E3C0
E180
ENDCHAR
STARTCHAR l
ENCODING 108
SWIDTH 327 0
DWIDTH 6 0
BBX 6 14 2 0
BITMAP
0C
7C
18
38
38
38
30
70
70
60
E8
E8
F0
60
ENDCHAR
STARTCHAR m
ENCODING 109
SWIDTH 914 0
DWIDTH 18 0
BBX 17 10 1 0
BITMAP
0CC300
79EF80
3AEB80
3CD380
38E700
31C700
71C680
71CE80
638F00
E38600
ENDCHAR
STARTCHAR n
ENCODING 110
SWIDTH 635 0
DWIDTH 12 0
BBX 13 10 1 0
BITMAP
18C0
79E0
3AE0
34E0
38C0
70C0
71C8
71D0
61E0
E0C0
ENDCHAR
STARTCHAR o
ENCODING 111
SWIDTH 562 0
DWIDTH 11 0
BBX 11 10 1 0
BITMAP
0F80
38C0
78E0
70E0
F0E0
E1E0
E1C0
E3C0
6380
3E00
ENDCHAR
STARTCHAR p
ENCODING 112
SWIDTH 606 0
DWIDTH 12 0
BBX 12 14 1 -4
BITMAP
0C60
7DF0
1A70
1A70
3C70
38E0
38E0
38C0
7180
7F00
7000
6000
E000
E000
ENDCHAR
STARTCHAR q
ENCODING 113
SWIDTH 584 0
DWIDTH 11 0
BBX 11 14 1 -4
BITMAP
07A0
1CE0
38C0
71C0
71C0
E3C0
E580
E780
FB80
6380
0300
0700
0700
0400
ENDCHAR
STARTCHAR r
ENCODING 114
SWIDTH 440 0
DWIDTH 9 0
BBX 8 10 2 0
BITMAP
33
F7
7B
70
70
70
F0
E0
E0
C0
ENDCHAR
STARTCHAR s
ENCODING 115
SWIDTH 417 0
DWIDTH 8 0
BBX 8 10 1 0
BITMAP
0E
13
33
38
1C
1E
0E
E6
64
38
ENDCHAR
STARTCHAR t
ENCODING 116
SWIDTH 359 0
DWIDTH 7 0
BBX 7 13 2 0
BITMAP
04
18
38
FE
30
70
70
70
60
E4
E8
F0
60
ENDCHAR
STARTCHAR u
ENCODING 117
SWIDTH 634 0
DWIDTH 12 0
BBX 11 10 2 0
BITMAP
1860
F8C0
31C0
71C0
71C0
7380
E5A0
EBA0
FBC0
6180
ENDCHAR
STARTCHAR v
ENCODING 118
SWIDTH 518 0
DWIDTH 10 0
BBX 9 10 2 0
BITMAP
3880
F180
7180
7180
7100
6300
E200
E400
F800
6000
ENDCHAR
STARTCHAR w
ENCODING 119
SWIDTH 795 0
DWIDTH 15 0
BBX 15 10 2 0
BITMAP
38E6
F1C6
71C6
71C6
7384
638C
E788
EB90
F3E0
6180
ENDCHAR
STARTCHAR x
ENCODING 120
SWIDTH 516 0
DWIDTH 10 0
BBX 11 10 0 0
BITMAP
0C60
3EE0
0F00
0E00
0600
0700
0F20
5740
F3C0
4300
ENDCHAR
STARTCHAR y
ENCODING 121
SWIDTH 489 0
DWIDTH 10 0
BBX 11 14 0 -4
BITMAP
0820
7860
1C60
1C40
1CC0
0C80
0D80
0D00
0E00
0E00
0C00
4800
C800
F000
ENDCHAR
STARTCHAR z
ENCODING 122
SWIDTH 466 0
DWIDTH 9 0
BBX 11 10 0 0
BITMAP
1FE0
3FC0
2380
4700
0C00
1800
3080
3880
7F80
C700
ENDCHAR
STARTCHAR braceleft
ENCODING 123
SWIDTH 340 0
DWIDTH 7 0
BBX 6 17 3 -3
BITMAP
0C
18
30
30
30
30
20
60
C0
60
60
60
C0
C0
C0
C0
60
ENDCHAR
STARTCHAR bar
ENCODING 124
SWIDTH 265 0
DWIDTH 5 0
BBX 2 14 3 0
BITMAP
C0
C0
C0
C0
C0
C0
C0
C0
C0
C0
C0
C0
C0
C0
ENDCHAR
STARTCHAR braceright
ENCODING 125
SWIDTH 340 0
DWIDTH 7 0
BBX 7 17 0 -3
BITMAP
0C
06
06
04
0C
18
18
18
0C
10
10
30
30
30
30
60
C0
ENDCHAR
STARTCHAR asciitilde
ENCODING 126
SWIDTH 600 0
DWIDTH 12 0
BBX 10 4 2 3
BITMAP
1040
7F80
4F80
8000
ENDCHAR
STARTCHAR space
ENCODING 160
SWIDTH 210 0
DWIDTH 4 0
BBX 0 0 0 0
BITMAP
ENDCHAR
STARTCHAR exclamdown
ENCODING 161
SWIDTH 285 0
DWIDTH 6 0
BBX 6 14 0 -4
BITMAP
18
3C
1C
00
10
10
30
30
30
70
70
70
E0
E0
ENDCHAR
STARTCHAR cent
ENCODING 162
SWIDTH 560 0
DWIDTH 11 0
BBX 10 13 2 0
BITMAP
0200
0F00
3AC0
72C0
7400
E400
E400
E400
E880
7900
3E00
0800
1800
ENDCHAR
STARTCHAR sterling
ENCODING 163
SWIDTH 560 0
DWIDTH 11 0
BBX 12 13 0 0
BITMAP
03E0
0670
0E30
0E00
0E00
0E00
3FC0
0E00
0E00
0C00
3820
FFC0
FFC0
ENDCHAR
STARTCHAR currency
ENCODING 164
SWIDTH 560 0
DWIDTH 11 0
BBX 9 9 2 2
BITMAP
DD80
FF80
6300
C180
C180
C180
6300
FF80
DD80
ENDCHAR
STARTCHAR yen
ENCODING 165
SWIDTH 560 0
DWIDTH 11 0
BBX 12 13 2 0
BITMAP
7DF0
3840
38C0
3980
1900
1E00
7FC0
1C00
1C00
FF80
3800
3800
FC00
ENDCHAR
STARTCHAR brokenbar
ENCODING 166
SWIDTH 265 0
DWIDTH 5 0
BBX 2 14 3 0
BITMAP
C0
C0
C0
C0
C0
00
00
00
C0
C0
C0
C0
C0
C0
ENDCHAR
STARTCHAR section
ENCODING 167
SWIDTH 568 0
DWIDTH 11 0
BBX 10 16 2 -2
BITMAP
0700
09C0
1880
3C00
5E00
4F00
C780
E1C0
70C0
7880
3C80
0F00
0600
C600
E400
7800
ENDCHAR
STARTCHAR dieresis
ENCODING 168
SWIDTH 400 0
DWIDTH 8 0
BBX 8 3 3 11
BITMAP
66
E7
66
ENDCHAR
STARTCHAR copyright
ENCODING 169
SWIDTH 824 0
DWIDTH 16 0
BBX 15 14 2 0
BITMAP
07C0
1830
3018
63CC
6664
4C26
CC06
CC06
CC26
4664
638C
3018
1830
07C0
ENDCHAR
STARTCHAR ordfeminine
ENCODING 170
SWIDTH 444 0
DWIDTH 9 0
BBX 8 7 2 5
BITMAP
1E
26
6E
4C
DC
DF
EC
ENDCHAR
STARTCHAR guillemotleft
ENCODING 171
SWIDTH 560 0
DWIDTH 11 0
BBX 9 8 2 1
BITMAP
0880
1100
3200
6600
EE00
6600
2200
1200
ENDCHAR
STARTCHAR logicalnot
ENCODING 172
SWIDTH 600 0
DWIDTH 12 0
BBX 9 6 3 2
BITMAP
FF80
FF80
0180
0180
0180
0180
ENDCHAR
STARTCHAR hyphen
ENCODING 173
SWIDTH 392 0
DWIDTH 8 0
BBX 6 2 2 4
BITMAP
FC
FC
ENDCHAR
STARTCHAR registered
ENCODING 174
SWIDTH 824 0
DWIDTH 16 0
BBX 15 14 2 0
BITMAP
07C0
1830
3018
6FCC
6664
4664
C666
C786
C6C6
4664
6F7C
3018
1830
07C0
ENDCHAR
STARTCHAR macron
ENCODING 175
SWIDTH 400 0
DWIDTH 8 0
BBX 6 1 3 12
BITMAP
FC
ENDCHAR
STARTCHAR degree
ENCODING 176
SWIDTH 375 0
DWIDTH 7 0
BBX 6 6 3 7
BITMAP
78
CC
84
84
CC
78
ENDCHAR
STARTCHAR plusminus
ENCODING 177
SWIDTH 600 0
DWIDTH 12 0
BBX 10 11 2 0
BITMAP
0C00
0C00
0C00
FFC0
FFC0
0C00
0C00
0C00
0000
FFC0
FFC0
ENDCHAR
STARTCHAR twosuperior
ENCODING 178
SWIDTH 402 0
DWIDTH 8 0
BBX 8 8 1 5
BITMAP
0E
1B
33
06
0C
39
7E
FE
ENDCHAR
STARTCHAR threesuperior
ENCODING 179
SWIDTH 402 0
DWIDTH 8 0
BBX 7 8 2 5
BITMAP
1C
76
06
38
0C
CE
CE
78
ENDCHAR
STARTCHAR acute
ENCODING 180
SWIDTH 400 0
DWIDTH 8 0
BBX 5 4 4 10
BITMAP
18
38
60
80
ENDCHAR
STARTCHAR mu
ENCODING 181
SWIDTH 634 0
DWIDTH 12 0
BBX 12 14 1 -4
BITMAP
0C30
7C60
18E0
38E0
38E0
39C0
32D0
75D0
7DE0
70C0
4000
C000
C000
8000
ENDCHAR
STARTCHAR paragraph
ENCODING 182
SWIDTH 580 0
DWIDTH 11 0
BBX 11 16 3 -2
BITMAP
0DE0
3D80
7D80
7900
FB00
FB00
FB00
7300
3600
0600
0600
0600
0400
0C00
0C00
3C00
ENDCHAR
STARTCHAR periodcentered
ENCODING 183
SWIDTH 280 0
DWIDTH 5 0
BBX 3 3 2 3
BITMAP
60
E0
C0
ENDCHAR
STARTCHAR cedilla
ENCODING 184
SWIDTH 400 0
DWIDTH 8 0
BBX 4 6 2 -5
BITMAP
20
60
70
30
30
E0
ENDCHAR
STARTCHAR onesuperior
ENCODING 185
SWIDTH 402 0
DWIDTH 8 0
BBX 6 8 2 5
BITMAP
0C
3C
18
18
38
38
38
FC
ENDCHAR
STARTCHAR ordmasculine
ENCODING 186
SWIDTH 412 0
DWIDTH 8 0
BBX 7 7 2 5
BITMAP
38
66
66
C6
CE
CC
78
ENDCHAR
STARTCHAR guillemotright
ENCODING 187
SWIDTH 560 0
DWIDTH 11 0
BBX 9 8 2 1
BITMAP
2400
2200
3300
3B80
3300
2200
4400
8800
ENDCHAR
STARTCHAR onequarter
ENCODING 188
SWIDTH 940 0
DWIDTH 18 0
BBX 15 15 2 -1
BITMAP
0008
180C
3818
1818
1830
3060
30C6
308E
F916
0336
0244
047E
080C
101E
1000
ENDCHAR
STARTCHAR onehalf
ENCODING 189
SWIDTH 940 0
DWIDTH 18 0
BBX 16 14 2 0
BITMAP
0008
181C
3838
1830
1860
30E0
30CE
31BB
FB33
0207
040C
0C39
087E
10FE
ENDCHAR
STARTCHAR threequarters
ENCODING 190
SWIDTH 940 0
DWIDTH 18 0
BBX 15 14 2 0
BITMAP
0004
1C0C
760C
0618
3830
0C60
CE66
CECE
7996
0316
0224
047E
0C0C
181E
ENDCHAR
STARTCHAR questiondown
ENCODING 191
SWIDTH 454 0
DWIDTH 9 0
BBX 8 14 0 -4
BITMAP
06
0F
07
00
00
1E
07
06
1C
78
F2
E3
E7
3C
ENDCHAR
STARTCHAR Agrave
ENCODING 192
SWIDTH 634 0
DWIDTH 12 0
BBX 14 18 -1 0
BITMAP
0180
03C0
00E0
0010
0060
00E0
00E0
0170
0370
0270
0670
0470
0FF0
0870
1070
3070
2078
F8FC
ENDCHAR
STARTCHAR Aacute
ENCODING 193
SWIDTH 634 0
DWIDTH 12 0
BBX 14 18 -1 0
BITMAP
0018
003C
0070
0080
0060
00E0
00E0
0170
0370
0270
0670
0470
0FF0
0870
1070
3070
2078
F8FC
ENDCHAR
STARTCHAR Acircumflex
ENCODING 194
SWIDTH 634 0
DWIDTH 12 0
BBX 14 18 -1 0
BITMAP
0020
00F0
038C
0000
0060
00E0
00E0
0170
0370
0270
0670
0470
0FF0
0870
1070
3070
2078
F8FC
ENDCHAR
STARTCHAR Atilde
ENCODING 195
SWIDTH 634 0
DWIDTH 12 0
BBX 14 17 0 0
BITMAP
0184
03F8
0230
00E0
00E0
01E0
01E0
03E0
0260
0470
0470
0FF0
1870
1070
3070
2070
F8F8
ENDCHAR
STARTCHAR Adieresis
ENCODING 196
SWIDTH 634 0
DWIDTH 12 0
BBX 13 17 0 0
BITMAP
0738
0738
0738
00E0
00E0
01E0
03E0
02E0
04E0
04E0
08E0
0FF0
1070
1070
2070
6070
F0F8
ENDCHAR
STARTCHAR Aring
ENCODING 197
SWIDTH 634 0
DWIDTH 12 0
BBX 13 17 0 0
BITMAP
00E0
0110
0110
01E0
01E0
01E0
02E0
02E0
04E0
04E0
08E0
0FF0
1070
1070
2070
6070
F0F8
ENDCHAR
STARTCHAR AE
ENCODING 198
SWIDTH 890 0
DWIDTH 17 0
BBX 21 14 -2 0
BITMAP
007FF8
003E18
006E08
004E08
008E20
019C60
03FFC0
023C40
043C40
0C3800
183810
103820
307860
F8FFE0
ENDCHAR
STARTCHAR Ccedilla
ENCODING 199
SWIDTH 672 0
DWIDTH 13 0
BBX 13 19 2 -5
BITMAP
03E0
1E38
3C10
7810
7000
7000
E000
E000
E000
E020
E020
7060
38C0
0F80
0400
0F00
0300
0300
1E00
ENDCHAR
STARTCHAR Egrave
ENCODING 200
SWIDTH 622 0
DWIDTH 12 0
BBX 13 18 1 0
BITMAP
0600
0780
01C0
0020
3FF8
0E18
0E18
0C10
1C20
1C40
1FC0
1C40
3840
3810
3820
3820
7860
FFE0
ENDCHAR
STARTCHAR Eacute
ENCODING 201
SWIDTH 622 0
DWIDTH 12 0
BBX 13 18 1 0
BITMAP
0030
0070
01C0
0200
3FF8
0E18
0E18
0C10
1C20
1C40
1FC0
1C40
3840
3810
3820
3820
7860
FFE0
ENDCHAR
STARTCHAR Ecircumflex
ENCODING 202
SWIDTH 622 0
DWIDTH 12 0
BBX 13 18 1 0
BITMAP
00C0
01E0
0630
0000
3FF8
0E18
0E18
0C10
1C20
1C40
1FC0
1C40
3840
3810
3820
3820
7860
FFE0
ENDCHAR
STARTCHAR Edieresis
ENCODING 203
SWIDTH 622 0
DWIDTH 12 0
BBX 14 17 0 0
BITMAP
0738
0738
0738
1FFC
0608
0E08
0E08
0E20
0E20
0FE0
1C60
1C20
1C00
1C10
3830
3860
FFE0
ENDCHAR
STARTCHAR Igrave
ENCODING 204
SWIDTH 386 0
DWIDTH 8 0
BBX 9 18 1 0
BITMAP
1800
1C00
0700
0080
1F80
0E00
0E00
0E00
0E00
1C00
1C00
1C00
1C00
3800
3800
3800
3800
FC00
ENDCHAR
STARTCHAR Iacute
ENCODING 205
SWIDTH 386 0
DWIDTH 8 0
BBX 10 18 1 0
BITMAP
00C0
03C0
0700
0800
1F80
0E00
0E00
0E00
0E00
1E00
1C00
1C00
1C00
1C00
3800
3800
3800
FC00
ENDCHAR
STARTCHAR Icircumflex
ENCODING 206
SWIDTH 386 0
DWIDTH 8 0
BBX 10 18 1 0
BITMAP
0300
0F80
38C0
0000
1F80
0E00
0E00
0E00
0E00
1C00
1C00
1C00
1C00
1C00
3800
3800
3800
FC00
ENDCHAR
STARTCHAR Idieresis
ENCODING 207
SWIDTH 386 0
DWIDTH 8 0
BBX 10 17 1 0
BITMAP
39C0
39C0
39C0
3F80
0E00
0E00
1E00
1C00
1C00
1C00
1C00
3800
3800
3800
3800
7000
FC00
ENDCHAR
STARTCHAR Eth
ENCODING 208
SWIDTH 780 0
DWIDTH 15 0
BBX 15 14 1 0
BITMAP
1FF0
0E18
0E0C
0E0E
1C0E
1C0E
7F8E
1C0E
181C
381C
383C
3878
38F0
FF80
ENDCHAR
STARTCHAR Ntilde
ENCODING 209
SWIDTH 741 0
DWIDTH 14 0
BBX 16 17 1 0
BITMAP
0184
03F8
0230
1E1F
0F04
0F04
0F04
0B8C
1388
11C8
11C8
11C8
30F0
20F0
2070
2070
F870
ENDCHAR
STARTCHAR Ograve
ENCODING 210
SWIDTH 761 0
DWIDTH 15 0
BBX 14 18 2 0
BITMAP
0800
0E00
0780
0040
07E0
1E30
3C18
781C
701C
701C
F01C
E03C
E038
E038
E078
60F0
31E0
1F80
ENDCHAR
STARTCHAR Oacute
ENCODING 211
SWIDTH 761 0
DWIDTH 15 0
BBX 14 18 2 0
BITMAP
0010
0070
01E0
0300
07E0
1E30
3C18
781C
701C
701C
F01C
E03C
E038
E038
E078
60F0
31E0
1F80
ENDCHAR
STARTCHAR Ocircumflex
ENCODING 212
SWIDTH 761 0
DWIDTH 15 0
BBX 14 18 2 0
BITMAP
00C0
01E0
0730
0808
07E0
1E30
3C18
781C
701C
701C
F01C
E03C
E038
E038
E078
60F0
31E0
1F80
ENDCHAR
STARTCHAR Otilde
ENCODING 213
SWIDTH 761 0
DWIDTH 15 0
BBX 14 17 2 0
BITMAP
0308
07F8
0830
07E0
1E30
3C18
781C
701C
701C
F01C
E03C
E038
E038
E078
60F0
31E0
1F80
ENDCHAR
STARTCHAR Odieresis
ENCODING 214
SWIDTH 761 0
DWIDTH 15 0
BBX 14 17 2 0
BITMAP
0770
0770
0770
07E0
1E30
3C18
781C
701C
701C
F01C
E03C
E038
E038
E078
60F0
31E0
1F80
ENDCHAR
STARTCHAR multiply
ENCODING 215
SWIDTH 600 0
DWIDTH 12 0
BBX 9 9 3 0
BITMAP
4100
E380
7700
3E00
1C00
3E00
7700
E380
4100
ENDCHAR
STARTCHAR Oslash
ENCODING 216
SWIDTH 761 0
DWIDTH 15 0
BBX 14 15 2 -1
BITMAP
07C8
1E30
3C38
787C
70DC
709C
F11C
E23C
E438
E838
F878
70F0
31E0
5F80
4000
ENDCHAR
STARTCHAR Ugrave
ENCODING 217
SWIDTH 776 0
DWIDTH 15 0
BBX 15 18 3 0
BITMAP
1800
1E00
0700
0080
FEFE
3838
3838
7070
7070
7070
7070
60E0
E0E0
E0E0
E0E0
E1C0
7380
3F00
ENDCHAR
STARTCHAR Uacute
ENCODING 218
SWIDTH 776 0
DWIDTH 15 0
BBX 15 18 3 0
BITMAP
0018
0078
00E0
0100
FEFE
3838
3838
7070
7070
7070
7070
60E0
E0E0
E0E0
E0E0
E1C0
7380
3F00
ENDCHAR
STARTCHAR Ucircumflex
ENCODING 219
SWIDTH 776 0
DWIDTH 15 0
BBX 15 18 3 0
BITMAP
0180
03C0
0C60
0000
FEFE
3838
3838
7070
7070
7070
7070
60E0
E0E0
E0E0
E0E0
E1C0
7380
3F00
ENDCHAR
STARTCHAR Udieresis
ENCODING 220
SWIDTH 776 0
DWIDTH 15 0
BBX 15 17 3 0
BITMAP
0E70
0E70
0E70
FE7E
3838
3838
7838
7030
7070
7070
7070
E060
E0E0
E0E0
E1C0
71C0
3F00
ENDCHAR
STARTCHAR Yacute
ENCODING 221
SWIDTH 622 0
DWIDTH 12 0
BBX 13 18 3 0
BITMAP
0030
00F0
01C0
0200
FCF8
7060
3840
38C0
3980
3900
1E00
1E00
1C00
1C00
1C00
3C00
3800
FE00
ENDCHAR
STARTCHAR Thorn
ENCODING 222
SWIDTH 629 0
DWIDTH 12 0
BBX 13 14 0 0
BITMAP
1F80
0700
0E00
0FE0
0E70
0E38
0E38
1C38
1C78
1C70
1FC0
3C00
3800
FE00
ENDCHAR
STARTCHAR germandbls
ENCODING 223
SWIDTH 628 0
DWIDTH 12 0
BBX 15 18 -1 -4
BITMAP
007C
01C6
0386
038E
1F1C
0730
0770
0670
0E70
0E38
0E38
0C18
0D90
1CE0
1C00
9800
D800
F000
ENDCHAR
STARTCHAR agrave
ENCODING 224
SWIDTH 596 0
DWIDTH 12 0
BBX 11 15 1 0
BITMAP
0800
1C00
0E00
0300
0080
07E0
1CC0
39C0
71C0
71C0
E380
E5A0
EBA0
FBC0
6180
ENDCHAR
STARTCHAR aacute
ENCODING 225
SWIDTH 596 0
DWIDTH 12 0
BBX 11 15 1 0
BITMAP
0040
00E0
01C0
0300
0400
07E0
1CC0
39C0
71C0
71C0
E380
E5A0
EBA0
FBC0
6180
ENDCHAR
STARTCHAR acircumflex
ENCODING 226
SWIDTH 596 0
DWIDTH 12 0
BBX 11 14 1 0
BITMAP
0100
0380
04C0
1860
07E0
1CC0
39C0
71C0
71C0
E380
E5A0
EBA0
FBC0
6180
ENDCHAR
STARTCHAR atilde
ENCODING 227
SWIDTH 596 0
DWIDTH 12 0
BBX 11 14 1 0
BITMAP
0620
0FE0
10C0
0000
07E0
1CC0
39C0
71C0
71C0
E380
E5A0
EBA0
FBC0
6180
ENDCHAR
STARTCHAR adieresis
ENCODING 228
SWIDTH 596 0
DWIDTH 12 0
BBX 11 14 1 0
BITMAP
0EE0
0EE0
0EE0
0000
07E0
1CC0
39C0
71C0
71C0
E380
E5A0
EBA0
FBC0
6180
ENDCHAR
STARTCHAR aring
ENCODING 229
SWIDTH 596 0
DWIDTH 12 0
BBX 11 15 1 0
BITMAP
0380
0440
0440
0440
0380
0760
1CC0
39C0
71C0
71C0
E380
E5A0
EBA0
FBC0
6180
ENDCHAR
STARTCHAR ae
ENCODING 230
SWIDTH 789 0
DWIDTH 15 0
BBX 16 10 1 0
BITMAP
07DC
1CE7
38E7
30C7
71CE
61F8
E3C0
E5C2
F9CC
7070
ENDCHAR
STARTCHAR ccedilla
ENCODING 231
SWIDTH 456 0
DWIDTH 9 0
BBX 10 15 1 -5
BITMAP
0780
19C0
31C0
7000
E000
E000
E100
E200
E600
3800
3000
3800
1800
1800
7000
ENDCHAR
STARTCHAR egrave
ENCODING 232
SWIDTH 476 0
DWIDTH 9 0
BBX 10 15 1 0
BITMAP
1000
3800
1C00
0700
0100
0F00
19C0
31C0
73C0
E780
FE00
E000
E180
E300
3C00
ENDCHAR
STARTCHAR eacute
ENCODING 233
SWIDTH 476 0
DWIDTH 9 0
BBX 11 15 1 0
BITMAP
0040
00E0
01C0
0700
0400
0F00
19C0
31C0
73C0
E780
FE00
E000
E180
E300
3C00
ENDCHAR
STARTCHAR ecircumflex
ENCODING 234
SWIDTH 476 0
DWIDTH 9 0
BBX 10 14 1 0
BITMAP
0300
0780
18C0
2040
0F00
19C0
31C0
73C0
E780
FE00
E000
E180
E300
3C00
ENDCHAR
STARTCHAR edieresis
ENCODING 235
SWIDTH 476 0
DWIDTH 9 0
BBX 10 14 1 0
BITMAP
1DC0
1DC0
1DC0
0000
0F00
19C0
31C0
73C0
E780
FE00
E000
E180
E300
3C00
ENDCHAR
STARTCHAR igrave
ENCODING 236
SWIDTH 339 0
DWIDTH 7 0
BBX 5 15 2 0
BITMAP
40
E0
70
18
08
18
F8
30
70
70
70
68
E8
F0
60
ENDCHAR
STARTCHAR iacute
ENCODING 237
SWIDTH 339 0
DWIDTH 7 0
BBX 7 15 2 0
BITMAP
04
0E
1C
30
60
18
F8
30
70
70
70
68
E8
F0
60
ENDCHAR
STARTCHAR icircumflex
ENCODING 238
SWIDTH 339 0
DWIDTH 7 0
BBX 7 14 2 0
BITMAP
18
38
44
82
18
F8
30
70
70
70
68
E8
F0
60
ENDCHAR
STARTCHAR idieresis
ENCODING 239
SWIDTH 339 0
DWIDTH 7 0
BBX 7 14 2 0
BITMAP
EE
EE
EE
00
18
F0
30
70
70
60
68
E8
F0
60
ENDCHAR
STARTCHAR eth
ENCODING 240
SWIDTH 562 0
DWIDTH 11 0
BBX 11 14 1 0
BITMAP
1800
06E0
0F00
1180
0FC0
38C0
78E0
70E0
F0E0
E1E0
E1C0
E3C0
6380
3E00
ENDCHAR
STARTCHAR ntilde
ENCODING 241
SWIDTH 635 0
DWIDTH 12 0
BBX 13 14 1 0
BITMAP
0E20
0FC0
10C0
0000
18C0
79E0
3AE0
34E0
38C0
70C0
71C8
71D0
61E0
E0C0
ENDCHAR
STARTCHAR ograve
ENCODING 242
SWIDTH 562 0
DWIDTH 11 0
BBX 11 15 1 0
BITMAP
1000
1C00
0E00
0300
0080
0F80
38C0
78E0
70E0
F0E0
E1E0
E1C0
E3C0
6380
3E00
ENDCHAR
STARTCHAR oacute
ENCODING 243
SWIDTH 562 0
DWIDTH 11 0
BBX 11 15 1 0
BITMAP
0040
00E0
01C0
0300
0400
0F80
38C0
78E0
70E0
F0E0
E1E0
E1C0
E3C0
6380
3E00
ENDCHAR
STARTCHAR ocircumflex
ENCODING 244
SWIDTH 562 0
DWIDTH 11 0
BBX 11 14 1 0
BITMAP
0300
0780
1CC0
2060
0F80
38C0
78E0
70E0
F0E0
E1E0
E1C0
E3C0
6380
3E00
ENDCHAR
STARTCHAR otilde
ENCODING 245
SWIDTH 562 0
DWIDTH 11 0
BBX 11 14 1 0
BITMAP
0620
0FE0
10C0
0000
0F80
38C0
78E0
70E0
F0E0
E1E0
E1C0
E3C0
6380
3E00
ENDCHAR
STARTCHAR odieresis
ENCODING 246
SWIDTH 562 0
DWIDTH 11 0
BBX 11 14 1 0
BITMAP
1CE0
1CE0
1CE0
0000
0F80
38C0
78E0
70E0
F0E0
E1E0
E1C0
E3C0
6380
3E00
ENDCHAR
STARTCHAR divide
ENCODING 247
SWIDTH 600 0
DWIDTH 12 0
BBX 9 10 2 0
BITMAP
0800
1C00
0800
0000
FF80
FF80
0000
0800
1C00
0800
ENDCHAR
STARTCHAR oslash
ENCODING 248
SWIDTH 562 0
DWIDTH 11 0
BBX 11 12 1 -1
BITMAP
0040
0F40
38C0
71C0
72E0
E4E0
E5E0
E9C0
F3C0
7380
3E00
4000
ENDCHAR
STARTCHAR ugrave
ENCODING 249
SWIDTH 634 0
DWIDTH 12 0
BBX 11 15 2 0
BITMAP
1000
3800
1C00
0600
0300
1860
F8C0
31C0
71C0
71C0
7380
E5A0
EBA0
FBC0
6180
ENDCHAR
STARTCHAR uacute
ENCODING 250
SWIDTH 634 0
DWIDTH 12 0
BBX 11 15 2 0
BITMAP
0020
00E0
01C0
0380
0200
1860
F8C0
31C0
71C0
71C0
7380
E5A0
EBA0
FBC0
6180
ENDCHAR
STARTCHAR ucircumflex
ENCODING 251
SWIDTH 634 0
DWIDTH 12 0
BBX 11 14 2 0
BITMAP
0300
0700
1880
2040
1860
F8C0
31C0
71C0
71C0
7380
E5A0
EBA0
FBC0
6180
ENDCHAR
STARTCHAR udieresis
ENCODING 252
SWIDTH 634 0
DWIDTH 12 0
BBX 11 14 2 0
BITMAP
1CE0
1CE0
1CE0
0000
1860
F8C0
31C0
71C0
71C0
7380
E5A0
EBA0
FBC0
6180
ENDCHAR
STARTCHAR yacute
ENCODING 253
SWIDTH 489 0
DWIDTH 10 0
BBX 11 19 0 -4
BITMAP
0020
0060
00C0
0380
0200
0820
7860
1C60
1C40
1CC0
0C80
0D80
0D00
0E00
0E00
0C00
4800
C800
F000
ENDCHAR
STARTCHAR thorn
ENCODING 254
SWIDTH 600 0
DWIDTH 12 0
BBX 12 18 0 -4
BITMAP
0600
3E00
0C00
1C00
1C60
1DF0
1A70
1A70
3C70
38E0
38E0
38C0
7180
7F00
7000
6000
E000
E000
ENDCHAR
STARTCHAR ydieresis
ENCODING 255
SWIDTH 489 0
DWIDTH 10 0
BBX 11 18 0 -4
BITMAP
1CE0
1CE0
1CE0
0000
0820
7860
1C60
1C40
1CC0
0C80
0D80
0D00
0E00
0E00
0C00
4800
C800
F000
ENDCHAR
STARTCHAR Amacron
ENCODING 256
SWIDTH 634 0
DWIDTH 12 0
BBX 14 16 -1 0
BITMAP
03F0
0000
0060
00E0
00E0
0170
0370
0270
0670
0470
0FF0
0870
1070
3070
2078
F8FC
ENDCHAR
STARTCHAR amacron
ENCODING 257
SWIDTH 596 0
DWIDTH 12 0
BBX 11 12 1 0
BITMAP
1F80
0000
07E0
1CC0
39C0
71C0
71C0
E380
E5A0
EBA0
FBC0
6180
ENDCHAR
STARTCHAR Abreve
ENCODING 258
SWIDTH 634 0
DWIDTH 12 0
BBX 14 18 -1 0
BITMAP
0210
03F0
01C0
0000
0060
00E0
00E0
0170
0370
0270
0670
0470
0FF0
0870
1070
3070
2078
F8FC
ENDCHAR
STARTCHAR abreve
ENCODING 259
SWIDTH 596 0
DWIDTH 12 0
BBX 11 14 1 0
BITMAP
0840
0FC0
0700
0000
07E0
1CC0
39C0
71C0
71C0
E380
E5A0
EBA0
FBC0
6180
ENDCHAR
STARTCHAR Aogonek
ENCODING 260
SWIDTH 634 0
DWIDTH 12 0
BBX 14 19 -1 -5
BITMAP
0060
00E0
00E0
0170
0370
0270
0670
0470
0FF0
0870
1070
3070
2078
F8FC
0180
0300
0600
0600
0380
ENDCHAR
STARTCHAR aogonek
ENCODING 261
SWIDTH 596 0
DWIDTH 12 0
BBX 11 15 1 -5
BITMAP
07E0
1CC0
39C0
71C0
71C0
E380
E5A0
EBA0
FBC0
6180
0600
0C00
1800
1800
0E00
ENDCHAR
STARTCHAR Cacute
ENCODING 262
SWIDTH 672 0
DWIDTH 13 0
BBX 13 19 2 0
BITMAP
00C0
01C0
0300
0400
0000
07E0
1C38
3810
7010
7000
7000
E000
E000
E000
E020
E020
6060
30C0
0F80
ENDCHAR
STARTCHAR cacute
ENCODING 263
SWIDTH 456 0
DWIDTH 9 0
BBX 10 15 1 0
BITMAP
0180
0380
0600
0800
0000
0780
19C0
31C0
7000
E000
E000
E080
E100
E200
3C00
ENDCHAR
STARTCHAR Ccircumflex
ENCODING 264
SWIDTH 672 0
DWIDTH 13 0
BBX 13 19 2 0
BITMAP
0300
0780
0C80
1040
0000
07E0
1C38
3810
7010
7000
7000
E000
E000
E000
E020
E020
6060
30C0
0F80
ENDCHAR
STARTCHAR ccircumflex
ENCODING 265
SWIDTH 456 0
DWIDTH 9 0
BBX 10 15 1 0
BITMAP
0300
0780
0C80
1040
0000
0780
19C0
31C0
7000
E000
E000
E080
E100
E200
3C00
ENDCHAR
STARTCHAR Cdotaccent
ENCODING 266
SWIDTH 672 0
DWIDTH 13 0
BBX 13 18 2 0
BITMAP
0700
0700
0700
0000
07E0
1C38
3810
7010
7000
7000
E000
E000
E000
E020
E020
6060
30C0
0F80
ENDCHAR
STARTCHAR cdotaccent
ENCODING 267
SWIDTH 456 0
DWIDTH 9 0
BBX 10 14 1 0
BITMAP
0700
0700
0700
0000
0780
19C0
31C0
7000
E000
E000
E080
E100
E200
3C00
ENDCHAR
STARTCHAR Ccaron
ENCODING 268
SWIDTH 672 0
DWIDTH 13 0
BBX 13 19 2 0
BITMAP
0820
04C0
0780
0300
0000
07E0
1C38
3810
7010
7000
7000
E000
E000
E000
E020
E020
6060
30C0
0F80
ENDCHAR
STARTCHAR ccaron
ENCODING 269
SWIDTH 456 0
DWIDTH 9 0
BBX 10 15 1 0
BITMAP
1040
0980
0F00
0600
0000
0780
19C0
31C0
7000
E000
E000
E080
E100
E200
3C00
ENDCHAR
STARTCHAR Dcaron
ENCODING 270
SWIDTH 774 0
DWIDTH 15 0
BBX 15 19 1 0
BITMAP
0410
0260
03C0
0180
0000
1FF0
0E18
0E0C
0E0E
1C0E
1C0E
1C0E
1C0E
1C1C
381C
383C
3878
38F0
FF80
ENDCHAR
STARTCHAR dcaron
ENCODING 271
SWIDTH 825 0
DWIDTH 16 0
BBX 16 14 1 0
BITMAP
001F
00FF
0077
0076
07F4
1C68
38E0
70E0
71E0
E1C0
E2D0
E5D0
F9E0
70C0
ENDCHAR
STARTCHAR Dcroat
ENCODING 272
SWIDTH 780 0
DWIDTH 15 0
BBX 15 14 1 0
BITMAP
1FF0
0E18
0E0C
0E0E
1C0E
1C0E
7F8E
1C0E
181C
381C
383C
3878
38F0
FF80
ENDCHAR
STARTCHAR dcroat
ENCODING 273
SWIDTH 609 0
DWIDTH 12 0
BBX 14 14 1 0
BITMAP
0018
00F8
07FC
0070
07F0
1C60
38E0
70E0
71E0
E1C0
E2D0
E5D0
F9E0
70C0
ENDCHAR
STARTCHAR Emacron
ENCODING 274
SWIDTH 622 0
DWIDTH 12 0
BBX 13 16 1 0
BITMAP
0FC0
0000
3FF8
0E18
0E18
0C10
1C20
1C40
1FC0
1C40
3840
3810
3820
3820
7860
FFE0
ENDCHAR
STARTCHAR emacron
ENCODING 275
SWIDTH 476 0
DWIDTH 9 0
BBX 10 12 1 0
BITMAP
1F80
0000
0F00
19C0
31C0
73C0
E780
FE00
E000
E180
E300
3C00
ENDCHAR
STARTCHAR Ebreve
ENCODING 276
SWIDTH 622 0
DWIDTH 12 0
BBX 13 18 1 0
BITMAP
0420
07E0
0380
0000
3FF8
0E18
0E18
0C10
1C20
1C40
1FC0
1C40
3840
3810
3820
3820
7860
FFE0
ENDCHAR
STARTCHAR ebreve
ENCODING 277
SWIDTH 476 0
DWIDTH 9 0
BBX 10 14 1 0
BITMAP
1080
1F80
0E00
0000
0F00
19C0
31C0
73C0
E780
FE00
E000
E180
E300
3C00
ENDCHAR
STARTCHAR Edotaccent
ENCODING 278
SWIDTH 622 0
DWIDTH 12 0
BBX 13 18 1 0
BITMAP
0380
0380
0380
0000
3FF8
0E18
0E18
0C10
1C20
1C40
1FC0
1C40
3840
3810
3820
3820
7860
FFE0
ENDCHAR
STARTCHAR edotaccent
ENCODING 279
SWIDTH 476 0
DWIDTH 9 0
BBX 10 14 1 0
BITMAP
0E00
0E00
0E00
0000
0F00
19C0
31C0
73C0
E780
FE00
E000
E180
E300
3C00
ENDCHAR
STARTCHAR Eogonek
ENCODING 280
SWIDTH 622 0
DWIDTH 12 0
BBX 13 19 1 -5
BITMAP
3FF8
0E18
0E18
0C10
1C20
1C40
1FC0
1C40
3840
3810
3820
3820
7860
FFE0
0600
0C00
1800
1800
0E00
ENDCHAR
STARTCHAR eogonek
ENCODING 281
SWIDTH 476 0
DWIDTH 9 0
BBX 10 15 1 -5
BITMAP
0F00
19C0
31C0
73C0
E780
FE00
E000
E180
E300
3C00
0C00
1800
3000
3000
1C00
ENDCHAR
STARTCHAR Ecaron
ENCODING 282
SWIDTH 622 0
DWIDTH 12 0
BBX 13 19 1 0
BITMAP
0820
04C0
0780
0300
0000
3FF8
0E18
0E18
0C10
1C20
1C40
1FC0
1C40
3840
3810
3820
3820
7860
FFE0
ENDCHAR
STARTCHAR ecaron
ENCODING 283
SWIDTH 476 0
DWIDTH 9 0
BBX 10 15 1 0
BITMAP
1040
0980
0F00
0600
0000
0F00
19C0
31C0
73C0
E780
FE00
E000
E180
E300
3C00
ENDCHAR
STARTCHAR Gcircumflex
ENCODING 284
SWIDTH 726 0
DWIDTH 14 0
BBX 13 19 2 0
BITMAP
0300
0780
0C80
1040
0000
07E0
1C38
3830
7010
7010
7000
E000
E000
E1F8
E0E0
E0E0
60E0
71E0
1F80
ENDCHAR
STARTCHAR gcircumflex
ENCODING 285
SWIDTH 522 0
DWIDTH 10 0
BBX 12 19 0 -4
BITMAP
0300
0780
0C80
1040
0000
0FB0
1CF0
38E0
38E0
18E0
19C0
0F80
3800
1F00
1F80
63C0
E1C0
E180
1E00
ENDCHAR
STARTCHAR Gbreve
ENCODING 286
SWIDTH 726 0
DWIDTH 14 0
BBX 13 18 2 0
BITMAP
0840
0FC0
0700
0000
07E0
1C38
3830
7010
7010
7000
E000
E000
E1F8
E0E0
E0E0
60E0
71E0
1F80
ENDCHAR
STARTCHAR gbreve
ENCODING 287
SWIDTH 522 0
DWIDTH 10 0
BBX 12 18 0 -4
BITMAP
0840
0FC0
0700
0000
0FB0
1CF0
38E0
38E0
18E0
19C0
0F80
3800
1F00
1F80
63C0
E1C0
E180
1E00
ENDCHAR
STARTCHAR Gdotaccent
ENCODING 288
SWIDTH 726 0
DWIDTH 14 0
BBX 13 18 2 0
BITMAP
0700
0700
0700
0000
07E0
1C38
3830
7010
7010
7000
E000
E000
E1F8
E0E0
E0E0
60E0
71E0
1F80
ENDCHAR
STARTCHAR gdotaccent
ENCODING 289
SWIDTH 522 0
DWIDTH 10 0
BBX 12 18 0 -4
BITMAP
0700
0700
0700
0000
0FB0
1CF0
38E0
38E0
18E0
19C0
0F80
3800
1F00
1F80
63C0
E1C0
E180
1E00
ENDCHAR
STARTCHAR Gcommaaccent
ENCODING 290
SWIDTH 726 0
DWIDTH 14 0
BBX 13 22 2 -8
BITMAP
07E0
1C38
3830
7010
7010
7000
E000
E000
E1F8
E0E0
E0E0
60E0
71E0
1F80
0000
0200
0700
0700
0700
0600
0400
0800
ENDCHAR
STARTCHAR gcommaaccent
ENCODING 291
SWIDTH 522 0
DWIDTH 10 0
BBX 12 21 0 -4
BITMAP
0080
0100
0300
0700
0700
0700
0000
0FB0
1CF0
38E0
38E0
18E0
19C0
0F80
3800
1F00
1F80
63C0
E1C0
E180
1E00
ENDCHAR
STARTCHAR Hcircumflex
ENCODING 292
SWIDTH 800 0
DWIDTH 16 0
BBX 17 19 1 0
BITMAP
006000
00F000
019000
020800
000000
1F9F80
0E0E00
0E0E00
0E0E00
0E0E00
1C1C00
1FFC00
1C1C00
1C1C00
383800
383800
383800
383800
FCFC00
ENDCHAR
STARTCHAR hcircumflex
ENCODING 293
SWIDTH 629 0
DWIDTH 12 0
BBX 13 19 1 0
BITMAP
0600
0F00
1900
2080
0000
0C00
3C00
1C00
1C00
18C0
3BE0
3AE0
34E0
38C0
70C0
71C8
71D0
61E0
E0C0
ENDCHAR
STARTCHAR Hbar
ENCODING 294
SWIDTH 800 0
DWIDTH 16 0
BBX 17 14 1 0
BITMAP
1F9F80
0E0E00
0E0E00
FFFF80
0E0E00
1C1C00
1FFC00
1C1C00
1C1C00
383800
383800
383800
383800
FCFC00
ENDCHAR
STARTCHAR hbar
ENCODING 295
SWIDTH 629 0
DWIDTH 12 0
BBX 14 14 0 0
BITMAP
0600
1E00
FF80
0E00
0C60
1DF0
1D70
1A70
1C60
3860
38E4
38E8
30F0
7060
ENDCHAR
STARTCHAR Itilde
ENCODING 296
SWIDTH 386 0
DWIDTH 8 0
BBX 10 18 1 0
BITMAP
1C40
1F80
2100
0000
1F80
0E00
0E00
0E00
0E00
1C00
1C00
1C00
1C00
3800
3800
3800
3800
FC00
ENDCHAR
STARTCHAR itilde
ENCODING 297
SWIDTH 339 0
DWIDTH 7 0
BBX 8 14 1 0
BITMAP
71
7E
84
00
0C
7C
18
38
38
38
34
74
78
30
ENDCHAR
STARTCHAR Imacron
ENCODING 298
SWIDTH 386 0
DWIDTH 8 0
BBX 9 16 1 0
BITMAP
3F00
0000
1F80
0E00
0E00
0E00
0E00
1C00
1C00
1C00
1C00
3800
3800
3800
3800
FC00
ENDCHAR
STARTCHAR imacron
ENCODING 299
SWIDTH 339 0
DWIDTH 7 0
BBX 6 12 2 0
BITMAP
FC
00
18
F8
30
70
70
70
68
E8
F0
60
ENDCHAR
STARTCHAR Ibreve
ENCODING 300
SWIDTH 386 0
DWIDTH 8 0
BBX 9 18 1 0
BITMAP
1080
1F80
0E00
0000
1F80
0E00
0E00
0E00
0E00
1C00
1C00
1C00
1C00
3800
3800
3800
3800
FC00
ENDCHAR
STARTCHAR ibreve
ENCODING 301
SWIDTH 339 0
DWIDTH 7 0
BBX 6 14 2 0
BITMAP
84
FC
70
00
18
F8
30
70
70
70
68
E8
F0
60
ENDCHAR
STARTCHAR Iogonek
ENCODING 302
SWIDTH 386 0
DWIDTH 8 0
BBX 9 19 1 -5
BITMAP
1F80
0E00
0E00
0E00
0E00
1C00
1C00
1C00
1C00
3800
3800
3800
3800
FC00
1800
3000
6000
6000
3800
ENDCHAR
STARTCHAR iogonek
ENCODING 303
SWIDTH 339 0
DWIDTH 7 0
BBX 6 19 2 -5
BITMAP
18
1C
18
00
18
F8
30
70
70
70
68
E8
F0
60
30
60
C0
C0
70
ENDCHAR
STARTCHAR Idotaccent
ENCODING 304
SWIDTH 386 0
DWIDTH 8 0
BBX 9 18 1 0
BITMAP
0E00
0E00
0E00
0000
1F80
0E00
0E00
0E00
0E00
1C00
1C00
1C00
1C00
3800
3800
3800
3800
FC00
ENDCHAR
STARTCHAR dotlessi
ENCODING 305
SWIDTH 339 0
DWIDTH 7 0
BBX 5 10 2 0
BITMAP
18
F8
30
70
70
70
68
E8
F0
60
ENDCHAR
STARTCHAR IJ
ENCODING 306
SWIDTH 755 0
DWIDTH 16 0
BBX 17 16 1 -2
BITMAP
1F9F80
0E0E00
0E0E00
0E0E00
0E0E00
1C1C00
1C1C00
1C1C00
1C1C00
381800
383800
383800
383800
FC7000
00F000
01C000
ENDCHAR
STARTCHAR ij
ENCODING 307
SWIDTH 655 0
DWIDTH 13 0
BBX 13 19 2 -4
BITMAP
0018
1838
1C38
1800
0000
1830
F8F0
3070
7070
7060
7060
68E0
E8E0
F0E0
60C0
00C0
01C0
0D80
0F00
ENDCHAR
STARTCHAR Jcircumflex
ENCODING 308
SWIDTH 388 0
DWIDTH 8 0
BBX 10 21 0 -2
BITMAP
0300
0780
0C80
1040
0000
0FC0
0700
0700
0700
0700
0E00
0E00
0E00
0E00
0C00
1C00
1C00
1C00
3800
7800
E000
ENDCHAR
STARTCHAR jcircumflex
ENCODING 309
SWIDTH 333 0
DWIDTH 6 0
BBX 9 19 -1 -4
BITMAP
0600
0F00
1900
2080
0000
0300
0F00
0700
0700
0600
0600
0E00
0E00
0E00
0C00
0C00
1C00
D800
F000
ENDCHAR
STARTCHAR Kcommaaccent
ENCODING 310
SWIDTH 688 0
DWIDTH 13 0
BBX 16 22 1 -8
BITMAP
3FBF
0E18
0E30
0E60
1CC0
1D80
1F80
1F80
3D80
39C0
39E0
38E0
78F0
FC38
0000
0100
0380
0380
0380
0300
0200
0400
ENDCHAR
STARTCHAR kcommaaccent
ENCODING 311
SWIDTH 570 0
DWIDTH 11 0
BBX 11 22 1 -8
BITMAP
0C00
7C00
1C00
1800
3860
38E0
3920
3200
7600
7600
7600
6760
E3C0
E180
0000
0400
0E00
0E00
0E00
0C00
0800
1000
ENDCHAR
STARTCHAR kgreenlandic
ENCODING 312
SWIDTH 570 0
DWIDTH 11 0
BBX 11 10 1 0
BITMAP
3860
38E0
3920
3200
7600
7600
7600
6760
E3C0
E180
ENDCHAR
STARTCHAR Lacute
ENCODING 313
SWIDTH 586 0
DWIDTH 11 0
BBX 11 19 1 0
BITMAP
0180
0380
0600
0800
0000
1F80
0E00
0E00
0E00
1C00
1C00
1C00
1C00
3800
3800
3820
3860
78C0
FFC0
ENDCHAR
STARTCHAR lacute
ENCODING 314
SWIDTH 327 0
DWIDTH 6 0
BBX 7 19 2 0
BITMAP
06
0E
18
20
00
0C
7C
18
38
38
38
30
70
70
60
E8
E8
F0
60
ENDCHAR
STARTCHAR Lcommaaccent
ENCODING 315
SWIDTH 586 0
DWIDTH 11 0
BBX 11 22 1 -8
BITMAP
1F80
0E00
0E00
0E00
1C00
1C00
1C00
1C00
3800
3800
3820
3860
78C0
FFC0
0000
0400
0E00
0E00
0E00
0C00
0800
1000
ENDCHAR
STARTCHAR lcommaaccent
ENCODING 316
SWIDTH 327 0
DWIDTH 6 0
BBX 6 22 2 -8
BITMAP
0C
7C
18
38
38
38
30
70
70
60
E8
E8
F0
60
00
20
70
70
70
60
40
80
ENDCHAR
STARTCHAR Lcaron
ENCODING 317
SWIDTH 803 0
DWIDTH 15 0
BBX 15 14 1 0
BITMAP
1F8E
0E0E
0E0E
0E0C
1C08
1C10
1C00
1C00
3800
3800
3820
3860
78C0
FFC0
ENDCHAR
STARTCHAR lcaron
ENCODING 318
SWIDTH 557 0
DWIDTH 11 0
BBX 10 14 2 0
BITMAP
0DC0
7DC0
19C0
3980
3900
3A00
3000
7000
7000
6000
E800
E800
F000
6000
ENDCHAR
STARTCHAR Ldot
ENCODING 319
SWIDTH 837 0
DWIDTH 15 0
BBX 14 14 1 0
BITMAP
1F80
0E00
0E00
0E00
1C00
1C00
1C00
1C00
380C
381C
3838
3860
78C0
FFC0
ENDCHAR
STARTCHAR ldot
ENCODING 320
SWIDTH 591 0
DWIDTH 11 0
BBX 9 14 2 0
BITMAP
0C00
7C00
1800
3800
3800
3800
3000
7000
7180
6380
EB00
E800
F000
6000
ENDCHAR
STARTCHAR Lslash
ENCODING 321
SWIDTH 592 0
DWIDTH 12 0
BBX 11 14 1 0
BITMAP
1F80
0E00
0E00
0E00
1C80
1F00
1E00
1C00
3C00
7800
3820
3860
3860
FFC0
ENDCHAR
STARTCHAR lslash
ENCODING 322
SWIDTH 339 0
DWIDTH 7 0
BBX 8 14 1 0
BITMAP
06
3E
0C
1C
1C
1F
1C
38
78
B0
74
74
78
30
ENDCHAR
STARTCHAR Nacute
ENCODING 323
SWIDTH 741 0
DWIDTH 14 0
BBX 16 19 1 0
BITMAP
0060
00E0
0180
0200
0000
1E1F
0F04
0F04
0F04
0B8C
1388
11C8
11C8
11C8
30F0
20F0
2070
2070
F870
ENDCHAR
STARTCHAR nacute
ENCODING 324
SWIDTH 635 0
DWIDTH 12 0
BBX 13 15 1 0
BITMAP
00C0
01C0
0300
0400
0000
18C0
79E0
3AE0
34E0
38C0
70C0
71C8
71D0
61E0
E0C0
ENDCHAR
STARTCHAR Ncommaaccent
ENCODING 325
SWIDTH 741 0
DWIDTH 14 0
BBX 16 22 1 -8
BITMAP
1E1F
0F04
0F04
0F04
0B8C
1388
11C8
11C8
11C8
30F0
20F0
2070
2070
F870
0000
0100
0380
0380
0380
0300
0200
0400
ENDCHAR
STARTCHAR ncommaaccent
ENCODING 326
SWIDTH 635 0
DWIDTH 12 0
BBX 13 18 1 -8
BITMAP
18C0
79E0
3AE0
34E0
38C0
70C0
71C8
71D0
61E0
E0C0
0000
0200
0700
0700
0700
0600
0400
0800
ENDCHAR
STARTCHAR Ncaron
ENCODING 327
SWIDTH 741 0
DWIDTH 14 0
BBX 16 19 1 0
BITMAP
0410
0260
03C0
0180
0000
1E1F
0F04
0F04
0F04
0B8C
1388
11C8
11C8
11C8
30F0
20F0
2070
2070
F870
ENDCHAR
STARTCHAR ncaron
ENCODING 328
SWIDTH 635 0
DWIDTH 12 0
BBX 13 15 1 0
BITMAP
1040
0980
0F00
0600
0000
18C0
79E0
3AE0
34E0
38C0
70C0
71C8
71D0
61E0
E0C0
ENDCHAR
STARTCHAR napostrophe
ENCODING 329
SWIDTH 869 0
DWIDTH 17 0
BBX 17 14 2 0
BITMAP
700000
700000
700000
600000
418C00
879E00
03AE00
034E00
038C00
070C00
071C80
071D00
061E00
0E0C00
ENDCHAR
STARTCHAR Eng
ENCODING 330
SWIDTH 741 0
DWIDTH 14 0
BBX 16 18 1 -4
BITMAP
1E1F
0F04
0F04
0F04
0B8C
1388
11C8
11C8
11C8
30F0
20F0
2070
2070
F870
0060
00E0
06C0
0780
ENDCHAR
STARTCHAR eng
ENCODING 331
SWIDTH 635 0
DWIDTH 12 0
BBX 13 14 1 -4
BITMAP
18C0
79E0
3AE0
34E0
38C0
70C0
71F8
7038
6038
E030
0030
0070
0360
03C0
ENDCHAR
STARTCHAR Omacron
ENCODING 332
SWIDTH 761 0
DWIDTH 15 0
BBX 14 16 2 0
BITMAP
0FC0
0000
07E0
1E30
3C18
781C
701C
701C
F01C
E03C
E038
E038
E078
60F0
31E0
1F80
ENDCHAR
STARTCHAR omacron
ENCODING 333
SWIDTH 562 0
DWIDTH 11 0
BBX 11 12 1 0
BITMAP
1F80
0000
0F80
38C0
78E0
70E0
F0E0
E1E0
E1C0
E3C0
6380
3E00
ENDCHAR
STARTCHAR Obreve
ENCODING 334
SWIDTH 761 0
DWIDTH 15 0
BBX 14 18 2 0
BITMAP
0840
0FC0
0700
0000
07E0
1E30
3C18
781C
701C
701C
F01C
E03C
E038
E038
E078
60F0
31E0
1F80
ENDCHAR
STARTCHAR obreve
ENCODING 335
SWIDTH 562 0
DWIDTH 11 0
BBX 11 14 1 0
BITMAP
1080
1F80
0E00
0000
0F80
38C0
78E0
70E0
F0E0
E1E0
E1C0
E3C0
6380
3E00
ENDCHAR
STARTCHAR Ohungarumlaut
ENCODING 336
SWIDTH 761 0
DWIDTH 15 0
BBX 14 19 2 0
BITMAP
0360
0360
0640
0480
0000
07E0
1E30
3C18
781C
701C
701C
F01C
E03C
E038
E038
E078
60F0
31E0
1F80
ENDCHAR
STARTCHAR ohungarumlaut
ENCODING 337
SWIDTH 562 0
DWIDTH 11 0
BBX 11 15 1 0
BITMAP
0D80
0D80
1900
1200
0000
0F80
38C0
78E0
70E0
F0E0
E1E0
E1C0
E3C0
6380
3E00
ENDCHAR
STARTCHAR OE
ENCODING 338
SWIDTH 1016 0
DWIDTH 20 0
BBX 19 14 2 0
BITMAP
03FFE0
1E3860
3C3820
783820
703880
707180
E07F00
E07100
E07100
E0E000
E0E040
70E080
38E180
0FFF80
ENDCHAR
STARTCHAR oe
ENCODING 339
SWIDTH 811 0
DWIDTH 16 0
BBX 16 10 1 0
BITMAP
0F1C
38A7
78E7
70EF
F0CE
E1F8
E1C2
E3C4
63CC
3C70
ENDCHAR
STARTCHAR Racute
ENCODING 340
SWIDTH 681 0
DWIDTH 13 0
BBX 13 19 1 0
BITMAP
0060
00E0
0180
0200
0000
1FE0
0E30
0E38
0E38
1C38
1C70
1C60
1F80
1CE0
38E0
38E0
38E0
38E0
FC70
ENDCHAR
STARTCHAR racute
ENCODING 341
SWIDTH 440 0
DWIDTH 9 0
BBX 8 15 2 0
BITMAP
06
0E
18
20
00
33
F7
7B
70
70
70
F0
E0
E0
C0
ENDCHAR
STARTCHAR Rcommaaccent
ENCODING 342
SWIDTH 681 0
DWIDTH 13 0
BBX 13 22 1 -8
BITMAP
1FE0
0E30
0E38
0E38
1C38
1C70
1C60
1F80
1CE0
38E0
38E0
38E0
38E0
FC70
0000
0200
0700
0700
0700
0600
0400
0800
ENDCHAR
STARTCHAR rcommaaccent
ENCODING 343
SWIDTH 440 0
DWIDTH 9 0
BBX 8 18 2 -8
BITMAP
33
F7
7B
70
70
70
F0
E0
E0
C0
00
20
70
70
70
60
40
80
ENDCHAR
STARTCHAR Rcaron
ENCODING 344
SWIDTH 681 0
DWIDTH 13 0
BBX 13 19 1 0
BITMAP
0820
04C0
0780
0300
0000
1FE0
0E30
0E38
0E38
1C38
1C70
1C60
1F80
1CE0
38E0
38E0
38E0
38E0
FC70
ENDCHAR
STARTCHAR rcaron
ENCODING 345
SWIDTH 440 0
DWIDTH 9 0
BBX 8 15 2 0
BITMAP
41
26
3C
18
00
33
F7
7B
70
70
70
F0
E0
E0
C0
ENDCHAR
STARTCHAR Sacute
ENCODING 346
SWIDTH 551 0
DWIDTH 11 0
BBX 11 19 1 0
BITMAP
0180
0380
0600
0800
0000
0780
1CE0
1840
3840
3C00
3E00
1F00
0780
03C0
41C0
41C0
C180
6380
3E00
ENDCHAR
STARTCHAR sacute
ENCODING 347
SWIDTH 417 0
DWIDTH 8 0
BBX 8 15 1 0
BITMAP
03
07
0C
10
00
0E
13
33
38
1C
1E
0E
E6
64
38
ENDCHAR
STARTCHAR Scircumflex
ENCODING 348
SWIDTH 551 0
DWIDTH 11 0
BBX 11 19 1 0
BITMAP
0300
0780
0C80
1040
0000
0780
1CE0
1840
3840
3C00
3E00
1F00
0780
03C0
41C0
41C0
C180
6380
3E00
ENDCHAR
STARTCHAR scircumflex
ENCODING 349
SWIDTH 417 0
DWIDTH 8 0
BBX 9 15 1 0
BITMAP
0600
0F00
1900
2080
0000
0E00
1300
3300
3800
1C00
1E00
0E00
E600
6400
3800
ENDCHAR
STARTCHAR Scedilla
ENCODING 350
SWIDTH 551 0
DWIDTH 11 0
BBX 11 19 1 -5
BITMAP
0780
1CE0
1840
3840
3C00
3E00
1F00
0780
03C0
41C0
41C0
C180
6380
3E00
0C00
0E00
0600
0600
1C00
ENDCHAR
STARTCHAR scedilla
ENCODING 351
SWIDTH 417 0
DWIDTH 8 0
BBX 8 15 1 -5
BITMAP
0E
13
33
38
1C
1E
0E
E6
64
38
30
38
18
18
70
ENDCHAR
STARTCHAR Scaron
ENCODING 352
SWIDTH 551 0
DWIDTH 11 0
BBX 12 18 1 0
BITMAP
0800
0470
03C0
0100
0780
1CE0
1840
3840
3C00
3E00
1F00
0780
03C0
41C0
41C0
C180
6380
3E00
ENDCHAR
STARTCHAR scaron
ENCODING 353
SWIDTH 417 0
DWIDTH 8 0
BBX 10 14 1 0
BITMAP
10C0
0900
0E00
0400
0E00
1300
3300
3800
1C00
1E00
0E00
E600
6400
3800
ENDCHAR
STARTCHAR Tcommaaccent
ENCODING 354
SWIDTH 616 0
DWIDTH 12 0
BBX 13 19 2 -5
BITMAP
7FF8
6710
4710
8710
0700
0E00
0E00
0E00
0E00
1C00
1C00
1C00
1C00
7F00
0C00
0E00
0600
0600
1C00
ENDCHAR
STARTCHAR tcommaaccent
ENCODING 355
SWIDTH 359 0
DWIDTH 7 0
BBX 7 18 2 -5
BITMAP
04
18
38
FE
30
70
70
70
60
E4
E8
F0
70
30
38
18
18
70
ENDCHAR
STARTCHAR Tcaron
ENCODING 356
SWIDTH 616 0
DWIDTH 12 0
BBX 13 19 2 0
BITMAP
1040
0980
0F00
0600
0000
7FF8
6710
4710
8710
0700
0E00
0E00
0E00
0E00
1C00
1C00
1C00
1C00
7F00
ENDCHAR
STARTCHAR tcaron
ENCODING 357
SWIDTH 587 0
DWIDTH 12 0
BBX 11 14 2 0
BITMAP
00E0
04E0
18E0
38C0
FE80
3100
7000
7000
7000
6000
E400
E800
F000
6000
ENDCHAR
STARTCHAR Tbar
ENCODING 358
SWIDTH 616 0
DWIDTH 12 0
BBX 13 14 2 0
BITMAP
7FF8
6710
4710
8710
0700
0E00
3FE0
0E00
0E00
1C00
1C00
1C00
1C00
7F00
ENDCHAR
STARTCHAR tbar
ENCODING 359
SWIDTH 359 0
DWIDTH 7 0
BBX 9 13 1 0
BITMAP
0200
0C00
1C00
7F00
1800
3800
3800
FF80
3000
7200
7400
7800
3000
ENDCHAR
STARTCHAR Utilde
ENCODING 360
SWIDTH 776 0
DWIDTH 15 0
BBX 15 18 3 0
BITMAP
0710
07E0
0840
0000
FEFE
3838
3838
7070
7070
7070
7070
60E0
E0E0
E0E0
E0E0
E1C0
7380
3F00
ENDCHAR
STARTCHAR utilde
ENCODING 361
SWIDTH 634 0
DWIDTH 12 0
BBX 11 14 2 0
BITMAP
1C40
1F80
2100
0000
1860
F8C0
31C0
71C0
71C0
7380
E5A0
EBA0
FBC0
6180
ENDCHAR
STARTCHAR Umacron
ENCODING 362
SWIDTH 776 0
DWIDTH 15 0
BBX 15 16 3 0
BITMAP
0FC0
0000
FEFE
3838
3838
7070
7070
7070
7070
60E0
E0E0
E0E0
E0E0
E1C0
7380
3F00
ENDCHAR
STARTCHAR umacron
ENCODING 363
SWIDTH 634 0
DWIDTH 12 0
BBX 11 12 2 0
BITMAP
1F80
0000
1860
F8C0
31C0
71C0
71C0
7380
E5A0
EBA0
FBC0
6180
ENDCHAR
STARTCHAR Ubreve
ENCODING 364
SWIDTH 776 0
DWIDTH 15 0
BBX 15 18 3 0
BITMAP
0420
07E0
0380
0000
FEFE
3838
3838
7070
7070
7070
7070
60E0
E0E0
E0E0
E0E0
E1C0
7380
3F00
ENDCHAR
STARTCHAR ubreve
ENCODING 365
SWIDTH 634 0
DWIDTH 12 0
BBX 11 14 2 0
BITMAP
1080
1F80
0E00
0000
1860
F8C0
31C0
71C0
71C0
7380
E5A0
EBA0
FBC0
6180
ENDCHAR
STARTCHAR Uring
ENCODING 366
SWIDTH 776 0
DWIDTH 15 0
BBX 15 20 3 0
BITMAP
0380
0440
0440
0440
0380
0000
FEFE
3838
3838
7070
7070
7070
7070
60E0
E0E0
E0E0
E0E0
E1C0
7380
3F00
ENDCHAR
STARTCHAR uring
ENCODING 367
SWIDTH 634 0
DWIDTH 12 0
BBX 11 16 2 0
BITMAP
0E00
1100
1100
1100
0E00
0000
1860
F8C0
31C0
71C0
71C0
7380
E5A0
EBA0
FBC0
6180
ENDCHAR
STARTCHAR Uhungarumlaut
ENCODING 368
SWIDTH 776 0
DWIDTH 15 0
BBX 15 19 3 0
BITMAP
0360
0360
0640
0480
0000
FEFE
3838
3838
7070
7070
7070
7070
60E0
E0E0
E0E0
E0E0
E1C0
7380
3F00
ENDCHAR
STARTCHAR uhungarumlaut
ENCODING 369
SWIDTH 634 0
DWIDTH 12 0
BBX 11 15 2 0
BITMAP
0D80
0D80
1900
1200
0000
1860
F8C0
31C0
71C0
71C0
7380
E5A0
EBA0
FBC0
6180
ENDCHAR
STARTCHAR Uogonek
ENCODING 370
SWIDTH 776 0
DWIDTH 15 0
BBX 15 19 3 -5
BITMAP
FEFE
3838
3838
7070
7070
7070
7070
60E0
E0E0
E0E0
E0E0
E1C0
7380
3F00
0300
0600
0C00
0C00
0700
ENDCHAR
STARTCHAR uogonek
ENCODING 371
SWIDTH 634 0
DWIDTH 12 0
BBX 11 15 2 -5
BITMAP
1860
F8C0
31C0
71C0
71C0
7380
E5A0
EBA0
FBC0
6180
0600
0C00
1800
1800
0E00
ENDCHAR
STARTCHAR Wcircumflex
ENCODING 372
SWIDTH 920 0
DWIDTH 18 0
BBX 19 19 2 0
BITMAP
006000
00F000
019000
020800
000000
FC01E0
3870C0
387080
38F180
38F100
397100
397200
397200
3A7400
3A7400
3C7C00
3C3800
383800
383000
ENDCHAR
STARTCHAR wcircumflex
ENCODING 373
SWIDTH 795 0
DWIDTH 15 0
BBX 15 15 2 0
BITMAP
0180
03C0
0640
0820
0000
38E6
F1C6
71C6
71C6
7384
638C
E788
EB90
F3E0
6180
ENDCHAR
STARTCHAR Ycircumflex
ENCODING 374
SWIDTH 622 0
DWIDTH 12 0
BBX 13 19 3 0
BITMAP
0300
0780
0C80
1040
0000
FCF8
7060
3840
38C0
3980
3900
1E00
1E00
1C00
1C00
1C00
3C00
3800
FE00
ENDCHAR
STARTCHAR ycircumflex
ENCODING 375
SWIDTH 489 0
DWIDTH 10 0
BBX 11 19 0 -4
BITMAP
0300
0780
0C80
1040
0000
0820
7860
1C60
1C40
1CC0
0C80
0D80
0D00
0E00
0E00
0C00
4800
C800
F000
ENDCHAR
STARTCHAR Ydieresis
ENCODING 376
SWIDTH 622 0
DWIDTH 12 0
BBX 13 17 3 0
BITMAP
1DC0
1DC0
1DC0
FCF8
7060
3840
38C0
3980
3900
1A00
1E00
1C00
1C00
1C00
1800
3800
FE00
ENDCHAR
STARTCHAR Zacute
ENCODING 377
SWIDTH 618 0
DWIDTH 12 0
BBX 15 19 0 0
BITMAP
0030
0070
00C0
0100
0000
0FFE
0C3C
0878
10F0
00E0
01E0
03C0
0780
0F00
1E00
1C10
3830
7020
FFE0
ENDCHAR
STARTCHAR zacute
ENCODING 378
SWIDTH 466 0
DWIDTH 9 0
BBX 11 15 0 0
BITMAP
0180
0380
0600
0800
0000
1FE0
3FC0
2380
4700
0C00
1800
3080
3880
7F80
C700
ENDCHAR
STARTCHAR Zdotaccent
ENCODING 379
SWIDTH 618 0
DWIDTH 12 0
BBX 15 18 0 0
BITMAP
01C0
01C0
01C0
0000
0FFE
0C3C
0878
10F0
00E0
01E0
03C0
0780
0F00
1E00
1C10
3830
7020
FFE0
ENDCHAR
STARTCHAR zdotaccent
ENCODING 380
SWIDTH 466 0
DWIDTH 9 0
BBX 11 14 0 0
BITMAP
0700
0700
0700
0000
1FE0
3FC0
2380
4700
0C00
1800
3080
3880
7F80
C700
ENDCHAR
STARTCHAR Zcaron
ENCODING 381
SWIDTH 618 0
DWIDTH 12 0
BBX 15 17 0 0
BITMAP
0318
01E0
00C0
0FFE
0C3C
0878
10F0
00E0
01E0
03C0
0780
0F00
1E00
1C10
3830
7020
FFE0
ENDCHAR
STARTCHAR zcaron
ENCODING 382
SWIDTH 466 0
DWIDTH 9 0
BBX 11 14 0 0
BITMAP
0820
04C0
0780
0200
1FE0
3FC0
2180
4300
0600
0C00
1040
3880
7F80
C700
ENDCHAR
STARTCHAR uni0186
ENCODING 390
SWIDTH 672 0
DWIDTH 13 0
BBX 13 14 2 0
BITMAP
0F80
1860
3030
2038
2038
0038
0038
0038
0070
0070
4070
40E0
E1C0
3F00
ENDCHAR
STARTCHAR uni0189
ENCODING 393
SWIDTH 780 0
DWIDTH 15 0
BBX 15 14 1 0
BITMAP
1FF0
0E18
0E0C
0E0E
1C0E
1C0E
7F8E
1C0E
181C
381C
383C
3878
38F0
FF80
ENDCHAR
STARTCHAR uni018E
ENCODING 398
SWIDTH 622 0
DWIDTH 12 0
BBX 13 14 1 0
BITMAP
3FF8
30F0
20E0
20E0
40E0
10E0
11C0
1FC0
11C0
21C0
4180
C380
C380
FFE0
ENDCHAR
STARTCHAR florin
ENCODING 402
SWIDTH 560 0
DWIDTH 11 0
BBX 13 17 0 -3
BITMAP
00F0
01B8
0398
0380
0300
0700
1FE0
0700
0700
0E00
0E00
0E00
0E00
0C00
5C00
D800
7000
ENDCHAR
STARTCHAR uni0197
ENCODING 407
SWIDTH 386 0
DWIDTH 8 0
BBX 9 14 1 0
BITMAP
1F80
0E00
0E00
0E00
0E00
1C00
FF80
1C00
1C00
3800
3800
3800
3800
FC00
ENDCHAR
STARTCHAR uni019A
ENCODING 410
SWIDTH 327 0
DWIDTH 6 0
BBX 9 14 1 0
BITMAP
0600
3E00
0C00
1C00
1C00
1C00
FF80
3800
3800
3000
7400
7400
7800
3000
ENDCHAR
STARTCHAR uni019D
ENCODING 413
SWIDTH 741 0
DWIDTH 14 0
BBX 18 18 -1 -4
BITMAP
0787C0
03C100
03C100
03C100
02E300
04E200
047200
047200
047200
0C3C00
0E3C00
0E1C00
0E1C00
0C1C00
0C0000
1C0000
D80000
F00000
ENDCHAR
STARTCHAR uni019F
ENCODING 415
SWIDTH 761 0
DWIDTH 15 0
BBX 14 14 2 0
BITMAP
07E0
1E30
3C18
781C
701C
701C
FFFC
E03C
E038
E038
E078
60F0
31E0
1F80
ENDCHAR
STARTCHAR Ohorn
ENCODING 416
SWIDTH 761 0
DWIDTH 15 0
BBX 17 14 2 0
BITMAP
07E380
1E3380
3C1B80
781F00
701E00
701C00
F01C00
E03C00
E03800
E03800
E07800
60F000
31E000
1F8000
ENDCHAR
STARTCHAR ohorn
ENCODING 417
SWIDTH 562 0
DWIDTH 11 0
BBX 14 10 1 0
BITMAP
0F9C
38DC
78FC
70F8
F0F0
E1E0
E1C0
E3C0
6380
3E00
ENDCHAR
STARTCHAR Uhorn
ENCODING 431
SWIDTH 776 0
DWIDTH 15 0
BBX 18 14 3 0
BITMAP
FEFFC0
3839C0
3839C0
707180
707100
707200
707000
60E000
E0E000
E0E000
E0E000
E1C000
738000
3F0000
ENDCHAR
STARTCHAR uhorn
ENCODING 432
SWIDTH 634 0
DWIDTH 12 0
BBX 14 10 2 0
BITMAP
187C
F8DC
31DC
71D8
71D0
73A0
E5A0
EBA0
FBC0
6180
ENDCHAR
STARTCHAR uni01B5
ENCODING 437
SWIDTH 618 0
DWIDTH 12 0
BBX 15 14 0 0
BITMAP
0FFE
0C3C
0878
10F0
00E0
01E0
1FF0
0780
0F00
1E00
1C10
3830
7020
FFE0
ENDCHAR
STARTCHAR uni01B6
ENCODING 438
SWIDTH 466 0
DWIDTH 9 0
BBX 11 10 0 0
BITMAP
1FE0
3FC0
2380
4700
7FC0
1800
3080
3880
7F80
C700
ENDCHAR
STARTCHAR uni01BB
ENCODING 443
SWIDTH 560 0
DWIDTH 11 0
BBX 11 13 1 0
BITMAP
0F80
1CC0
38E0
38E0
00E0
01C0
FFE0
0700
0C00
3800
7040
FFC0
FF80
ENDCHAR
STARTCHAR uni01BC
ENCODING 444
SWIDTH 560 0
DWIDTH 11 0
BBX 11 13 1 0
BITMAP
1FE0
1FC0
1000
1000
3000
2F00
3380
01C0
01C0
61C0
E180
7380
3E00
ENDCHAR
STARTCHAR uni01C0
ENCODING 448
SWIDTH 265 0
DWIDTH 5 0
BBX 2 14 3 0
BITMAP
C0
C0
C0
C0
C0
C0
C0
C0
C0
C0
C0
C0
C0
C0
ENDCHAR
STARTCHAR uni01C2
ENCODING 450
SWIDTH 600 0
DWIDTH 12 0
BBX 9 14 2 -2
BITMAP
0C00
0C00
0C00
0C00
FF80
FF80
0C00
0C00
FF80
FF80
0C00
0C00
0C00
0C00
ENDCHAR
STARTCHAR uni01C3
ENCODING 451
SWIDTH 285 0
DWIDTH 6 0
BBX 6 14 1 0
BITMAP
1C
1C
38
38
38
30
30
30
20
20
00
E0
F0
60
ENDCHAR
STARTCHAR uni01CD
ENCODING 461
SWIDTH 634 0
DWIDTH 12 0
BBX 14 19 -1 0
BITMAP
0208
0130
01E0
00C0
0000
0060
00E0
00E0
0170
0370
0270
0670
0470
0FF0
0870
1070
3070
2078
F8FC
ENDCHAR
STARTCHAR uni01CE
ENCODING 462
SWIDTH 596 0
DWIDTH 12 0
BBX 11 15 1 0
BITMAP
1040
0980
0F00
0600
0000
07E0
1CC0
39C0
71C0
71C0
E380
E5A0
EBA0
FBC0
6180
ENDCHAR
STARTCHAR uni01CF
ENCODING 463
SWIDTH 386 0
DWIDTH 8 0
BBX 9 19 1 0
BITMAP
2080
1300
1E00
0C00
0000
1F80
0E00
0E00
0E00
0E00
1C00
1C00
1C00
1C00
3800
3800
3800
3800
FC00
ENDCHAR
STARTCHAR uni01D0
ENCODING 464
SWIDTH 339 0
DWIDTH 7 0
BBX 7 15 2 0
BITMAP
82
4C
78
30
00
18
F8
30
70
70
70
68
E8
F0
60
ENDCHAR
STARTCHAR uni01D1
ENCODING 465
SWIDTH 761 0
DWIDTH 15 0
BBX 14 19 2 0
BITMAP
0820
04C0
0780
0300
0000
07E0
1E30
3C18
781C
701C
701C
F01C
E03C
E038
E038
E078
60F0
31E0
1F80
ENDCHAR
STARTCHAR uni01D2
ENCODING 466
SWIDTH 562 0
DWIDTH 11 0
BBX 11 15 1 0
BITMAP
1040
0980
0F00
0600
0000
0F80
38C0
78E0
70E0
F0E0
E1E0
E1C0
E3C0
6380
3E00
ENDCHAR
STARTCHAR uni01D3
ENCODING 467
SWIDTH 776 0
DWIDTH 15 0
BBX 15 19 3 0
BITMAP
0820
04C0
0780
0300
0000
FEFE
3838
3838
7070
7070
7070
7070
60E0
E0E0
E0E0
E0E0
E1C0
7380
3F00
ENDCHAR
STARTCHAR uni01D4
ENCODING 468
SWIDTH 634 0
DWIDTH 12 0
BBX 11 15 2 0
BITMAP
2080
1300
1E00
0C00
0000
1860
F8C0
31C0
71C0
71C0
7380
E5A0
EBA0
FBC0
6180
ENDCHAR
STARTCHAR uni01D5
ENCODING 469
SWIDTH 776 0
DWIDTH 15 0
BBX 15 19 3 0
BITMAP
07E0
0000
0E70
0E70
0E70
FE7E
3838
3838
7838
7030
7070
7070
7070
E060
E0E0
E0E0
E1C0
71C0
3F00
ENDCHAR
STARTCHAR uni01D6
ENCODING 470
SWIDTH 634 0
DWIDTH 12 0
BBX 11 16 2 0
BITMAP
0FC0
0000
1CE0
1CE0
1CE0
0000
1860
F8C0
31C0
71C0
71C0
7380
E5A0
EBA0
FBC0
6180
ENDCHAR
STARTCHAR uni01D7
ENCODING 471
SWIDTH 776 0
DWIDTH 15 0
BBX 15 22 3 0
BITMAP
0060
00E0
0180
0200
0000
0E70
0E70
0E70
FE7E
3838
3838
7838
7030
7070
7070
7070
E060
E0E0
E0E0
E1C0
71C0
3F00
ENDCHAR
STARTCHAR uni01D8
ENCODING 472
SWIDTH 634 0
DWIDTH 12 0
BBX 11 19 2 0
BITMAP
00C0
01C0
0300
0400
0000
1CE0
1CE0
1CE0
0000
1860
F8C0
31C0
71C0
71C0
7380
E5A0
EBA0
FBC0
6180
ENDCHAR
STARTCHAR uni01D9
ENCODING 473
SWIDTH 776 0
DWIDTH 15 0
BBX 15 22 3 0
BITMAP
0820
04C0
0780
0300
0000
0E70
0E70
0E70
FE7E
3838
3838
7838
7030
7070
7070
7070
E060
E0E0
E0E0
E1C0
71C0
3F00
ENDCHAR
STARTCHAR uni01DA
ENCODING 474
SWIDTH 634 0
DWIDTH 12 0
BBX 11 19 2 0
BITMAP
1040
0980
0F00
0600
0000
1CE0
1CE0
1CE0
0000
1860
F8C0
31C0
71C0
71C0
7380
E5A0
EBA0
FBC0
6180
ENDCHAR
STARTCHAR uni01DB
ENCODING 475
SWIDTH 776 0
DWIDTH 15 0
BBX 15 22 3 0
BITMAP
0C00
0E00
0300
0080
0000
0E70
0E70
0E70
FE7E
3838
3838
7838
7030
7070
7070
7070
E060
E0E0
E0E0
E1C0
71C0
3F00
ENDCHAR
STARTCHAR uni01DC
ENCODING 476
SWIDTH 634 0
DWIDTH 12 0
BBX 11 19 2 0
BITMAP
1800
1C00
0600
0100
0000
1CE0
1CE0
1CE0
0000
1860
F8C0
31C0
71C0
71C0
7380
E5A0
EBA0
FBC0
6180
ENDCHAR
STARTCHAR uni01DD
ENCODING 477
SWIDTH 476 0
DWIDTH 9 0
BBX 10 10 1 0
BITMAP
0F00
31C0
61C0
01C0
1FC0
79C0
F380
E300
E600
3C00
ENDCHAR
STARTCHAR uni01DE
ENCODING 478
SWIDTH 634 0
DWIDTH 12 0
BBX 13 19 0 0
BITMAP
07E0
0000
0738
0738
0738
00E0
00E0
01E0
03E0
02E0
04E0
04E0
08E0
0FF0
1070
1070
2070
6070
F0F8
ENDCHAR
STARTCHAR uni01DF
ENCODING 479
SWIDTH 596 0
DWIDTH 12 0
BBX 11 16 1 0
BITMAP
0FC0
0000
0EE0
0EE0
0EE0
0000
07E0
1CC0
39C0
71C0
71C0
E380
E5A0
EBA0
FBC0
6180
ENDCHAR
STARTCHAR uni01E0
ENCODING 480
SWIDTH 634 0
DWIDTH 12 0
BBX 14 20 -1 0
BITMAP
07E0
0000
01C0
01C0
01C0
0000
0060
00E0
00E0
0170
0370
0270
0670
0470
0FF0
0870
1070
3070
2078
F8FC
ENDCHAR
STARTCHAR uni01E1
ENCODING 481
SWIDTH 596 0
DWIDTH 12 0
BBX 11 16 1 0
BITMAP
1F80
0000
0700
0700
0700
0000
07E0
1CC0
39C0
71C0
71C0
E380
E5A0
EBA0
FBC0
6180
ENDCHAR
STARTCHAR uni01E2
ENCODING 482
SWIDTH 890 0
DWIDTH 17 0
BBX 21 16 -2 0
BITMAP
003F00
000000
007FF8
003E18
006E08
004E08
008E20
019C60
03FFC0
023C40
043C40
0C3800
183810
103820
307860
F8FFE0
ENDCHAR
STARTCHAR uni01E3
ENCODING 483
SWIDTH 789 0
DWIDTH 15 0
BBX 16 12 1 0
BITMAP
03F0
0000
07DC
1CE7
38E7
30C7
71CE
61F8
E3C0
E5C2
F9CC
7070
ENDCHAR
STARTCHAR uni01E4
ENCODING 484
SWIDTH 726 0
DWIDTH 14 0
BBX 16 14 2 0
BITMAP
07E0
1C38
3830
7010
7010
7000
E000
E000
E1F8
E0E0
E1FF
60E0
71E0
1F80
ENDCHAR
STARTCHAR uni01E5
ENCODING 485
SWIDTH 522 0
DWIDTH 10 0
BBX 12 14 0 -4
BITMAP
0FB0
1CF0
38E0
38E0
18E0
19C0
0F80
3800
1F00
1F80
FFF0
E1C0
E180
1E00
ENDCHAR
STARTCHAR Gcaron
ENCODING 486
SWIDTH 726 0
DWIDTH 14 0
BBX 13 19 2 0
BITMAP
0820
04C0
0780
0300
0000
07E0
1C38
3830
7010
7010
7000
E000
E000
E1F8
E0E0
E0E0
60E0
71E0
1F80
ENDCHAR
STARTCHAR gcaron
ENCODING 487
SWIDTH 522 0
DWIDTH 10 0
BBX 12 19 0 -4
BITMAP
0820
04C0
0780
0300
0000
0FB0
1CF0
38E0
38E0
18E0
19C0
0F80
3800
1F00
1F80
63C0
E1C0
E180
1E00
ENDCHAR
STARTCHAR uni01E8
ENCODING 488
SWIDTH 688 0
DWIDTH 13 0
BBX 16 19 1 0
BITMAP
0410
0260
03C0
0180
0000
3FBF
0E18
0E30
0E60
1CC0
1D80
1F80
1F80
3D80
39C0
39E0
38E0
78F0
FC38
ENDCHAR
STARTCHAR uni01E9
ENCODING 489
SWIDTH 570 0
DWIDTH 11 0
BBX 11 19 1 0
BITMAP
4100
2600
3C00
1800
0000
0C00
7C00
1C00
1800
3860
38E0
3920
3200
7600
7600
7600
6760
E3C0
E180
ENDCHAR
STARTCHAR uni01EA
ENCODING 490
SWIDTH 761 0
DWIDTH 15 0
BBX 14 19 2 -5
BITMAP
07E0
1E30
3C18
781C
701C
701C
F01C
E03C
E038
E038
E078
60F0
31E0
1F80
0180
0300
0600
0600
0380
ENDCHAR
STARTCHAR uni01EB
ENCODING 491
SWIDTH 562 0
DWIDTH 11 0
BBX 11 15 1 -5
BITMAP
0F80
38C0
78E0
70E0
F0E0
E1E0
E1C0
E3C0
6380
3E00
0600
0C00
1800
1800
0E00
ENDCHAR
STARTCHAR uni01EC
ENCODING 492
SWIDTH 761 0
DWIDTH 15 0
BBX 14 21 2 -5
BITMAP
0FC0
0000
07E0
1E30
3C18
781C
701C
701C
F01C
E03C
E038
E038
E078
60F0
31E0
1F80
0180
0300
0600
0600
0380
ENDCHAR
STARTCHAR uni01ED
ENCODING 493
SWIDTH 562 0
DWIDTH 11 0
BBX 11 17 1 -5
BITMAP
1F80
0000
0F80
38C0
78E0
70E0
F0E0
E1E0
E1C0
E3C0
6380
3E00
0600
0C00
1800
1800
0E00
ENDCHAR
STARTCHAR uni01F0
ENCODING 496
SWIDTH 333 0
DWIDTH 6 0
BBX 10 19 -1 -4
BITMAP
1040
0980
0F00
0600
0000
0300
0F00
0700
0700
0600
0600
0E00
0E00
0E00
0C00
0C00
1C00
D800
F000
ENDCHAR
STARTCHAR uni01F4
ENCODING 500
SWIDTH 726 0
DWIDTH 14 0
BBX 13 19 2 0
BITMAP
00C0
01C0
0300
0400
0000
07E0
1C38
3830
7010
7010
7000
E000
E000
E1F8
E0E0
E0E0
60E0
71E0
1F80
ENDCHAR
STARTCHAR uni01F5
ENCODING 501
SWIDTH 522 0
DWIDTH 10 0
BBX 12 19 0 -4
BITMAP
00C0
01C0
0300
0400
0000
0FB0
1CF0
38E0
38E0
18E0
19C0
0F80
3800
1F00
1F80
63C0
E1C0
E180
1E00
ENDCHAR
STARTCHAR uni01F8
ENCODING 504
SWIDTH 741 0
DWIDTH 14 0
BBX 16 19 1 0
BITMAP
0600
0700
0180
0040
0000
1E1F
0F04
0F04
0F04
0B8C
1388
11C8
11C8
11C8
30F0
20F0
2070
2070
F870
ENDCHAR
STARTCHAR uni01F9
ENCODING 505
SWIDTH 635 0
DWIDTH 12 0
BBX 13 15 1 0
BITMAP
1800
1C00
0600
0100
0000
18C0
79E0
3AE0
34E0
38C0
70C0
71C8
71D0
61E0
E0C0
ENDCHAR
STARTCHAR Aringacute
ENCODING 506
SWIDTH 634 0
DWIDTH 12 0
BBX 13 22 0 0
BITMAP
0060
00E0
0180
0200
0000
00E0
0110
0110
01E0
01E0
01E0
02E0
02E0
04E0
04E0
08E0
0FF0
1070
1070
2070
6070
F0F8
ENDCHAR
STARTCHAR aringacute
ENCODING 507
SWIDTH 596 0
DWIDTH 12 0
BBX 11 20 1 0
BITMAP
00C0
01C0
0300
0400
0000
0380
0440
0440
0440
0380
0760
1CC0
39C0
71C0
71C0
E380
E5A0
EBA0
FBC0
6180
ENDCHAR
STARTCHAR AEacute
ENCODING 508
SWIDTH 890 0
DWIDTH 17 0
BBX 21 19 -2 0
BITMAP
000300
000700
000C00
001000
000000
007FF8
003E18
006E08
004E08
008E20
019C60
03FFC0
023C40
043C40
0C3800
183810
103820
307860
F8FFE0
ENDCHAR
STARTCHAR aeacute
ENCODING 509
SWIDTH 789 0
DWIDTH 15 0
BBX 16 15 1 0
BITMAP
0030
0070
00C0
0100
0000
07DC
1CE7
38E7
30C7
71CE
61F8
E3C0
E5C2
F9CC
7070
ENDCHAR
STARTCHAR Oslashacute
ENCODING 510
SWIDTH 761 0
DWIDTH 15 0
BBX 14 20 2 -1
BITMAP
0060
00E0
0180
0200
0000
07C8
1E30
3C38
787C
70DC
709C
F11C
E23C
E438
E838
F878
70F0
31E0
5F80
4000
ENDCHAR
STARTCHAR oslashacute
ENCODING 511
SWIDTH 562 0
DWIDTH 11 0
BBX 11 17 1 -1
BITMAP
0180
0380
0600
0800
0000
0040
0F40
38C0
71C0
72E0
E4E0
E5E0
E9C0
F3C0
7380
3E00
4000
ENDCHAR
STARTCHAR Scommaaccent
ENCODING 536
SWIDTH 551 0
DWIDTH 11 0
BBX 11 22 1 -8
BITMAP
0780
1CE0
1840
3840
3C00
3E00
1F00
0780
03C0
41C0
41C0
C180
6380
3E00
0000
0400
0E00
0E00
0E00
0C00
0800
1000
ENDCHAR
STARTCHAR scommaaccent
ENCODING 537
SWIDTH 417 0
DWIDTH 8 0
BBX 8 18 1 -8
BITMAP
0E
13
33
38
1C
1E
0E
E6
64
38
00
10
38
38
38
30
20
40
ENDCHAR
STARTCHAR Tcommaaccent
ENCODING 538
SWIDTH 616 0
DWIDTH 12 0
BBX 13 22 2 -8
BITMAP
7FF8
6710
4710
8710
0700
0E00
0E00
0E00
0E00
1C00
1C00
1C00
1C00
7F00
0000
0400
0E00
0E00
0E00
0C00
0800
1000
ENDCHAR
STARTCHAR tcommaaccent
ENCODING 539
SWIDTH 359 0
DWIDTH 7 0
BBX 7 21 2 -8
BITMAP
04
18
38
FE
30
70
70
70
60
E4
E8
F0
60
00
20
70
70
70
60
40
80
ENDCHAR
STARTCHAR uni021E
ENCODING 542
SWIDTH 800 0
DWIDTH 16 0
BBX 17 19 1 0
BITMAP
020800
013000
01E000
00C000
000000
1F9F80
0E0E00
0E0E00
0E0E00
0E0E00
1C1C00
1FFC00
1C1C00
1C1C00
383800
383800
383800
383800
FCFC00
ENDCHAR
STARTCHAR uni021F
ENCODING 543
SWIDTH 629 0
DWIDTH 12 0
BBX 13 19 1 0
BITMAP
2080
1300
1E00
0C00
0000
0C00
3C00
1C00
1C00
18C0
3BE0
3AE0
34E0
38C0
70C0
71C8
71D0
61E0
E0C0
ENDCHAR
STARTCHAR uni0226
ENCODING 550
SWIDTH 634 0
DWIDTH 12 0
BBX 14 18 -1 0
BITMAP
01C0
01C0
01C0
0000
0060
00E0
00E0
0170
0370
0270
0670
0470
0FF0
0870
1070
3070
2078
F8FC
ENDCHAR
STARTCHAR uni0227
ENCODING 551
SWIDTH 596 0
DWIDTH 12 0
BBX 11 14 1 0
BITMAP
0700
0700
0700
0000
07E0
1CC0
39C0
71C0
71C0
E380
E5A0
EBA0
FBC0
6180
ENDCHAR
STARTCHAR uni0228
ENCODING 552
SWIDTH 622 0
DWIDTH 12 0
BBX 13 19 1 -5
BITMAP
3FF8
0E18
0E18
0C10
1C20
1C40
1FC0
1C40
3840
3810
3820
3820
7860
FFE0
0600
0700
0300
0300
0E00
ENDCHAR
STARTCHAR uni0229
ENCODING 553
SWIDTH 476 0
DWIDTH 9 0
BBX 10 15 1 -5
BITMAP
0F00
19C0
31C0
73C0
E780
FE00
E000
E180
E300
3C00
1800
1C00
0C00
0C00
3800
ENDCHAR
STARTCHAR uni022A
ENCODING 554
SWIDTH 761 0
DWIDTH 15 0
BBX 14 19 2 0
BITMAP
07E0
0000
0770
0770
0770
07E0
1E30
3C18
781C
701C
701C
F01C
E03C
E038
E038
E078
60F0
31E0
1F80
ENDCHAR
STARTCHAR uni022B
ENCODING 555
SWIDTH 562 0
DWIDTH 11 0
BBX 11 16 1 0
BITMAP
0FC0
0000
1CE0
1CE0
1CE0
0000
0F80
38C0
78E0
70E0
F0E0
E1E0
E1C0
E3C0
6380
3E00
ENDCHAR
STARTCHAR uni022C
ENCODING 556
SWIDTH 761 0
DWIDTH 15 0
BBX 14 19 2 0
BITMAP
07E0
0000
0308
07F8
0830
07E0
1E30
3C18
781C
701C
701C
F01C
E03C
E038
E038
E078
60F0
31E0
1F80
ENDCHAR
STARTCHAR uni022D
ENCODING 557
SWIDTH 562 0
DWIDTH 11 0
BBX 11 16 1 0
BITMAP
0FC0
0000
0620
0FE0
10C0
0000
0F80
38C0
78E0
70E0
F0E0
E1E0
E1C0
E3C0
6380
3E00
ENDCHAR
STARTCHAR uni022E
ENCODING 558
SWIDTH 761 0
DWIDTH 15 0
BBX 14 18 2 0
BITMAP
0380
0380
0380
0000
07E0
1E30
3C18
781C
701C
701C
F01C
E03C
E038
E038
E078
60F0
31E0
1F80
ENDCHAR
STARTCHAR uni022F
ENCODING 559
SWIDTH 562 0
DWIDTH 11 0
BBX 11 14 1 0
BITMAP
0E00
0E00
0E00
0000
0F80
38C0
78E0
70E0
F0E0
E1E0
E1C0
E3C0
6380
3E00
ENDCHAR
STARTCHAR uni0230
ENCODING 560
SWIDTH 761 0
DWIDTH 15 0
BBX 14 20 2 0
BITMAP
0FC0
0000
0380
0380
0380
0000
07E0
1E30
3C18
781C
701C
701C
F01C
E03C
E038
E038
E078
60F0
31E0
1F80
ENDCHAR
STARTCHAR uni0231
ENCODING 561
SWIDTH 562 0
DWIDTH 11 0
BBX 11 16 1 0
BITMAP
1F80
0000
0E00
0E00
0E00
0000
0F80
38C0
78E0
70E0
F0E0
E1E0
E1C0
E3C0
6380
3E00
ENDCHAR
STARTCHAR uni0232
ENCODING 562
SWIDTH 622 0
DWIDTH 12 0
BBX 13 16 3 0
BITMAP
1F80
0000
FCF8
7060
3840
38C0
3980
3900
1E00
1E00
1C00
1C00
1C00
3C00
3800
FE00
ENDCHAR
STARTCHAR uni0233
ENCODING 563
SWIDTH 489 0
DWIDTH 10 0
BBX 11 16 0 -4
BITMAP
1F80
0000
0820
7860
1C60
1C40
1CC0
0C80
0D80
0D00
0E00
0E00
0C00
4800
C800
F000
ENDCHAR
STARTCHAR uni0250
ENCODING 592
SWIDTH 596 0
DWIDTH 12 0
BBX 11 10 1 0
BITMAP
30C0
7BE0
BAE0
B4E0
38E0
71C0
71C0
7380
6700
FC00
ENDCHAR
STARTCHAR uni0259
ENCODING 601
SWIDTH 476 0
DWIDTH 9 0
BBX 10 10 1 0
BITMAP
0F00
31C0
61C0
01C0
1FC0
79C0
F380
E300
E600
3C00
ENDCHAR
STARTCHAR uni025F
ENCODING 607
SWIDTH 348 0
DWIDTH 7 0
BBX 13 18 -2 -8
BITMAP
0070
00D8
01D0
0180
0180
0380
0380
0380
0300
0300
0700
0700
0700
3F80
0E00
0E00
EC00
7800
ENDCHAR
STARTCHAR uni0265
ENCODING 613
SWIDTH 629 0
DWIDTH 12 0
BBX 13 14 1 -4
BITMAP
1838
3C30
5C70
9C70
1870
18E0
3960
3AE0
3EE0
18C0
01C0
01C0
01E0
0180
ENDCHAR
STARTCHAR uni0275
ENCODING 629
SWIDTH 562 0
DWIDTH 11 0
BBX 11 10 1 0
BITMAP
0F80
38C0
78E0
70E0
FFE0
E1E0
E1C0
E3C0
6380
3E00
ENDCHAR
STARTCHAR uni0279
ENCODING 633
SWIDTH 440 0
DWIDTH 9 0
BBX 8 10 2 0
BITMAP
03
07
07
0F
0E
0E
0E
DE
EF
CC
ENDCHAR
STARTCHAR uni0287
ENCODING 647
SWIDTH 359 0
DWIDTH 7 0
BBX 7 13 2 0
BITMAP
0C
1E
2E
4E
0C
1C
1C
1C
18
FE
38
30
40
ENDCHAR
STARTCHAR uni0289
ENCODING 649
SWIDTH 634 0
DWIDTH 12 0
BBX 11 10 2 0
BITMAP
1860
F8C0
31C0
71C0
FFE0
7380
E5A0
EBA0
FBC0
6180
ENDCHAR
STARTCHAR uni028C
ENCODING 652
SWIDTH 518 0
DWIDTH 10 0
BBX 9 10 2 0
BITMAP
0300
0F80
1380
2380
6300
4700
C700
C700
C780
8E00
ENDCHAR
STARTCHAR uni028D
ENCODING 653
SWIDTH 795 0
DWIDTH 15 0
BBX 15 10 2 0
BITMAP
030C
0F9E
13AE
23CE
638C
439C
C71C
C71C
C71E
CE38
ENDCHAR
STARTCHAR uni028E
ENCODING 654
SWIDTH 489 0
DWIDTH 10 0
BBX 11 14 0 0
BITMAP
01E0
0260
0240
0600
0E00
0E00
1600
3600
2600
6700
4700
C700
C3C0
8200
ENDCHAR
STARTCHAR uni029E
ENCODING 670
SWIDTH 570 0
DWIDTH 11 0
BBX 11 14 1 -4
BITMAP
30E0
78E0
DCC0
0DC0
0DC0
0DC0
0980
9380
E380
C380
0300
0700
07C0
0600
ENDCHAR
STARTCHAR uni02BB
ENCODING 699
SWIDTH 246 0
DWIDTH 5 0
BBX 4 6 3 8
BITMAP
10
20
60
E0
E0
E0
ENDCHAR
STARTCHAR afii57929
ENCODING 700
SWIDTH 246 0
DWIDTH 5 0
BBX 4 6 2 8
BITMAP
70
70
70
60
40
80
ENDCHAR
STARTCHAR afii64937
ENCODING 701
SWIDTH 246 0
DWIDTH 5 0
BBX 4 6 2 8
BITMAP
E0
E0
E0
60
20
10
ENDCHAR
STARTCHAR circumflex
ENCODING 710
SWIDTH 400 0
DWIDTH 8 0
BBX 7 4 3 10
BITMAP
18
3C
64
82
ENDCHAR
STARTCHAR caron
ENCODING 711
SWIDTH 400 0
DWIDTH 8 0
BBX 7 4 3 10
BITMAP
82
4C
78
30
ENDCHAR
STARTCHAR uni02C8
ENCODING 712
SWIDTH 246 0
DWIDTH 5 0
BBX 3 6 3 8
BITMAP
60
E0
C0
C0
C0
80
ENDCHAR
STARTCHAR macron
ENCODING 713
SWIDTH 400 0
DWIDTH 8 0
BBX 6 1 3 12
BITMAP
FC
ENDCHAR
STARTCHAR uni02CA
ENCODING 714
SWIDTH 400 0
DWIDTH 8 0
BBX 5 4 4 10
BITMAP
18
38
60
80
ENDCHAR
STARTCHAR uni02CB
ENCODING 715
SWIDTH 400 0
DWIDTH 8 0
BBX 5 4 3 10
BITMAP
C0
E0
30
08
ENDCHAR
STARTCHAR uni02CD
ENCODING 717
SWIDTH 400 0
DWIDTH 8 0
BBX 6 1 3 -2
BITMAP
FC
ENDCHAR
STARTCHAR uni02CE
ENCODING 718
SWIDTH 400 0
DWIDTH 8 0
BBX 5 4 3 -5
BITMAP
C0
E0
30
08
ENDCHAR
STARTCHAR uni02CF
ENCODING 719
SWIDTH 400 0
DWIDTH 8 0
BBX 5 4 4 -5
BITMAP
18
38
60
80
ENDCHAR
STARTCHAR breve
ENCODING 728
SWIDTH 400 0
DWIDTH 8 0
BBX 6 3 3 11
BITMAP
84
FC
70
ENDCHAR
STARTCHAR dotaccent
ENCODING 729
SWIDTH 402 0
DWIDTH 8 0
BBX 3 3 5 11
BITMAP
E0
E0
E0
ENDCHAR
STARTCHAR ring
ENCODING 730
SWIDTH 400 0
DWIDTH 8 0
BBX 5 5 4 10
BITMAP
70
88
88
88
70
ENDCHAR
STARTCHAR ogonek
ENCODING 731
SWIDTH 350 0
DWIDTH 7 0
BBX 4 5 1 -5
BITMAP
30
60
C0
C0
70
ENDCHAR
STARTCHAR tilde
ENCODING 732
SWIDTH 400 0
DWIDTH 8 0
BBX 8 3 2 11
BITMAP
71
7E
84
ENDCHAR
STARTCHAR hungarumlaut
ENCODING 733
SWIDTH 400 0
DWIDTH 8 0
BBX 6 4 4 11
BITMAP
6C
6C
C8
90
ENDCHAR
STARTCHAR uni02EE
ENCODING 750
SWIDTH 455 0
DWIDTH 9 0
BBX 8 6 2 8
BITMAP
77
77
77
66
44
88
ENDCHAR
STARTCHAR uni037E
ENCODING 894
SWIDTH 280 0
DWIDTH 5 0
BBX 5 12 1 -2
BITMAP
30
38
78
20
00
00
70
70
70
60
40
80
ENDCHAR
STARTCHAR tonos
ENCODING 900
SWIDTH 400 0
DWIDTH 8 0
BBX 5 4 4 10
BITMAP
18
38
60
80
ENDCHAR
STARTCHAR dieresistonos
ENCODING 901
SWIDTH 400 0
DWIDTH 8 0
BBX 8 8 3 11
BITMAP
06
0E
18
20
00
66
E7
66
ENDCHAR
STARTCHAR anoteleia
ENCODING 903
SWIDTH 280 0
DWIDTH 5 0
BBX 3 3 2 3
BITMAP
60
E0
C0
ENDCHAR
STARTCHAR mu
ENCODING 956
SWIDTH 634 0
DWIDTH 12 0
BBX 12 14 1 -4
BITMAP
0C30
7C60
18E0
38E0
38E0
39C0
32D0
75D0
7DE0
70C0
4000
C000
C000
8000
ENDCHAR
STARTCHAR uni1E00
ENCODING 7680
SWIDTH 634 0
DWIDTH 12 0
BBX 14 20 -1 -6
BITMAP
0060
00E0
00E0
0170
0370
0270
0670
0470
0FF0
0870
1070
3070
2078
F8FC
0000
0380
0440
0440
0440
0380
ENDCHAR
STARTCHAR uni1E01
ENCODING 7681
SWIDTH 596 0
DWIDTH 12 0
BBX 11 16 1 -6
BITMAP
07E0
1CC0
39C0
71C0
71C0
E380
E5A0
EBA0
FBC0
6180
0000
0E00
1100
1100
1100
0E00
ENDCHAR
STARTCHAR uni1E02
ENCODING 7682
SWIDTH 680 0
DWIDTH 13 0
BBX 13 18 1 0
BITMAP
0380
0380
0380
0000
3FE0
0E30
0E38
1C38
1C38
1C70
1FC0
1CC0
3870
3870
3870
3870
78E0
FF80
ENDCHAR
STARTCHAR uni1E03
ENCODING 7683
SWIDTH 586 0
DWIDTH 11 0
BBX 11 18 1 0
BITMAP
1C00
1C00
1C00
0000
0C00
3C00
1C00
1800
39C0
3BE0
34E0
38E0
78E0
71C0
71C0
7180
7300
9E00
ENDCHAR
STARTCHAR uni1E04
ENCODING 7684
SWIDTH 680 0
DWIDTH 13 0
BBX 13 18 1 -4
BITMAP
3FE0
0E30
0E38
1C38
1C38
1C70
1FC0
1CC0
3870
3870
3870
3870
78E0
FF80
0000
0700
0700
0700
ENDCHAR
STARTCHAR uni1E05
ENCODING 7685
SWIDTH 586 0
DWIDTH 11 0
BBX 11 18 1 -4
BITMAP
0C00
3C00
1C00
1800
39C0
3BE0
34E0
38E0
78E0
71C0
71C0
7180
7300
9E00
0000
1C00
1C00
1C00
ENDCHAR
STARTCHAR uni1E06
ENCODING 7686
SWIDTH 680 0
DWIDTH 13 0
BBX 13 16 1 -2
BITMAP
3FE0
0E30
0E38
1C38
1C38
1C70
1FC0
1CC0
3870
3870
3870
3870
78E0
FF80
0000
1F80
ENDCHAR
STARTCHAR uni1E07
ENCODING 7687
SWIDTH 586 0
DWIDTH 11 0
BBX 11 16 1 -2
BITMAP
0C00
3C00
1C00
1800
39C0
3BE0
34E0
38E0
78E0
71C0
71C0
7180
7300
9E00
0000
3F00
ENDCHAR
STARTCHAR uni1E08
ENCODING 7688
SWIDTH 672 0
DWIDTH 13 0
BBX 13 24 2 -5
BITMAP
0180
0380
0600
0800
0000
03E0
1E38
3C10
7810
7000
7000
E000
E000
E000
E020
E020
7060
38C0
0F80
0400
0F00
0300
0300
1E00
ENDCHAR
STARTCHAR uni1E09
ENCODING 7689
SWIDTH 456 0
DWIDTH 9 0
BBX 10 20 1 -5
BITMAP
0180
0380
0600
0800
0000
0780
19C0
31C0
7000
E000
E000
E100
E200
E600
3800
3000
3800
1800
1800
7000
ENDCHAR
STARTCHAR uni1E0A
ENCODING 7690
SWIDTH 774 0
DWIDTH 15 0
BBX 15 18 1 0
BITMAP
01C0
01C0
01C0
0000
1FF0
0E18
0E0C
0E0E
1C0E
1C0E
1C0E
1C0E
1C1C
381C
383C
3878
38F0
FF80
ENDCHAR
STARTCHAR uni1E0B
ENCODING 7691
SWIDTH 609 0
DWIDTH 12 0
BBX 13 18 1 0
BITMAP
00E0
00E0
00E0
0000
0018
00F8
0070
0070
07F0
1C60
38E0
70E0
71E0
E1C0
E2D0
E5D0
F9E0
70C0
ENDCHAR
STARTCHAR uni1E0C
ENCODING 7692
SWIDTH 774 0
DWIDTH 15 0
BBX 15 18 1 -4
BITMAP
1FF0
0E18
0E0C
0E0E
1C0E
1C0E
1C0E
1C0E
1C1C
381C
383C
3878
38F0
FF80
0000
0380
0380
0380
ENDCHAR
STARTCHAR uni1E0D
ENCODING 7693
SWIDTH 609 0
DWIDTH 12 0
BBX 13 18 1 -4
BITMAP
0018
00F8
0070
0070
07F0
1C60
38E0
70E0
71E0
E1C0
E2D0
E5D0
F9E0
70C0
0000
0E00
0E00
0E00
ENDCHAR
STARTCHAR uni1E0E
ENCODING 7694
SWIDTH 774 0
DWIDTH 15 0
BBX 15 16 1 -2
BITMAP
1FF0
0E18
0E0C
0E0E
1C0E
1C0E
1C0E
1C0E
1C1C
381C
383C
3878
38F0
FF80
0000
0FC0
ENDCHAR
STARTCHAR uni1E0F
ENCODING 7695
SWIDTH 609 0
DWIDTH 12 0
BBX 13 16 1 -2
BITMAP
0018
00F8
0070
0070
07F0
1C60
38E0
70E0
71E0
E1C0
E2D0
E5D0
F9E0
70C0
0000
1F80
ENDCHAR
STARTCHAR uni1E10
ENCODING 7696
SWIDTH 774 0
DWIDTH 15 0
BBX 15 19 1 -5
BITMAP
1FF0
0E18
0E0C
0E0E
1C0E
1C0E
1C0E
1C0E
1C1C
381C
383C
3878
38F0
FF80
0300
0380
0180
0180
0700
ENDCHAR
STARTCHAR uni1E11
ENCODING 7697
SWIDTH 609 0
DWIDTH 12 0
BBX 13 19 1 -5
BITMAP
0018
00F8
0070
0070
07F0
1C60
38E0
70E0
71E0
E1C0
E2D0
E5D0
F9E0
72C0
0600
0700
0300
0300
0E00
ENDCHAR
STARTCHAR uni1E12
ENCODING 7698
SWIDTH 774 0
DWIDTH 15 0
BBX 15 19 1 -5
BITMAP
1FF0
0E18
0E0C
0E0E
1C0E
1C0E
1C0E
1C0E
1C1C
381C
383C
3878
38F0
FF80
0000
0300
0780
0C80
1040
ENDCHAR
STARTCHAR uni1E13
ENCODING 7699
SWIDTH 609 0
DWIDTH 12 0
BBX 13 19 1 -5
BITMAP
0018
00F8
0070
0070
07F0
1C60
38E0
70E0
71E0
E1C0
E2D0
E5D0
F9E0
70C0
0000
0600
0F00
1900
2080
ENDCHAR
STARTCHAR uni1E14
ENCODING 7700
SWIDTH 622 0
DWIDTH 12 0
BBX 13 21 1 0
BITMAP
0C00
0E00
0300
0080
0000
0FC0
0000
3FF8
0E18
0E18
0C10
1C20
1C40
1FC0
1C40
3840
3810
3820
3820
7860
FFE0
ENDCHAR
STARTCHAR uni1E15
ENCODING 7701
SWIDTH 476 0
DWIDTH 9 0
BBX 10 17 1 0
BITMAP
1800
1C00
0600
0100
0000
1F80
0000
0F00
19C0
31C0
73C0
E780
FE00
E000
E180
E300
3C00
ENDCHAR
STARTCHAR uni1E16
ENCODING 7702
SWIDTH 622 0
DWIDTH 12 0
BBX 13 21 1 0
BITMAP
00C0
01C0
0300
0400
0000
0FC0
0000
3FF8
0E18
0E18
0C10
1C20
1C40
1FC0
1C40
3840
3810
3820
3820
7860
FFE0
ENDCHAR
STARTCHAR uni1E17
ENCODING 7703
SWIDTH 476 0
DWIDTH 9 0
BBX 10 17 1 0
BITMAP
0180
0380
0600
0800
0000
1F80
0000
0F00
19C0
31C0
73C0
E780
FE00
E000
E180
E300
3C00
ENDCHAR
STARTCHAR uni1E18
ENCODING 7704
SWIDTH 622 0
DWIDTH 12 0
BBX 13 19 1 -5
BITMAP
3FF8
0E18
0E18
0C10
1C20
1C40
1FC0
1C40
3840
3810
3820
3820
7860
FFE0
0000
0600
0F00
1900
2080
ENDCHAR
STARTCHAR uni1E19
ENCODING 7705
SWIDTH 476 0
DWIDTH 9 0
BBX 10 15 1 -5
BITMAP
0F00
19C0
31C0
73C0
E780
FE00
E000
E180
E300
3C00
0000
1800
3C00
6400
8200
ENDCHAR
STARTCHAR uni1E1A
ENCODING 7706
SWIDTH 622 0
DWIDTH 12 0
BBX 13 18 1 -4
BITMAP
3FF8
0E18
0E18
0C10
1C20
1C40
1FC0
1C40
3840
3810
3820
3820
7860
FFE0
0000
1C40
1F80
2100
ENDCHAR
STARTCHAR uni1E1B
ENCODING 7707
SWIDTH 476 0
DWIDTH 9 0
BBX 10 14 1 -4
BITMAP
0F00
19C0
31C0
73C0
E780
FE00
E000
E180
E300
3C00
0000
7100
7E00
8400
ENDCHAR
STARTCHAR uni1E1C
ENCODING 7708
SWIDTH 622 0
DWIDTH 12 0
BBX 13 23 1 -5
BITMAP
0840
0FC0
0700
0000
3FF8
0E18
0E18
0C10
1C20
1C40
1FC0
1C40
3840
3810
3820
3820
7860
FFE0
0600
0700
0300
0300
0E00
ENDCHAR
STARTCHAR uni1E1D
ENCODING 7709
SWIDTH 476 0
DWIDTH 9 0
BBX 10 19 1 -5
BITMAP
1080
1F80
0E00
0000
0F00
19C0
31C0
73C0
E780
FE00
E000
E180
E300
3C00
1800
1C00
0C00
0C00
3800
ENDCHAR
STARTCHAR uni1E1E
ENCODING 7710
SWIDTH 585 0
DWIDTH 11 0
BBX 13 18 1 0
BITMAP
0380
0380
0380
0000
1FF8
0E18
0E10
0E10
1C00
1C20
1C60
1FC0
1C40
3840
3800
3800
3800
FC00
ENDCHAR
STARTCHAR uni1E1F
ENCODING 7711
SWIDTH 348 0
DWIDTH 7 0
BBX 13 22 -2 -4
BITMAP
0380
0380
0380
0000
00F0
01B8
0380
0380
0FE0
0700
0700
0700
0600
0600
0E00
0E00
0E00
0C00
0C00
5C00
D800
7000
ENDCHAR
STARTCHAR uni1E20
ENCODING 7712
SWIDTH 726 0
DWIDTH 14 0
BBX 13 16 2 0
BITMAP
0FC0
0000
07E0
1C38
3830
7010
7010
7000
E000
E000
E1F8
E0E0
E0E0
60E0
71E0
1F80
ENDCHAR
STARTCHAR uni1E21
ENCODING 7713
SWIDTH 522 0
DWIDTH 10 0
BBX 12 16 0 -4
BITMAP
0FC0
0000
0FB0
1CF0
38E0
38E0
18E0
19C0
0F80
3800
1F00
1F80
63C0
E1C0
E180
1E00
ENDCHAR
STARTCHAR uni1E22
ENCODING 7714
SWIDTH 800 0
DWIDTH 16 0
BBX 17 18 1 0
BITMAP
00E000
00E000
00E000
000000
1F9F80
0E0E00
0E0E00
0E0E00
0E0E00
1C1C00
1FFC00
1C1C00
1C1C00
383800
383800
383800
383800
FCFC00
ENDCHAR
STARTCHAR uni1E23
ENCODING 7715
SWIDTH 629 0
DWIDTH 12 0
BBX 13 18 1 0
BITMAP
0E00
0E00
0E00
0000
0C00
3C00
1C00
1C00
18C0
3BE0
3AE0
34E0
38C0
70C0
71C8
71D0
61E0
E0C0
ENDCHAR
STARTCHAR uni1E24
ENCODING 7716
SWIDTH 800 0
DWIDTH 16 0
BBX 17 18 1 -4
BITMAP
1F9F80
0E0E00
0E0E00
0E0E00
0E0E00
1C1C00
1FFC00
1C1C00
1C1C00
383800
383800
383800
383800
FCFC00
000000
038000
038000
038000
ENDCHAR
STARTCHAR uni1E25
ENCODING 7717
SWIDTH 629 0
DWIDTH 12 0
BBX 13 18 1 -4
BITMAP
0C00
3C00
1C00
1C00
18C0
3BE0
3AE0
34E0
38C0
70C0
71C8
71D0
61E0
E0C0
0000
0700
0700
0700
ENDCHAR
STARTCHAR uni1E26
ENCODING 7718
SWIDTH 800 0
DWIDTH 16 0
BBX 17 18 1 0
BITMAP
033000
073800
033000
000000
1F9F80
0E0E00
0E0E00
0E0E00
0E0E00
1C1C00
1FFC00
1C1C00
1C1C00
383800
383800
383800
383800
FCFC00
ENDCHAR
STARTCHAR uni1E27
ENCODING 7719
SWIDTH 629 0
DWIDTH 12 0
BBX 13 18 1 0
BITMAP
3300
7380
3300
0000
0C00
3C00
1C00
1C00
18C0
3BE0
3AE0
34E0
38C0
70C0
71C8
71D0
61E0
E0C0
ENDCHAR
STARTCHAR uni1E28
ENCODING 7720
SWIDTH 800 0
DWIDTH 16 0
BBX 17 19 1 -5
BITMAP
1F9F80
0E0E00
0E0E00
0E0E00
0E0E00
1C1C00
1FFC00
1C1C00
1C1C00
383800
383800
383800
383800
FCFC00
018000
01C000
00C000
00C000
038000
ENDCHAR
STARTCHAR uni1E29
ENCODING 7721
SWIDTH 629 0
DWIDTH 12 0
BBX 13 19 1 -5
BITMAP
0C00
3C00
1C00
1C00
18C0
3BE0
3AE0
34E0
38C0
70C0
71C8
71D0
61E0
E2C0
0600
0700
0300
0300
0E00
ENDCHAR
STARTCHAR uni1E2A
ENCODING 7722
SWIDTH 800 0
DWIDTH 16 0
BBX 17 18 1 -4
BITMAP
1F9F80
0E0E00
0E0E00
0E0E00
0E0E00
1C1C00
1FFC00
1C1C00
1C1C00
383800
383800
383800
383800
FCFC00
000000
042000
07E000
038000
ENDCHAR
STARTCHAR uni1E2B
ENCODING 7723
SWIDTH 629 0
DWIDTH 12 0
BBX 13 18 1 -4
BITMAP
0C00
3C00
1C00
1C00
18C0
3BE0
3AE0
34E0
38C0
70C0
71C8
71D0
61E0
E0C0
0000
1080
1F80
0E00
ENDCHAR
STARTCHAR uni1E2C
ENCODING 7724
SWIDTH 386 0
DWIDTH 8 0
BBX 9 18 1 -4
BITMAP
1F80
0E00
0E00
0E00
0E00
1C00
1C00
1C00
1C00
3800
3800
3800
3800
FC00
0000
7100
7E00
8400
ENDCHAR
STARTCHAR uni1E2D
ENCODING 7725
SWIDTH 339 0
DWIDTH 7 0
BBX 8 18 1 -4
BITMAP
0C
0E
0C
00
0C
7C
18
38
38
38
34
74
78
30
00
71
7E
84
ENDCHAR
STARTCHAR uni1E2E
ENCODING 7726
SWIDTH 386 0
DWIDTH 8 0
BBX 10 22 1 0
BITMAP
0180
0380
0600
0800
0000
39C0
39C0
39C0
3F80
0E00
0E00
1E00
1C00
1C00
1C00
1C00
3800
3800
3800
3800
7000
FC00
ENDCHAR
STARTCHAR uni1E2F
ENCODING 7727
SWIDTH 339 0
DWIDTH 7 0
BBX 7 19 2 0
BITMAP
06
0E
18
20
00
EE
EE
EE
00
18
F0
30
70
70
60
68
E8
F0
60
ENDCHAR
STARTCHAR uni1E30
ENCODING 7728
SWIDTH 688 0
DWIDTH 13 0
BBX 16 19 1 0
BITMAP
0060
00E0
0180
0200
0000
3FBF
0E18
0E30
0E60
1CC0
1D80
1F80
1F80
3D80
39C0
39E0
38E0
78F0
FC38
ENDCHAR
STARTCHAR uni1E31
ENCODING 7729
SWIDTH 570 0
DWIDTH 11 0
BBX 11 19 1 0
BITMAP
0300
0700
0C00
1000
0000
0C00
7C00
1C00
1800
3860
38E0
3920
3200
7600
7600
7600
6760
E3C0
E180
ENDCHAR
STARTCHAR uni1E32
ENCODING 7730
SWIDTH 688 0
DWIDTH 13 0
BBX 16 18 1 -4
BITMAP
3FBF
0E18
0E30
0E60
1CC0
1D80
1F80
1F80
3D80
39C0
39E0
38E0
78F0
FC38
0000
0700
0700
0700
ENDCHAR
STARTCHAR uni1E33
ENCODING 7731
SWIDTH 570 0
DWIDTH 11 0
BBX 11 18 1 -4
BITMAP
0C00
7C00
1C00
1800
3860
38E0
3920
3200
7600
7600
7600
6760
E3C0
E180
0000
0E00
0E00
0E00
ENDCHAR
STARTCHAR uni1E34
ENCODING 7732
SWIDTH 688 0
DWIDTH 13 0
BBX 16 16 1 -2
BITMAP
3FBF
0E18
0E30
0E60
1CC0
1D80
1F80
1F80
3D80
39C0
39E0
38E0
78F0
FC38
0000
0FC0
ENDCHAR
STARTCHAR uni1E35
ENCODING 7733
SWIDTH 570 0
DWIDTH 11 0
BBX 11 16 1 -2
BITMAP
0C00
7C00
1C00
1800
3860
38E0
3920
3200
7600
7600
7600
6760
E3C0
E180
0000
3F00
ENDCHAR
STARTCHAR uni1E36
ENCODING 7734
SWIDTH 586 0
DWIDTH 11 0
BBX 11 18 1 -4
BITMAP
1F80
0E00
0E00
0E00
1C00
1C00
1C00
1C00
3800
3800
3820
3860
78C0
FFC0
0000
0E00
0E00
0E00
ENDCHAR
STARTCHAR uni1E37
ENCODING 7735
SWIDTH 327 0
DWIDTH 6 0
BBX 6 18 2 -4
BITMAP
0C
7C
18
38
38
38
30
70
70
60
E8
E8
F0
60
00
70
70
70
ENDCHAR
STARTCHAR uni1E38
ENCODING 7736
SWIDTH 586 0
DWIDTH 11 0
BBX 11 20 1 -4
BITMAP
1F80
0000
1F80
0E00
0E00
0E00
1C00
1C00
1C00
1C00
3800
3800
3820
3860
78C0
FFC0
0000
0E00
0E00
0E00
ENDCHAR
STARTCHAR uni1E39
ENCODING 7737
SWIDTH 327 0
DWIDTH 6 0
BBX 7 20 2 -4
BITMAP
7E
00
0C
7C
18
38
38
38
30
70
70
60
E8
E8
F0
60
00
70
70
70
ENDCHAR
STARTCHAR uni1E3A
ENCODING 7738
SWIDTH 586 0
DWIDTH 11 0
BBX 11 16 1 -2
BITMAP
1F80
0E00
0E00
0E00
1C00
1C00
1C00
1C00
3800
3800
3820
3860
78C0
FFC0
0000
3F00
ENDCHAR
STARTCHAR uni1E3B
ENCODING 7739
SWIDTH 327 0
DWIDTH 6 0
BBX 7 16 1 -2
BITMAP
06
3E
0C
1C
1C
1C
18
38
38
30
74
74
78
30
00
FC
ENDCHAR
STARTCHAR uni1E3C
ENCODING 7740
SWIDTH 586 0
DWIDTH 11 0
BBX 11 19 1 -5
BITMAP
1F80
0E00
0E00
0E00
1C00
1C00
1C00
1C00
3800
3800
3820
3860
78C0
FFC0
0000
0600
0F00
1900
2080
ENDCHAR
STARTCHAR uni1E3D
ENCODING 7741
SWIDTH 327 0
DWIDTH 6 0
BBX 7 19 1 -5
BITMAP
06
3E
0C
1C
1C
1C
18
38
38
30
74
74
78
30
00
18
3C
64
82
ENDCHAR
STARTCHAR uni1E3E
ENCODING 7742
SWIDTH 921 0
DWIDTH 18 0
BBX 19 19 1 0
BITMAP
001800
003800
006000
008000
000000
3E03E0
0E0780
0F0780
1F0F80
170B80
171300
171700
132700
23A700
23C700
23C600
238E00
638E00
F93F00
ENDCHAR
STARTCHAR uni1E3F
ENCODING 7743
SWIDTH 914 0
DWIDTH 18 0
BBX 17 15 1 0
BITMAP
003000
007000
00C000
010000
000000
0CC300
79EF80
3AEB80
3CD380
38E700
31C700
71C680
71CE80
638F00
E38600
ENDCHAR
STARTCHAR uni1E40
ENCODING 7744
SWIDTH 921 0
DWIDTH 18 0
BBX 19 18 1 0
BITMAP
007000
007000
007000
000000
3E03E0
0E0780
0F0780
1F0F80
170B80
171300
171700
132700
23A700
23C700
23C600
238E00
638E00
F93F00
ENDCHAR
STARTCHAR uni1E41
ENCODING 7745
SWIDTH 914 0
DWIDTH 18 0
BBX 17 14 1 0
BITMAP
00E000
00E000
00E000
000000
0CC300
79EF80
3AEB80
3CD380
38E700
31C700
71C680
71CE80
638F00
E38600
ENDCHAR
STARTCHAR uni1E42
ENCODING 7746
SWIDTH 921 0
DWIDTH 18 0
BBX 19 18 1 -4
BITMAP
3E03E0
0E0780
0F0780
1F0F80
170B80
171300
171700
132700
23A700
23C700
23C600
238E00
638E00
F93F00
000000
01C000
01C000
01C000
ENDCHAR
STARTCHAR uni1E43
ENCODING 7747
SWIDTH 914 0
DWIDTH 18 0
BBX 17 14 1 -4
BITMAP
0CC300
79EF80
3AEB80
3CD380
38E700
31C700
71C680
71CE80
638F00
E38600
000000
01C000
01C000
01C000
ENDCHAR
STARTCHAR uni1E44
ENCODING 7748
SWIDTH 741 0
DWIDTH 14 0
BBX 16 18 1 0
BITMAP
01C0
01C0
01C0
0000
1E1F
0F04
0F04
0F04
0B8C
1388
11C8
11C8
11C8
30F0
20F0
2070
2070
F870
ENDCHAR
STARTCHAR uni1E45
ENCODING 7749
SWIDTH 635 0
DWIDTH 12 0
BBX 13 14 1 0
BITMAP
0700
0700
0700
0000
18C0
79E0
3AE0
34E0
38C0
70C0
71C8
71D0
61E0
E0C0
ENDCHAR
STARTCHAR uni1E46
ENCODING 7750
SWIDTH 741 0
DWIDTH 14 0
BBX 16 18 1 -4
BITMAP
1E1F
0F04
0F04
0F04
0B8C
1388
11C8
11C8
11C8
30F0
20F0
2070
2070
F870
0000
0380
0380
0380
ENDCHAR
STARTCHAR uni1E47
ENCODING 7751
SWIDTH 635 0
DWIDTH 12 0
BBX 13 14 1 -4
BITMAP
18C0
79E0
3AE0
34E0
38C0
70C0
71C8
71D0
61E0
E0C0
0000
0700
0700
0700
ENDCHAR
STARTCHAR uni1E48
ENCODING 7752
SWIDTH 741 0
DWIDTH 14 0
BBX 16 16 1 -2
BITMAP
1E1F
0F04
0F04
0F04
0B8C
1388
11C8
11C8
11C8
30F0
20F0
2070
2070
F870
0000
07E0
ENDCHAR
STARTCHAR uni1E49
ENCODING 7753
SWIDTH 635 0
DWIDTH 12 0
BBX 13 12 1 -2
BITMAP
18C0
79E0
3AE0
34E0
38C0
70C0
71C8
71D0
61E0
E0C0
0000
1F80
ENDCHAR
STARTCHAR uni1E4A
ENCODING 7754
SWIDTH 741 0
DWIDTH 14 0
BBX 16 19 1 -5
BITMAP
1E1F
0F04
0F04
0F04
0B8C
1388
11C8
11C8
11C8
30F0
20F0
2070
2070
F870
0000
0180
03C0
0640
0820
ENDCHAR
STARTCHAR uni1E4B
ENCODING 7755
SWIDTH 635 0
DWIDTH 12 0
BBX 13 15 1 -5
BITMAP
18C0
79E0
3AE0
34E0
38C0
70C0
71C8
71D0
61E0
E0C0
0000
0600
0F00
1900
2080
ENDCHAR
STARTCHAR uni1E4C
ENCODING 7756
SWIDTH 761 0
DWIDTH 15 0
BBX 14 22 2 0
BITMAP
0060
00E0
0180
0200
0000
0308
07F8
0830
07E0
1E30
3C18
781C
701C
701C
F01C
E03C
E038
E038
E078
60F0
31E0
1F80
ENDCHAR
STARTCHAR uni1E4D
ENCODING 7757
SWIDTH 562 0
DWIDTH 11 0
BBX 11 19 1 0
BITMAP
00C0
01C0
0300
0400
0000
0620
0FE0
10C0
0000
0F80
38C0
78E0
70E0
F0E0
E1E0
E1C0
E3C0
6380
3E00
ENDCHAR
STARTCHAR uni1E4E
ENCODING 7758
SWIDTH 761 0
DWIDTH 15 0
BBX 14 21 2 0
BITMAP
0660
0E70
0660
0000
0308
07F8
0830
07E0
1E30
3C18
781C
701C
701C
F01C
E03C
E038
E038
E078
60F0
31E0
1F80
ENDCHAR
STARTCHAR uni1E4F
ENCODING 7759
SWIDTH 562 0
DWIDTH 11 0
BBX 11 18 1 0
BITMAP
0CC0
1CE0
0CC0
0000
0620
0FE0
10C0
0000
0F80
38C0
78E0
70E0
F0E0
E1E0
E1C0
E3C0
6380
3E00
ENDCHAR
STARTCHAR uni1E50
ENCODING 7760
SWIDTH 761 0
DWIDTH 15 0
BBX 14 21 2 0
BITMAP
0C00
0E00
0300
0080
0000
0FC0
0000
07E0
1E30
3C18
781C
701C
701C
F01C
E03C
E038
E038
E078
60F0
31E0
1F80
ENDCHAR
STARTCHAR uni1E51
ENCODING 7761
SWIDTH 562 0
DWIDTH 11 0
BBX 11 17 1 0
BITMAP
1800
1C00
0600
0100
0000
1F80
0000
0F80
38C0
78E0
70E0
F0E0
E1E0
E1C0
E3C0
6380
3E00
ENDCHAR
STARTCHAR uni1E52
ENCODING 7762
SWIDTH 761 0
DWIDTH 15 0
BBX 14 21 2 0
BITMAP
00C0
01C0
0300
0400
0000
0FC0
0000
07E0
1E30
3C18
781C
701C
701C
F01C
E03C
E038
E038
E078
60F0
31E0
1F80
ENDCHAR
STARTCHAR uni1E53
ENCODING 7763
SWIDTH 562 0
DWIDTH 11 0
BBX 11 17 1 0
BITMAP
0180
0380
0600
0800
0000
1F80
0000
0F80
38C0
78E0
70E0
F0E0
E1E0
E1C0
E3C0
6380
3E00
ENDCHAR
STARTCHAR uni1E54
ENCODING 7764
SWIDTH 660 0
DWIDTH 13 0
BBX 13 19 1 0
BITMAP
00C0
01C0
0300
0400
0000
3FE0
0E70
0E38
0E38
1C38
1C38
1C70
1CF0
3FC0
3800
3800
3800
7800
FC00
ENDCHAR
STARTCHAR uni1E55
ENCODING 7765
SWIDTH 606 0
DWIDTH 12 0
BBX 12 19 1 -4
BITMAP
00C0
01C0
0300
0400
0000
0C60
7DF0
1A70
1A70
3C70
38E0
38E0
38C0
7180
7F00
7000
6000
E000
E000
ENDCHAR
STARTCHAR uni1E56
ENCODING 7766
SWIDTH 660 0
DWIDTH 13 0
BBX 13 18 1 0
BITMAP
0380
0380
0380
0000
3FE0
0E70
0E38
0E38
1C38
1C38
1C70
1CF0
3FC0
3800
3800
3800
7800
FC00
ENDCHAR
STARTCHAR uni1E57
ENCODING 7767
SWIDTH 606 0
DWIDTH 12 0
BBX 12 18 1 -4
BITMAP
0700
0700
0700
0000
0C60
7DF0
1A70
1A70
3C70
38E0
38E0
38C0
7180
7F00
7000
6000
E000
E000
ENDCHAR
STARTCHAR uni1E58
ENCODING 7768
SWIDTH 681 0
DWIDTH 13 0
BBX 13 18 1 0
BITMAP
0380
0380
0380
0000
1FE0
0E30
0E38
0E38
1C38
1C70
1C60
1F80
1CE0
38E0
38E0
38E0
38E0
FC70
ENDCHAR
STARTCHAR uni1E59
ENCODING 7769
SWIDTH 440 0
DWIDTH 9 0
BBX 8 14 2 0
BITMAP
1C
1C
1C
00
33
F7
7B
70
70
70
F0
E0
E0
C0
ENDCHAR
STARTCHAR uni1E5A
ENCODING 7770
SWIDTH 681 0
DWIDTH 13 0
BBX 13 18 1 -4
BITMAP
1FE0
0E30
0E38
0E38
1C38
1C70
1C60
1F80
1CE0
38E0
38E0
38E0
38E0
FC70
0000
0700
0700
0700
ENDCHAR
STARTCHAR uni1E5B
ENCODING 7771
SWIDTH 440 0
DWIDTH 9 0
BBX 8 14 2 -4
BITMAP
33
F7
7B
70
70
70
F0
E0
E0
C0
00
70
70
70
ENDCHAR
STARTCHAR uni1E5C
ENCODING 7772
SWIDTH 681 0
DWIDTH 13 0
BBX 13 20 1 -4
BITMAP
0FC0
0000
1FE0
0E30
0E38
0E38
1C38
1C70
1C60
1F80
1CE0
38E0
38E0
38E0
38E0
FC70
0000
0700
0700
0700
ENDCHAR
STARTCHAR uni1E5D
ENCODING 7773
SWIDTH 440 0
DWIDTH 9 0
BBX 8 16 2 -4
BITMAP
7E
00
33
F7
7B
70
70
70
F0
E0
E0
C0
00
70
70
70
ENDCHAR
STARTCHAR uni1E5E
ENCODING 7774
SWIDTH 681 0
DWIDTH 13 0
BBX 13 16 1 -2
BITMAP
1FE0
0E30
0E38
0E38
1C38
1C70
1C60
1F80
1CE0
38E0
38E0
38E0
38E0
FC70
0000
1F80
ENDCHAR
STARTCHAR uni1E5F
ENCODING 7775
SWIDTH 440 0
DWIDTH 9 0
BBX 9 12 1 -2
BITMAP
1980
7B80
3D80
3800
3800
3800
7800
7000
7000
6000
0000
FC00
ENDCHAR
STARTCHAR uni1E60
ENCODING 7776
SWIDTH 551 0
DWIDTH 11 0
BBX 11 18 1 0
BITMAP
0700
0700
0700
0000
0780
1CE0
1840
3840
3C00
3E00
1F00
0780
03C0
41C0
41C0
C180
6380
3E00
ENDCHAR
STARTCHAR uni1E61
ENCODING 7777
SWIDTH 417 0
DWIDTH 8 0
BBX 8 14 1 0
BITMAP
1C
1C
1C
00
0E
13
33
38
1C
1E
0E
E6
64
38
ENDCHAR
STARTCHAR uni1E62
ENCODING 7778
SWIDTH 551 0
DWIDTH 11 0
BBX 11 18 1 -4
BITMAP
0780
1CE0
1840
3840
3C00
3E00
1F00
0780
03C0
41C0
41C0
C180
6380
3E00
0000
0E00
0E00
0E00
ENDCHAR
STARTCHAR uni1E63
ENCODING 7779
SWIDTH 417 0
DWIDTH 8 0
BBX 8 14 1 -4
BITMAP
0E
13
33
38
1C
1E
0E
E6
64
38
00
38
38
38
ENDCHAR
STARTCHAR uni1E64
ENCODING 7780
SWIDTH 551 0
DWIDTH 11 0
BBX 11 23 1 0
BITMAP
0700
0700
0700
0000
0180
0380
0600
0800
0000
0780
1CE0
1840
3840
3C00
3E00
1F00
0780
03C0
41C0
41C0
C180
6380
3E00
ENDCHAR
STARTCHAR uni1E65
ENCODING 7781
SWIDTH 417 0
DWIDTH 8 0
BBX 8 19 1 0
BITMAP
0E
0E
0E
00
03
07
0C
10
00
0E
13
33
38
1C
1E
0E
E6
64
38
ENDCHAR
STARTCHAR uni1E66
ENCODING 7782
SWIDTH 551 0
DWIDTH 11 0
BBX 12 22 1 0
BITMAP
0380
0380
0380
0000
0800
0470
03C0
0100
0780
1CE0
1840
3840
3C00
3E00
1F00
0780
03C0
41C0
41C0
C180
6380
3E00
ENDCHAR
STARTCHAR uni1E67
ENCODING 7783
SWIDTH 417 0
DWIDTH 8 0
BBX 10 18 1 0
BITMAP
0E00
0E00
0E00
0000
10C0
0900
0E00
0400
0E00
1300
3300
3800
1C00
1E00
0E00
E600
6400
3800
ENDCHAR
STARTCHAR uni1E68
ENCODING 7784
SWIDTH 551 0
DWIDTH 11 0
BBX 11 22 1 -4
BITMAP
0E00
0E00
0E00
0000
0780
1CE0
1840
3840
3C00
3E00
1F00
0780
03C0
41C0
41C0
C180
6380
3E00
0000
0E00
0E00
0E00
ENDCHAR
STARTCHAR uni1E69
ENCODING 7785
SWIDTH 417 0
DWIDTH 8 0
BBX 8 18 1 -4
BITMAP
1C
1C
1C
00
0E
13
33
38
1C
1E
0E
E6
64
38
00
38
38
38
ENDCHAR
STARTCHAR uni1E6A
ENCODING 7786
SWIDTH 616 0
DWIDTH 12 0
BBX 13 18 2 0
BITMAP
0700
0700
0700
0000
7FF8
6710
4710
8710
0700
0E00
0E00
0E00
0E00
1C00
1C00
1C00
1C00
7F00
ENDCHAR
STARTCHAR uni1E6B
ENCODING 7787
SWIDTH 359 0
DWIDTH 7 0
BBX 7 17 2 0
BITMAP
38
38
38
00
04
18
38
FE
30
70
70
70
60
E4
E8
F0
60
ENDCHAR
STARTCHAR uni1E6C
ENCODING 7788
SWIDTH 616 0
DWIDTH 12 0
BBX 13 18 2 -4
BITMAP
7FF8
6710
4710
8710
0700
0E00
0E00
0E00
0E00
1C00
1C00
1C00
1C00
7F00
0000
0E00
0E00
0E00
ENDCHAR
STARTCHAR uni1E6D
ENCODING 7789
SWIDTH 359 0
DWIDTH 7 0
BBX 7 17 2 -4
BITMAP
04
18
38
FE
30
70
70
70
60
E4
E8
F0
60
00
70
70
70
ENDCHAR
STARTCHAR uni1E6E
ENCODING 7790
SWIDTH 616 0
DWIDTH 12 0
BBX 13 16 2 -2
BITMAP
7FF8
6710
4710
8710
0700
0E00
0E00
0E00
0E00
1C00
1C00
1C00
1C00
7F00
0000
3F00
ENDCHAR
STARTCHAR uni1E6F
ENCODING 7791
SWIDTH 359 0
DWIDTH 7 0
BBX 7 15 2 -2
BITMAP
04
18
38
FE
30
70
70
70
60
E4
E8
F0
60
00
FC
ENDCHAR
STARTCHAR uni1E70
ENCODING 7792
SWIDTH 616 0
DWIDTH 12 0
BBX 13 19 2 -5
BITMAP
7FF8
6710
4710
8710
0700
0E00
0E00
0E00
0E00
1C00
1C00
1C00
1C00
7F00
0000
0C00
1E00
3200
4100
ENDCHAR
STARTCHAR uni1E71
ENCODING 7793
SWIDTH 359 0
DWIDTH 7 0
BBX 8 18 1 -5
BITMAP
02
0C
1C
7F
18
38
38
38
30
72
74
78
30
00
18
3C
64
82
ENDCHAR
STARTCHAR uni1E72
ENCODING 7794
SWIDTH 776 0
DWIDTH 15 0
BBX 15 18 3 -4
BITMAP
FEFE
3838
3838
7070
7070
7070
7070
60E0
E0E0
E0E0
E0E0
E1C0
7380
3F00
0000
1980
39C0
1980
ENDCHAR
STARTCHAR uni1E73
ENCODING 7795
SWIDTH 634 0
DWIDTH 12 0
BBX 11 14 2 -4
BITMAP
1860
F8C0
31C0
71C0
71C0
7380
E5A0
EBA0
FBC0
6180
0000
3300
7380
3300
ENDCHAR
STARTCHAR uni1E74
ENCODING 7796
SWIDTH 776 0
DWIDTH 15 0
BBX 15 18 3 -4
BITMAP
FEFE
3838
3838
7070
7070
7070
7070
60E0
E0E0
E0E0
E0E0
E1C0
7380
3F00
0000
1C40
1F80
2100
ENDCHAR
STARTCHAR uni1E75
ENCODING 7797
SWIDTH 634 0
DWIDTH 12 0
BBX 11 14 2 -4
BITMAP
1860
F8C0
31C0
71C0
71C0
7380
E5A0
EBA0
FBC0
6180
0000
3880
3F00
4200
ENDCHAR
STARTCHAR uni1E76
ENCODING 7798
SWIDTH 776 0
DWIDTH 15 0
BBX 15 19 3 -5
BITMAP
FEFE
3838
3838
7070
7070
7070
7070
60E0
E0E0
E0E0
E0E0
E1C0
7380
3F00
0000
0600
0F00
1900
2080
ENDCHAR
STARTCHAR uni1E77
ENCODING 7799
SWIDTH 634 0
DWIDTH 12 0
BBX 11 15 2 -5
BITMAP
1860
F8C0
31C0
71C0
71C0
7380
E5A0
EBA0
FBC0
6180
0000
0C00
1E00
3200
4100
ENDCHAR
STARTCHAR uni1E78
ENCODING 7800
SWIDTH 776 0
DWIDTH 15 0
BBX 15 23 3 0
BITMAP
0060
00E0
0180
0200
0000
0710
07E0
0840
0000
FEFE
3838
3838
7070
7070
7070
7070
60E0
E0E0
E0E0
E0E0
E1C0
7380
3F00
ENDCHAR
STARTCHAR uni1E79
ENCODING 7801
SWIDTH 634 0
DWIDTH 12 0
BBX 11 19 2 0
BITMAP
0180
0380
0600
0800
0000
1C40
1F80
2100
0000
1860
F8C0
31C0
71C0
71C0
7380
E5A0
EBA0
FBC0
6180
ENDCHAR
STARTCHAR uni1E7A
ENCODING 7802
SWIDTH 776 0
DWIDTH 15 0
BBX 15 20 3 0
BITMAP
0CC0
1CE0
0CC0
0000
0FC0
0000
FEFE
3838
3838
7070
7070
7070
7070
60E0
E0E0
E0E0
E0E0
E1C0
7380
3F00
ENDCHAR
STARTCHAR uni1E7B
ENCODING 7803
SWIDTH 634 0
DWIDTH 12 0
BBX 11 16 2 0
BITMAP
1980
39C0
1980
0000
1F80
0000
1860
F8C0
31C0
71C0
71C0
7380
E5A0
EBA0
FBC0
6180
ENDCHAR
STARTCHAR uni1E7C
ENCODING 7804
SWIDTH 630 0
DWIDTH 12 0
BBX 13 18 3 0
BITMAP
0E20
0FC0
1080
0000
FCF8
7020
7060
7040
30C0
3080
3980
3900
3A00
3A00
3C00
3C00
3800
3800
ENDCHAR
STARTCHAR uni1E7D
ENCODING 7805
SWIDTH 518 0
DWIDTH 10 0
BBX 9 14 2 0
BITMAP
3880
3F00
4200
0000
3880
F180
7180
7180
7100
6300
E200
E400
F800
6000
ENDCHAR
STARTCHAR uni1E7E
ENCODING 7806
SWIDTH 630 0
DWIDTH 12 0
BBX 13 18 3 -4
BITMAP
FCF8
7020
7060
7040
30C0
3080
3980
3900
3A00
3A00
3C00
3C00
3800
3800
0000
1C00
1C00
1C00
ENDCHAR
STARTCHAR uni1E7F
ENCODING 7807
SWIDTH 518 0
DWIDTH 10 0
BBX 9 14 2 -4
BITMAP
3880
F180
7180
7180
7100
6300
E200
E400
F800
6000
0000
3800
3800
3800
ENDCHAR
STARTCHAR Wgrave
ENCODING 7808
SWIDTH 920 0
DWIDTH 18 0
BBX 19 19 2 0
BITMAP
030000
038000
00C000
002000
000000
FC01E0
3870C0
387080
38F180
38F100
397100
397200
397200
3A7400
3A7400
3C7C00
3C3800
383800
383000
ENDCHAR
STARTCHAR wgrave
ENCODING 7809
SWIDTH 795 0
DWIDTH 15 0
BBX 15 15 2 0
BITMAP
0C00
0E00
0300
0080
0000
38E6
F1C6
71C6
71C6
7384
638C
E788
EB90
F3E0
6180
ENDCHAR
STARTCHAR Wacute
ENCODING 7810
SWIDTH 920 0
DWIDTH 18 0
BBX 19 19 2 0
BITMAP
003000
007000
00C000
010000
000000
FC01E0
3870C0
387080
38F180
38F100
397100
397200
397200
3A7400
3A7400
3C7C00
3C3800
383800
383000
ENDCHAR
STARTCHAR wacute
ENCODING 7811
SWIDTH 795 0
DWIDTH 15 0
BBX 15 15 2 0
BITMAP
0060
00E0
0180
0200
0000
38E6
F1C6
71C6
71C6
7384
638C
E788
EB90
F3E0
6180
ENDCHAR
STARTCHAR Wdieresis
ENCODING 7812
SWIDTH 920 0
DWIDTH 18 0
BBX 19 18 2 0
BITMAP
033000
073800
033000
000000
FC01E0
3870C0
387080
38F180
38F100
397100
397200
397200
3A7400
3A7400
3C7C00
3C3800
383800
383000
ENDCHAR
STARTCHAR wdieresis
ENCODING 7813
SWIDTH 795 0
DWIDTH 15 0
BBX 15 14 2 0
BITMAP
0660
0E70
0660
0000
38E6
F1C6
71C6
71C6
7384
638C
E788
EB90
F3E0
6180
ENDCHAR
STARTCHAR uni1E86
ENCODING 7814
SWIDTH 920 0
DWIDTH 18 0
BBX 19 18 2 0
BITMAP
00E000
00E000
00E000
000000
FC01E0
3870C0
387080
38F180
38F100
397100
397200
397200
3A7400
3A7400
3C7C00
3C3800
383800
383000
ENDCHAR
STARTCHAR uni1E87
ENCODING 7815
SWIDTH 795 0
DWIDTH 15 0
BBX 15 14 2 0
BITMAP
0380
0380
0380
0000
38E6
F1C6
71C6
71C6
7384
638C
E788
EB90
F3E0
6180
ENDCHAR
STARTCHAR uni1E88
ENCODING 7816
SWIDTH 920 0
DWIDTH 18 0
BBX 19 18 2 -4
BITMAP
FC01E0
3870C0
387080
38F180
38F100
397100
397200
397200
3A7400
3A7400
3C7C00
3C3800
383800
383000
000000
01C000
01C000
01C000
ENDCHAR
STARTCHAR uni1E89
ENCODING 7817
SWIDTH 795 0
DWIDTH 15 0
BBX 15 14 2 -4
BITMAP
38E6
F1C6
71C6
71C6
7384
638C
E788
EB90
F3E0
6180
0000
0700
0700
0700
ENDCHAR
STARTCHAR uni1E8A
ENCODING 7818
SWIDTH 630 0
DWIDTH 12 0
BBX 16 18 -1 0
BITMAP
01C0
01C0
01C0
0000
1F9F
0F0C
0718
07B0
03E0
03C0
01C0
01C0
03E0
04E0
0CE0
1870
3070
FDFC
ENDCHAR
STARTCHAR uni1E8B
ENCODING 7819
SWIDTH 516 0
DWIDTH 10 0
BBX 11 14 0 0
BITMAP
0700
0700
0700
0000
0C60
3EE0
0F00
0E00
0600
0700
0F20
5740
F3C0
4300
ENDCHAR
STARTCHAR uni1E8C
ENCODING 7820
SWIDTH 630 0
DWIDTH 12 0
BBX 16 18 -1 0
BITMAP
0330
0738
0330
0000
1F9F
0F0C
0718
07B0
03E0
03C0
01C0
01C0
03E0
04E0
0CE0
1870
3070
FDFC
ENDCHAR
STARTCHAR uni1E8D
ENCODING 7821
SWIDTH 516 0
DWIDTH 10 0
BBX 11 14 0 0
BITMAP
1980
39C0
1980
0000
0C60
3EE0
0F00
0E00
0600
0700
0F20
5740
F3C0
4300
ENDCHAR
STARTCHAR uni1E8E
ENCODING 7822
SWIDTH 622 0
DWIDTH 12 0
BBX 13 18 3 0
BITMAP
0700
0700
0700
0000
FCF8
7060
3840
38C0
3980
3900
1E00
1E00
1C00
1C00
1C00
3C00
3800
FE00
ENDCHAR
STARTCHAR uni1E8F
ENCODING 7823
SWIDTH 489 0
DWIDTH 10 0
BBX 11 18 0 -4
BITMAP
0E00
0E00
0E00
0000
0820
7860
1C60
1C40
1CC0
0C80
0D80
0D00
0E00
0E00
0C00
4800
C800
F000
ENDCHAR
STARTCHAR uni1E90
ENCODING 7824
SWIDTH 618 0
DWIDTH 12 0
BBX 15 19 0 0
BITMAP
00C0
01E0
0320
0410
0000
0FFE
0C3C
0878
10F0
00E0
01E0
03C0
0780
0F00
1E00
1C10
3830
7020
FFE0
ENDCHAR
STARTCHAR uni1E91
ENCODING 7825
SWIDTH 466 0
DWIDTH 9 0
BBX 11 15 0 0
BITMAP
0300
0780
0C80
1040
0000
1FE0
3FC0
2380
4700
0C00
1800
3080
3880
7F80
C700
ENDCHAR
STARTCHAR uni1E92
ENCODING 7826
SWIDTH 618 0
DWIDTH 12 0
BBX 15 18 0 -4
BITMAP
0FFE
0C3C
0878
10F0
00E0
01E0
03C0
0780
0F00
1E00
1C10
3830
7020
FFE0
0000
0700
0700
0700
ENDCHAR
STARTCHAR uni1E93
ENCODING 7827
SWIDTH 466 0
DWIDTH 9 0
BBX 11 14 0 -4
BITMAP
1FE0
3FC0
2380
4700
0C00
1800
3080
3880
7F80
C700
0000
1C00
1C00
1C00
ENDCHAR
STARTCHAR uni1E94
ENCODING 7828
SWIDTH 618 0
DWIDTH 12 0
BBX 15 16 0 -2
BITMAP
0FFE
0C3C
0878
10F0
00E0
01E0
03C0
0780
0F00
1E00
1C10
3830
7020
FFE0
0000
1F80
ENDCHAR
STARTCHAR uni1E95
ENCODING 7829
SWIDTH 466 0
DWIDTH 9 0
BBX 11 12 0 -2
BITMAP
1FE0
3FC0
2380
4700
0C00
1800
3080
3880
7F80
C700
0000
3F00
ENDCHAR
STARTCHAR uni1E96
ENCODING 7830
SWIDTH 629 0
DWIDTH 12 0
BBX 13 16 1 -2
BITMAP
0C00
3C00
1C00
1C00
18C0
3BE0
3AE0
34E0
38C0
70C0
71C8
71D0
61E0
E0C0
0000
1F80
ENDCHAR
STARTCHAR uni1E97
ENCODING 7831
SWIDTH 359 0
DWIDTH 7 0
BBX 8 17 2 0
BITMAP
66
E7
66
00
04
18
38
FE
30
70
70
70
60
E4
E8
F0
60
ENDCHAR
STARTCHAR uni1E98
ENCODING 7832
SWIDTH 795 0
DWIDTH 15 0
BBX 15 16 2 0
BITMAP
0380
0440
0440
0440
0380
0000
38E6
F1C6
71C6
71C6
7384
638C
E788
EB90
F3E0
6180
ENDCHAR
STARTCHAR uni1E99
ENCODING 7833
SWIDTH 489 0
DWIDTH 10 0
BBX 11 20 0 -4
BITMAP
0E00
1100
1100
1100
0E00
0000
0820
7860
1C60
1C40
1CC0
0C80
0D80
0D00
0E00
0E00
0C00
4800
C800
F000
ENDCHAR
STARTCHAR uni1EA0
ENCODING 7840
SWIDTH 634 0
DWIDTH 12 0
BBX 14 18 -1 -4
BITMAP
0060
00E0
00E0
0170
0370
0270
0670
0470
0FF0
0870
1070
3070
2078
F8FC
0000
0380
0380
0380
ENDCHAR
STARTCHAR uni1EA1
ENCODING 7841
SWIDTH 596 0
DWIDTH 12 0
BBX 11 14 1 -4
BITMAP
07E0
1CC0
39C0
71C0
71C0
E380
E5A0
EBA0
FBC0
6180
0000
0E00
0E00
0E00
ENDCHAR
STARTCHAR uni1EA4
ENCODING 7844
SWIDTH 634 0
DWIDTH 12 0
BBX 14 23 -1 0
BITMAP
0030
0070
00C0
0100
0000
0020
00F0
038C
0000
0060
00E0
00E0
0170
0370
0270
0670
0470
0FF0
0870
1070
3070
2078
F8FC
ENDCHAR
STARTCHAR uni1EA5
ENCODING 7845
SWIDTH 596 0
DWIDTH 12 0
BBX 11 19 1 0
BITMAP
00C0
01C0
0300
0400
0000
0100
0380
04C0
1860
07E0
1CC0
39C0
71C0
71C0
E380
E5A0
EBA0
FBC0
6180
ENDCHAR
STARTCHAR uni1EA6
ENCODING 7846
SWIDTH 634 0
DWIDTH 12 0
BBX 14 23 -1 0
BITMAP
0300
0380
00C0
0020
0000
0020
00F0
038C
0000
0060
00E0
00E0
0170
0370
0270
0670
0470
0FF0
0870
1070
3070
2078
F8FC
ENDCHAR
STARTCHAR uni1EA7
ENCODING 7847
SWIDTH 596 0
DWIDTH 12 0
BBX 11 19 1 0
BITMAP
0C00
0E00
0300
0080
0000
0100
0380
04C0
1860
07E0
1CC0
39C0
71C0
71C0
E380
E5A0
EBA0
FBC0
6180
ENDCHAR
STARTCHAR uni1EAA
ENCODING 7850
SWIDTH 634 0
DWIDTH 12 0
BBX 14 22 -1 0
BITMAP
01C4
01F8
0210
0000
0020
00F0
038C
0000
0060
00E0
00E0
0170
0370
0270
0670
0470
0FF0
0870
1070
3070
2078
F8FC
ENDCHAR
STARTCHAR uni1EAB
ENCODING 7851
SWIDTH 596 0
DWIDTH 12 0
BBX 11 18 1 0
BITMAP
0E20
0FC0
1080
0000
0100
0380
04C0
1860
07E0
1CC0
39C0
71C0
71C0
E380
E5A0
EBA0
FBC0
6180
ENDCHAR
STARTCHAR uni1EAC
ENCODING 7852
SWIDTH 634 0
DWIDTH 12 0
BBX 14 23 -1 -4
BITMAP
00C0
01E0
0320
0410
0000
0060
00E0
00E0
0170
0370
0270
0670
0470
0FF0
0870
1070
3070
2078
F8FC
0000
0380
0380
0380
ENDCHAR
STARTCHAR uni1EAD
ENCODING 7853
SWIDTH 596 0
DWIDTH 12 0
BBX 11 19 1 -4
BITMAP
0300
0780
0C80
1040
0000
07E0
1CC0
39C0
71C0
71C0
E380
E5A0
EBA0
FBC0
6180
0000
0E00
0E00
0E00
ENDCHAR
STARTCHAR uni1EAE
ENCODING 7854
SWIDTH 634 0
DWIDTH 12 0
BBX 14 23 -1 0
BITMAP
0030
0070
00C0
0100
0000
0210
03F0
01C0
0000
0060
00E0
00E0
0170
0370
0270
0670
0470
0FF0
0870
1070
3070
2078
F8FC
ENDCHAR
STARTCHAR uni1EAF
ENCODING 7855
SWIDTH 596 0
DWIDTH 12 0
BBX 11 19 1 0
BITMAP
00C0
01C0
0300
0400
0000
0840
0FC0
0700
0000
07E0
1CC0
39C0
71C0
71C0
E380
E5A0
EBA0
FBC0
6180
ENDCHAR
STARTCHAR uni1EB0
ENCODING 7856
SWIDTH 634 0
DWIDTH 12 0
BBX 14 23 -1 0
BITMAP
0600
0700
0180
0040
0000
0210
03F0
01C0
0000
0060
00E0
00E0
0170
0370
0270
0670
0470
0FF0
0870
1070
3070
2078
F8FC
ENDCHAR
STARTCHAR uni1EB1
ENCODING 7857
SWIDTH 596 0
DWIDTH 12 0
BBX 11 19 1 0
BITMAP
1800
1C00
0600
0100
0000
0840
0FC0
0700
0000
07E0
1CC0
39C0
71C0
71C0
E380
E5A0
EBA0
FBC0
6180
ENDCHAR
STARTCHAR uni1EB4
ENCODING 7860
SWIDTH 634 0
DWIDTH 12 0
BBX 14 22 -1 0
BITMAP
0388
03F0
0420
0000
0210
03F0
01C0
0000
0060
00E0
00E0
0170
0370
0270
0670
0470
0FF0
0870
1070
3070
2078
F8FC
ENDCHAR
STARTCHAR uni1EB5
ENCODING 7861
SWIDTH 596 0
DWIDTH 12 0
BBX 11 18 1 0
BITMAP
0E20
0FC0
1080
0000
0840
0FC0
0700
0000
07E0
1CC0
39C0
71C0
71C0
E380
E5A0
EBA0
FBC0
6180
ENDCHAR
STARTCHAR uni1EB6
ENCODING 7862
SWIDTH 634 0
DWIDTH 12 0
BBX 14 22 -1 -4
BITMAP
0210
03F0
01C0
0000
0060
00E0
00E0
0170
0370
0270
0670
0470
0FF0
0870
1070
3070
2078
F8FC
0000
0380
0380
0380
ENDCHAR
STARTCHAR uni1EB7
ENCODING 7863
SWIDTH 596 0
DWIDTH 12 0
BBX 11 18 1 -4
BITMAP
1080
1F80
0E00
0000
07E0
1CC0
39C0
71C0
71C0
E380
E5A0
EBA0
FBC0
6180
0000
0E00
0E00
0E00
ENDCHAR
STARTCHAR uni1EB8
ENCODING 7864
SWIDTH 622 0
DWIDTH 12 0
BBX 13 18 1 -4
BITMAP
3FF8
0E18
0E18
0C10
1C20
1C40
1FC0
1C40
3840
3810
3820
3820
7860
FFE0
0000
0E00
0E00
0E00
ENDCHAR
STARTCHAR uni1EB9
ENCODING 7865
SWIDTH 476 0
DWIDTH 9 0
BBX 10 14 1 -4
BITMAP
0F00
19C0
31C0
73C0
E780
FE00
E000
E180
E300
3C00
0000
1C00
1C00
1C00
ENDCHAR
STARTCHAR uni1EBC
ENCODING 7868
SWIDTH 622 0
DWIDTH 12 0
BBX 13 18 1 0
BITMAP
0710
07E0
0840
0000
3FF8
0E18
0E18
0C10
1C20
1C40
1FC0
1C40
3840
3810
3820
3820
7860
FFE0
ENDCHAR
STARTCHAR uni1EBD
ENCODING 7869
SWIDTH 476 0
DWIDTH 9 0
BBX 11 14 1 0
BITMAP
0E20
0FC0
1080
0000
0F00
19C0
31C0
73C0
E780
FE00
E000
E180
E300
3C00
ENDCHAR
STARTCHAR uni1EBE
ENCODING 7870
SWIDTH 622 0
DWIDTH 12 0
BBX 13 23 1 0
BITMAP
0060
00E0
0180
0200
0000
00C0
01E0
0630
0000
3FF8
0E18
0E18
0C10
1C20
1C40
1FC0
1C40
3840
3810
3820
3820
7860
FFE0
ENDCHAR
STARTCHAR uni1EBF
ENCODING 7871
SWIDTH 476 0
DWIDTH 9 0
BBX 10 19 1 0
BITMAP
0180
0380
0600
0800
0000
0300
0780
18C0
2040
0F00
19C0
31C0
73C0
E780
FE00
E000
E180
E300
3C00
ENDCHAR
STARTCHAR uni1EC0
ENCODING 7872
SWIDTH 622 0
DWIDTH 12 0
BBX 13 23 1 0
BITMAP
0C00
0E00
0300
0080
0000
00C0
01E0
0630
0000
3FF8
0E18
0E18
0C10
1C20
1C40
1FC0
1C40
3840
3810
3820
3820
7860
FFE0
ENDCHAR
STARTCHAR uni1EC1
ENCODING 7873
SWIDTH 476 0
DWIDTH 9 0
BBX 10 19 1 0
BITMAP
1800
1C00
0600
0100
0000
0300
0780
18C0
2040
0F00
19C0
31C0
73C0
E780
FE00
E000
E180
E300
3C00
ENDCHAR
STARTCHAR uni1EC4
ENCODING 7876
SWIDTH 622 0
DWIDTH 12 0
BBX 13 22 1 0
BITMAP
0710
07E0
0840
0000
00C0
01E0
0630
0000
3FF8
0E18
0E18
0C10
1C20
1C40
1FC0
1C40
3840
3810
3820
3820
7860
FFE0
ENDCHAR
STARTCHAR uni1EC5
ENCODING 7877
SWIDTH 476 0
DWIDTH 9 0
BBX 11 18 1 0
BITMAP
0E20
0FC0
1080
0000
0300
0780
18C0
2040
0F00
19C0
31C0
73C0
E780
FE00
E000
E180
E300
3C00
ENDCHAR
STARTCHAR uni1EC6
ENCODING 7878
SWIDTH 622 0
DWIDTH 12 0
BBX 13 23 1 -4
BITMAP
0180
03C0
0640
0820
0000
3FF8
0E18
0E18
0C10
1C20
1C40
1FC0
1C40
3840
3810
3820
3820
7860
FFE0
0000
0E00
0E00
0E00
ENDCHAR
STARTCHAR uni1EC7
ENCODING 7879
SWIDTH 476 0
DWIDTH 9 0
BBX 10 19 1 -4
BITMAP
0600
0F00
1900
2080
0000
0F00
19C0
31C0
73C0
E780
FE00
E000
E180
E300
3C00
0000
1C00
1C00
1C00
ENDCHAR
STARTCHAR uni1ECA
ENCODING 7882
SWIDTH 386 0
DWIDTH 8 0
BBX 9 18 1 -4
BITMAP
1F80
0E00
0E00
0E00
0E00
1C00
1C00
1C00
1C00
3800
3800
3800
3800
FC00
0000
3800
3800
3800
ENDCHAR
STARTCHAR uni1ECB
ENCODING 7883
SWIDTH 339 0
DWIDTH 7 0
BBX 6 18 2 -4
BITMAP
18
1C
18
00
18
F8
30
70
70
70
68
E8
F0
60
00
70
70
70
ENDCHAR
STARTCHAR uni1ECC
ENCODING 7884
SWIDTH 761 0
DWIDTH 15 0
BBX 14 18 2 -4
BITMAP
07E0
1E30
3C18
781C
701C
701C
F01C
E03C
E038
E038
E078
60F0
31E0
1F80
0000
0700
0700
0700
ENDCHAR
STARTCHAR uni1ECD
ENCODING 7885
SWIDTH 562 0
DWIDTH 11 0
BBX 11 14 1 -4
BITMAP
0F80
38C0
78E0
70E0
F0E0
E1E0
E1C0
E3C0
6380
3E00
0000
0E00
0E00
0E00
ENDCHAR
STARTCHAR uni1ED0
ENCODING 7888
SWIDTH 761 0
DWIDTH 15 0
BBX 14 23 2 0
BITMAP
0060
00E0
0180
0200
0000
00C0
01E0
0730
0808
07E0
1E30
3C18
781C
701C
701C
F01C
E03C
E038
E038
E078
60F0
31E0
1F80
ENDCHAR
STARTCHAR uni1ED1
ENCODING 7889
SWIDTH 562 0
DWIDTH 11 0
BBX 11 19 1 0
BITMAP
00C0
01C0
0300
0400
0000
0300
0780
1CC0
2060
0F80
38C0
78E0
70E0
F0E0
E1E0
E1C0
E3C0
6380
3E00
ENDCHAR
STARTCHAR uni1ED2
ENCODING 7890
SWIDTH 761 0
DWIDTH 15 0
BBX 14 23 2 0
BITMAP
0600
0700
0180
0040
0000
00C0
01E0
0730
0808
07E0
1E30
3C18
781C
701C
701C
F01C
E03C
E038
E038
E078
60F0
31E0
1F80
ENDCHAR
STARTCHAR uni1ED3
ENCODING 7891
SWIDTH 562 0
DWIDTH 11 0
BBX 11 19 1 0
BITMAP
1800
1C00
0600
0100
0000
0300
0780
1CC0
2060
0F80
38C0
78E0
70E0
F0E0
E1E0
E1C0
E3C0
6380
3E00
ENDCHAR
STARTCHAR uni1ED6
ENCODING 7894
SWIDTH 761 0
DWIDTH 15 0
BBX 14 22 2 0
BITMAP
0388
03F0
0420
0000
00C0
01E0
0730
0808
07E0
1E30
3C18
781C
701C
701C
F01C
E03C
E038
E038
E078
60F0
31E0
1F80
ENDCHAR
STARTCHAR uni1ED7
ENCODING 7895
SWIDTH 562 0
DWIDTH 11 0
BBX 11 18 1 0
BITMAP
0E20
0FC0
1080
0000
0300
0780
1CC0
2060
0F80
38C0
78E0
70E0
F0E0
E1E0
E1C0
E3C0
6380
3E00
ENDCHAR
STARTCHAR uni1ED8
ENCODING 7896
SWIDTH 761 0
DWIDTH 15 0
BBX 14 23 2 -4
BITMAP
0180
03C0
0640
0820
0000
07E0
1E30
3C18
781C
701C
701C
F01C
E03C
E038
E038
E078
60F0
31E0
1F80
0000
0700
0700
0700
ENDCHAR
STARTCHAR uni1ED9
ENCODING 7897
SWIDTH 562 0
DWIDTH 11 0
BBX 11 19 1 -4
BITMAP
0600
0F00
1900
2080
0000
0F80
38C0
78E0
70E0
F0E0
E1E0
E1C0
E3C0
6380
3E00
0000
0E00
0E00
0E00
ENDCHAR
STARTCHAR uni1EDA
ENCODING 7898
SWIDTH 761 0
DWIDTH 15 0
BBX 17 19 2 0
BITMAP
003000
007000
00C000
010000
000000
07E380
1E3380
3C1B80
781F00
701E00
701C00
F01C00
E03C00
E03800
E03800
E07800
60F000
31E000
1F8000
ENDCHAR
STARTCHAR uni1EDB
ENCODING 7899
SWIDTH 562 0
DWIDTH 11 0
BBX 14 15 1 0
BITMAP
0060
00E0
0180
0200
0000
0F9C
38DC
78FC
70F8
F0F0
E1E0
E1C0
E3C0
6380
3E00
ENDCHAR
STARTCHAR uni1EDC
ENCODING 7900
SWIDTH 761 0
DWIDTH 15 0
BBX 17 19 2 0
BITMAP
030000
038000
00C000
002000
000000
07E380
1E3380
3C1B80
781F00
701E00
701C00
F01C00
E03C00
E03800
E03800
E07800
60F000
31E000
1F8000
ENDCHAR
STARTCHAR uni1EDD
ENCODING 7901
SWIDTH 562 0
DWIDTH 11 0
BBX 14 15 1 0
BITMAP
0600
0700
0180
0040
0000
0F9C
38DC
78FC
70F8
F0F0
E1E0
E1C0
E3C0
6380
3E00
ENDCHAR
STARTCHAR uni1EE0
ENCODING 7904
SWIDTH 761 0
DWIDTH 15 0
BBX 17 18 2 0
BITMAP
01C400
01F800
021000
000000
07E380
1E3380
3C1B80
781F00
701E00
701C00
F01C00
E03C00
E03800
E03800
E07800
60F000
31E000
1F8000
ENDCHAR
STARTCHAR uni1EE1
ENCODING 7905
SWIDTH 562 0
DWIDTH 11 0
BBX 14 14 1 0
BITMAP
0710
07E0
0840
0000
0F9C
38DC
78FC
70F8
F0F0
E1E0
E1C0
E3C0
6380
3E00
ENDCHAR
STARTCHAR uni1EE2
ENCODING 7906
SWIDTH 761 0
DWIDTH 15 0
BBX 17 18 2 -4
BITMAP
07E380
1E3380
3C1B80
781F00
701E00
701C00
F01C00
E03C00
E03800
E03800
E07800
60F000
31E000
1F8000
000000
038000
038000
038000
ENDCHAR
STARTCHAR uni1EE3
ENCODING 7907
SWIDTH 562 0
DWIDTH 11 0
BBX 14 14 1 -4
BITMAP
0F9C
38DC
78FC
70F8
F0F0
E1E0
E1C0
E3C0
6380
3E00
0000
0E00
0E00
0E00
ENDCHAR
STARTCHAR uni1EE4
ENCODING 7908
SWIDTH 776 0
DWIDTH 15 0
BBX 15 18 3 -4
BITMAP
FEFE
3838
3838
7070
7070
7070
7070
60E0
E0E0
E0E0
E0E0
E1C0
7380
3F00
0000
0E00
0E00
0E00
ENDCHAR
STARTCHAR uni1EE5
ENCODING 7909
SWIDTH 634 0
DWIDTH 12 0
BBX 11 14 2 -4
BITMAP
1860
F8C0
31C0
71C0
71C0
7380
E5A0
EBA0
FBC0
6180
0000
0E00
0E00
0E00
ENDCHAR
STARTCHAR uni1EE8
ENCODING 7912
SWIDTH 776 0
DWIDTH 15 0
BBX 18 19 3 0
BITMAP
001800
003800
006000
008000
000000
FEFFC0
3839C0
3839C0
707180
707100
707200
707000
60E000
E0E000
E0E000
E0E000
E1C000
738000
3F0000
ENDCHAR
STARTCHAR uni1EE9
ENCODING 7913
SWIDTH 634 0
DWIDTH 12 0
BBX 14 15 2 0
BITMAP
0060
00E0
0180
0200
0000
187C
F8DC
31DC
71D8
71D0
73A0
E5A0
EBA0
FBC0
6180
ENDCHAR
STARTCHAR uni1EEA
ENCODING 7914
SWIDTH 776 0
DWIDTH 15 0
BBX 18 19 3 0
BITMAP
030000
038000
00C000
002000
000000
FEFFC0
3839C0
3839C0
707180
707100
707200
707000
60E000
E0E000
E0E000
E0E000
E1C000
738000
3F0000
ENDCHAR
STARTCHAR uni1EEB
ENCODING 7915
SWIDTH 634 0
DWIDTH 12 0
BBX 14 15 2 0
BITMAP
0600
0700
0180
0040
0000
187C
F8DC
31DC
71D8
71D0
73A0
E5A0
EBA0
FBC0
6180
ENDCHAR
STARTCHAR uni1EEE
ENCODING 7918
SWIDTH 776 0
DWIDTH 15 0
BBX 18 18 3 0
BITMAP
01C400
01F800
021000
000000
FEFFC0
3839C0
3839C0
707180
707100
707200
707000
60E000
E0E000
E0E000
E0E000
E1C000
738000
3F0000
ENDCHAR
STARTCHAR uni1EEF
ENCODING 7919
SWIDTH 634 0
DWIDTH 12 0
BBX 14 14 2 0
BITMAP
0710
07E0
0840
0000
187C
F8DC
31DC
71D8
71D0
73A0
E5A0
EBA0
FBC0
6180
ENDCHAR
STARTCHAR uni1EF0
ENCODING 7920
SWIDTH 776 0
DWIDTH 15 0
BBX 18 18 3 -4
BITMAP
FEFFC0
3839C0
3839C0
707180
707100
707200
707000
60E000
E0E000
E0E000
E0E000
E1C000
738000
3F0000
000000
070000
070000
070000
ENDCHAR
STARTCHAR uni1EF1
ENCODING 7921
SWIDTH 634 0
DWIDTH 12 0
BBX 14 14 2 -4
BITMAP
187C
F8DC
31DC
71D8
71D0
73A0
E5A0
EBA0
FBC0
6180
0000
0E00
0E00
0E00
ENDCHAR
STARTCHAR Ygrave
ENCODING 7922
SWIDTH 622 0
DWIDTH 12 0
BBX 13 19 3 0
BITMAP
1800
1C00
0600
0100
0000
FCF8
7060
3840
38C0
3980
3900
1E00
1E00
1C00
1C00
1C00
3C00
3800
FE00
ENDCHAR
STARTCHAR ygrave
ENCODING 7923
SWIDTH 489 0
DWIDTH 10 0
BBX 11 19 0 -4
BITMAP
1800
1C00
0600
0100
0000
0820
7860
1C60
1C40
1CC0
0C80
0D80
0D00
0E00
0E00
0C00
4800
C800
F000
ENDCHAR
STARTCHAR uni1EF4
ENCODING 7924
SWIDTH 622 0
DWIDTH 12 0
BBX 13 18 3 -4
BITMAP
FCF8
7060
3840
38C0
3980
3900
1E00
1E00
1C00
1C00
1C00
3C00
3800
FE00
0000
1C00
1C00
1C00
ENDCHAR
STARTCHAR uni1EF5
ENCODING 7925
SWIDTH 489 0
DWIDTH 10 0
BBX 11 18 0 -8
BITMAP
0820
7860
1C60
1C40
1CC0
0C80
0D80
0D00
0E00
0E00
0C00
4800
C800
F000
0000
3800
3800
3800
ENDCHAR
STARTCHAR uni1EF8
ENCODING 7928
SWIDTH 622 0
DWIDTH 12 0
BBX 13 18 3 0
BITMAP
0E20
0FC0
1080
0000
FCF8
7060
3840
38C0
3980
3900
1E00
1E00
1C00
1C00
1C00
3C00
3800
FE00
ENDCHAR
STARTCHAR uni1EF9
ENCODING 7929
SWIDTH 489 0
DWIDTH 10 0
BBX 11 18 0 -4
BITMAP
0E20
0FC0
1080
0000
0820
7860
1C60
1C40
1CC0
0C80
0D80
0D00
0E00
0E00
0C00
4800
C800
F000
ENDCHAR
STARTCHAR uni2000
ENCODING 8192
SWIDTH 500 0
DWIDTH 10 0
BBX 1 1 0 0
BITMAP
00
ENDCHAR
STARTCHAR uni2001
ENCODING 8193
SWIDTH 1000 0
DWIDTH 19 0
BBX 1 1 0 0
BITMAP
00
ENDCHAR
STARTCHAR uni2002
ENCODING 8194
SWIDTH 500 0
DWIDTH 10 0
BBX 1 1 0 0
BITMAP
00
ENDCHAR
STARTCHAR uni2003
ENCODING 8195
SWIDTH 1000 0
DWIDTH 19 0
BBX 1 1 0 0
BITMAP
00
ENDCHAR
STARTCHAR uni2004
ENCODING 8196
SWIDTH 333 0
DWIDTH 6 0
BBX 1 1 0 0
BITMAP
00
ENDCHAR
STARTCHAR uni2005
ENCODING 8197
SWIDTH 250 0
DWIDTH 5 0
BBX 1 1 0 0
BITMAP
00
ENDCHAR
STARTCHAR uni2006
ENCODING 8198
SWIDTH 167 0
DWIDTH 3 0
BBX 1 1 0 0
BITMAP
00
ENDCHAR
STARTCHAR uni2007
ENCODING 8199
SWIDTH 560 0
DWIDTH 11 0
BBX 1 1 0 0
BITMAP
00
ENDCHAR
STARTCHAR uni2008
ENCODING 8200
SWIDTH 280 0
DWIDTH 5 0
BBX 1 1 0 0
BITMAP
00
ENDCHAR
STARTCHAR uni2009
ENCODING 8201
SWIDTH 200 0
DWIDTH 4 0
BBX 1 1 0 0
BITMAP
00
ENDCHAR
STARTCHAR uni200A
ENCODING 8202
SWIDTH 100 0
DWIDTH 2 0
BBX 1 1 0 0
BITMAP
00
ENDCHAR
STARTCHAR uni200B
ENCODING 8203
SWIDTH 0 0
DWIDTH 0 0
BBX 1 1 0 0
BITMAP
00
ENDCHAR
STARTCHAR uni2010
ENCODING 8208
SWIDTH 392 0
DWIDTH 8 0
BBX 6 2 2 4
BITMAP
FC
FC
ENDCHAR
STARTCHAR uni2011
ENCODING 8209
SWIDTH 392 0
DWIDTH 8 0
BBX 6 2 2 4
BITMAP
FC
FC
ENDCHAR
STARTCHAR figuredash
ENCODING 8210
SWIDTH 500 0
DWIDTH 10 0
BBX 10 2 1 4
BITMAP
FFC0
FFC0
ENDCHAR
STARTCHAR endash
ENCODING 8211
SWIDTH 500 0
DWIDTH 10 0
BBX 10 2 1 4
BITMAP
FFC0
FFC0
ENDCHAR
STARTCHAR emdash
ENCODING 8212
SWIDTH 1000 0
DWIDTH 19 0
BBX 20 2 1 4
BITMAP
FFFFF0
FFFFF0
ENDCHAR
STARTCHAR afii00208
ENCODING 8213
SWIDTH 1000 0
DWIDTH 19 0
BBX 20 2 1 4
BITMAP
FFFFF0
FFFFF0
ENDCHAR
STARTCHAR quoteleft
ENCODING 8216
SWIDTH 246 0
DWIDTH 5 0
BBX 4 6 3 8
BITMAP
10
20
60
E0
E0
E0
ENDCHAR
STARTCHAR quoteright
ENCODING 8217
SWIDTH 246 0
DWIDTH 5 0
BBX 4 6 2 8
BITMAP
70
70
70
60
40
80
ENDCHAR
STARTCHAR quotesinglbase
ENCODING 8218
SWIDTH 246 0
DWIDTH 5 0
BBX 4 6 0 -3
BITMAP
70
70
70
60
40
80
ENDCHAR
STARTCHAR quotereversed
ENCODING 8219
SWIDTH 246 0
DWIDTH 5 0
BBX 4 6 2 8
BITMAP
E0
E0
E0
60
20
10
ENDCHAR
STARTCHAR quotedblleft
ENCODING 8220
SWIDTH 455 0
DWIDTH 9 0
BBX 8 6 3 8
BITMAP
11
22
66
EE
EE
EE
ENDCHAR
STARTCHAR quotedblright
ENCODING 8221
SWIDTH 455 0
DWIDTH 9 0
BBX 8 6 2 8
BITMAP
77
77
77
66
44
88
ENDCHAR
STARTCHAR quotedblbase
ENCODING 8222
SWIDTH 455 0
DWIDTH 9 0
BBX 8 6 0 -3
BITMAP
77
77
77
66
44
88
ENDCHAR
STARTCHAR uni201F
ENCODING 8223
SWIDTH 455 0
DWIDTH 9 0
BBX 8 6 2 8
BITMAP
EE
EE
EE
66
22
11
ENDCHAR
STARTCHAR dagger
ENCODING 8224
SWIDTH 514 0
DWIDTH 10 0
BBX 8 16 3 -2
BITMAP
04
0C
0C
08
6F
FF
18
18
18
10
30
30
30
20
20
20
ENDCHAR
STARTCHAR daggerdbl
ENCODING 8225
SWIDTH 490 0
DWIDTH 10 0
BBX 8 16 2 -2
BITMAP
0C
0C
0C
0C
7F
7F
08
18
18
10
FE
FE
30
30
30
70
ENDCHAR
STARTCHAR bullet
ENCODING 8226
SWIDTH 465 0
DWIDTH 9 0
BBX 7 7 3 3
BITMAP
38
7C
FE
FE
FE
7C
38
ENDCHAR
STARTCHAR ellipsis
ENCODING 8230
SWIDTH 1000 0
DWIDTH 19 0
BBX 15 3 3 0
BITMAP
6186
E38E
C30C
ENDCHAR
STARTCHAR perthousand
ENCODING 8240
SWIDTH 1297 0
DWIDTH 25 0
BBX 22 14 3 -1
BITMAP
380800
67F000
463000
C66000
C64000
CC8000
797878
03CCCC
068C8C
058D8C
098988
119998
30F0F0
200000
ENDCHAR
STARTCHAR guilsinglleft
ENCODING 8249
SWIDTH 360 0
DWIDTH 7 0
BBX 5 8 2 1
BITMAP
08
10
20
60
E0
60
20
10
ENDCHAR
STARTCHAR guilsinglright
ENCODING 8250
SWIDTH 360 0
DWIDTH 7 0
BBX 5 8 2 1
BITMAP
40
20
30
38
30
20
40
80
ENDCHAR
STARTCHAR fraction
ENCODING 8260
SWIDTH 100 0
DWIDTH 2 0
BBX 11 15 -3 -1
BITMAP
0040
0060
00C0
0080
0100
0300
0600
0400
0800
1800
1000
2000
4000
C000
8000
ENDCHAR
STARTCHAR oneinferior
ENCODING 8321
SWIDTH 402 0
DWIDTH 8 0
BBX 6 8 2 -5
BITMAP
0C
3C
18
18
38
38
38
FC
ENDCHAR
STARTCHAR twoinferior
ENCODING 8322
SWIDTH 402 0
DWIDTH 8 0
BBX 8 8 1 -5
BITMAP
0E
1B
33
06
0C
39
7E
FE
ENDCHAR
STARTCHAR threeinferior
ENCODING 8323
SWIDTH 402 0
DWIDTH 8 0
BBX 7 8 2 -5
BITMAP
1C
76
06
38
0C
CE
CE
78
ENDCHAR
STARTCHAR uni20A5
ENCODING 8357
SWIDTH 914 0
DWIDTH 18 0
BBX 17 14 1 -2
BITMAP
001800
003000
0CF300
79EF80
3AEB80
3CF380
38E700
31C700
71C680
71CE80
638F00
E38600
030000
060000
ENDCHAR
STARTCHAR uni20A6
ENCODING 8358
SWIDTH 741 0
DWIDTH 14 0
BBX 16 14 1 0
BITMAP
1E1F
0F04
0F04
0F04
0FFC
1FF8
11C8
11C8
1FF8
3FF8
20F0
2070
2070
F870
ENDCHAR
STARTCHAR uni20A9
ENCODING 8361
SWIDTH 920 0
DWIDTH 18 0
BBX 19 14 2 0
BITMAP
FC01E0
3870C0
387080
38F180
3FFD00
3FFD00
397200
397200
3FFC00
3FFC00
3C7C00
3C3800
383800
383000
ENDCHAR
STARTCHAR Euro
ENCODING 8364
SWIDTH 672 0
DWIDTH 13 0
BBX 14 14 1 0
BITMAP
03F0
0E1C
1C08
3808
FF80
FF80
7000
7000
FF80
FF90
7010
3030
1860
07C0
ENDCHAR
STARTCHAR uni20AD
ENCODING 8365
SWIDTH 688 0
DWIDTH 13 0
BBX 16 14 1 0
BITMAP
3FBF
0E18
0E30
0E60
1CC0
1D80
FFFF
1F80
3D80
39C0
39E0
38E0
78F0
FC38
ENDCHAR
STARTCHAR uni2103
ENCODING 8451
SWIDTH 1028 0
DWIDTH 20 0
BBX 19 14 3 0
BITMAP
001F80
7870E0
CCE040
85C040
85C000
CDC000
7B8000
038000
038000
038080
038080
018180
00C300
003E00
ENDCHAR
STARTCHAR uni2109
ENCODING 8457
SWIDTH 941 0
DWIDTH 18 0
BBX 18 14 3 0
BITMAP
00FFC0
7870C0
CC7080
847080
84E000
CCE100
78E300
00FE00
00E200
01C200
01C000
01C000
01C000
07E000
ENDCHAR
STARTCHAR trademark
ENCODING 8482
SWIDTH 1100 0
DWIDTH 21 0
BBX 20 9 2 5
BITMAP
FFF870
99B8E0
98ACE0
182D60
182D60
182760
182660
182660
3E76F0
ENDCHAR
STARTCHAR uni212A
ENCODING 8490
SWIDTH 688 0
DWIDTH 13 0
BBX 16 14 1 0
BITMAP
3FBF
0E18
0E30
0E60
1CC0
1D80
1F80
1F80
3D80
39C0
39E0
38E0
78F0
FC38
ENDCHAR
STARTCHAR uni212B
ENCODING 8491
SWIDTH 634 0
DWIDTH 12 0
BBX 13 17 0 0
BITMAP
00E0
0110
0110
01E0
01E0
01E0
02E0
02E0
04E0
04E0
08E0
0FF0
1070
1070
2070
6070
F0F8
ENDCHAR
STARTCHAR uni2132
ENCODING 8498
SWIDTH 585 0
DWIDTH 11 0
BBX 13 14 1 0
BITMAP
01F8
00E0
00E0
00E0
10E0
11C0
1FC0
31C0
21C0
01C0
4380
4380
C380
FFC0
ENDCHAR
STARTCHAR minus
ENCODING 8722
SWIDTH 600 0
DWIDTH 12 0
BBX 9 2 2 4
BITMAP
FF80
FF80
ENDCHAR
STARTCHAR fraction
ENCODING 8725
SWIDTH 100 0
DWIDTH 2 0
BBX 11 15 -3 -1
BITMAP
0040
0060
00C0
0080
0100
0300
0600
0400
0800
1800
1000
2000
4000
C000
8000
ENDCHAR
STARTCHAR periodcentered
ENCODING 8729
SWIDTH 280 0
DWIDTH 5 0
BBX 3 3 2 3
BITMAP
60
E0
C0
ENDCHAR
STARTCHAR uni2236
ENCODING 8758
SWIDTH 280 0
DWIDTH 5 0
BBX 5 10 1 0
BITMAP
30
38
78
10
00
00
40
F0
E0
60
ENDCHAR
STARTCHAR uni2259
ENCODING 8793
SWIDTH 600 0
DWIDTH 12 0
BBX 9 11 2 2
BITMAP
0C00
1E00
3200
4100
0000
FF80
FF80
0000
0000
FF80
FF80
ENDCHAR
STARTCHAR uni225A
ENCODING 8794
SWIDTH 600 0
DWIDTH 12 0
BBX 9 11 2 2
BITMAP
4100
2600
3C00
1800
0000
FF80
FF80
0000
0000
FF80
FF80
ENDCHAR
STARTCHAR notequal
ENCODING 8800
SWIDTH 600 0
DWIDTH 12 0
BBX 9 14 2 -2
BITMAP
0180
0300
0300
0600
FF80
FF80
0C00
0C00
FF80
FF80
1800
3000
3000
6000
ENDCHAR
STARTCHAR equivalence
ENCODING 8801
SWIDTH 600 0
DWIDTH 12 0
BBX 9 5 0 2
BITMAP
FF80
0000
FF80
0000
FF80
ENDCHAR
STARTCHAR uni2262
ENCODING 8802
SWIDTH 600 0
DWIDTH 12 0
BBX 9 14 0 -2
BITMAP
0180
0300
0300
0600
0600
FF80
0C00
FF80
1800
FF80
1800
3000
3000
6000
ENDCHAR
STARTCHAR lessequal
ENCODING 8804
SWIDTH 600 0
DWIDTH 12 0
BBX 9 12 2 -2
BITMAP
0080
0380
0F80
3C00
F000
C000
7800
1E00
0780
0080
0000
FF80
ENDCHAR
STARTCHAR greaterequal
ENCODING 8805
SWIDTH 600 0
DWIDTH 12 0
BBX 9 12 2 -2
BITMAP
8000
E000
F800
1E00
0780
0180
0F00
3C00
F000
8000
0000
FF80
ENDCHAR
STARTCHAR uni226E
ENCODING 8814
SWIDTH 600 0
DWIDTH 12 0
BBX 9 14 2 -2
BITMAP
0180
0300
0380
0780
0F80
3E00
FC00
CC00
7800
1E00
1F80
3080
3000
6000
ENDCHAR
STARTCHAR uni226F
ENCODING 8815
SWIDTH 600 0
DWIDTH 12 0
BBX 9 14 2 -2
BITMAP
0180
0300
8300
E600
FE00
1E00
0F80
0D80
1F00
3C00
F800
B000
3000
6000
ENDCHAR
STARTCHAR uni2270
ENCODING 8816
SWIDTH 600 0
DWIDTH 12 0
BBX 9 14 2 -3
BITMAP
0180
0380
0380
0F80
3E00
F600
CC00
7C00
1E00
1F80
1880
3000
FF80
6000
ENDCHAR
STARTCHAR uni2271
ENCODING 8817
SWIDTH 600 0
DWIDTH 12 0
BBX 9 14 2 -3
BITMAP
0180
8300
E300
FE00
1E00
0780
0D80
0F00
3C00
F800
9800
3000
FF80
6000
ENDCHAR
STARTCHAR fi
ENCODING -1
SWIDTH 651 0
DWIDTH 13 0
BBX 16 18 -2 -4
BITMAP
00F8
01CE
038C
0380
0FFE
070E
070C
071C
061C
0E18
0E39
0E3A
0C3C
0C18
1C00
9800
D800
F000
ENDCHAR
STARTCHAR fl
ENCODING -1
SWIDTH 652 0
DWIDTH 13 0
BBX 16 18 -2 -4
BITMAP
007F
01CF
018E
038E
0FEE
030E
071C
071C
071C
0618
063A
0E3A
0E3C
0C18
0C00
5C00
D800
7000
ENDCHAR
ENDFONT
